SplineFontDB: 1.0
FontName: Rockets
FullName: Rockets
FamilyName: Rockets
Weight: Medium
Copyright: © 2006 John Stracke.  Released under the LGPL\n\nCreated with FontForge 1.0 (http://fontforge.sf.net)
Comments: 2006-1-29: Created.
Version: 1.00
ItalicAngle: 0
UnderlinePosition: -100
UnderlineWidth: 50
Ascent: 800
Descent: 200
NeedsXUIDChange: 1
XUID: [1021 101 1177823434 8024807]
FSType: 8
PfmFamily: 17
TTFWeight: 500
TTFWidth: 5
Panose: 4 0 6 3 0 0 0 0 0 0
LineGap: 90
VLineGap: 0
OS2WinAscent: 0
OS2WinAOffset: 1
OS2WinDescent: 0
OS2WinDOffset: 1
HheadAscent: 0
HheadAOffset: 1
HheadDescent: 0
HheadDOffset: 1
ScriptLang: 2
 1 latn 1 dflt 
 1 DFLT 1 dflt 
TtfTable: cvt  4
!$MDh
EndTtf
LangName: 1033 "" "" "" "" "" "" "" "" "" "John Stracke, http://www.thibault.org/fonts/" "" "http://www.thibault.org/fonts/" "http://www.thibault.org/fonts/" "LGPL" "http://www.gnu.org/copyleft/lesser.html" "" "" "" "" "Rockets" 
Encoding: UnicodeBmp
UnicodeInterp: none
DisplaySize: -24
AntiAlias: 1
FitToEm: 1
WinInfo: 8480 32 12
BeginChars: 65536 757
StartChar: exclam
Encoding: 33 33 31
Width: 273
Flags: W
VStem: 111 50<1.01367 74.5961 103 623.841>
Fore
111 1.01367 m 1
 111 74.6133 l 1
 162 74.5996 l 1
 161.934 72.167 161.2 8.35938 161 1 c 1
 111 1.01367 l 1
111 102.841 m 1
 111 623.841 l 1
 162 624.772 l 1
 161.934 612.608 161.2 140.572 161 103.772 c 1
 111 102.841 l 1
EndSplineSet
EndChar
StartChar: numbersign
Encoding: 35 35 33
Width: 639
Flags: W
DStem: 181.68 481.034 238.99 481.034 127.393 281.261 181.395 281.36 444.68 481.034 501.99 481.034 390.514 281.705 444.521 281.792
Fore
34.8379 231.034 m 1
 34.7939 281.034 l 1
 40.7712 281.083 76.6194 281.165 127.393 281.261 c 1
 181.68 481.034 l 1
 34.8379 481.034 l 1
 34.7939 531.034 l 1
 43.1895 531.103 110.517 531.236 195.361 531.383 c 1
 254.206 747.932 l 1
 304.206 748.068 l 1
 304.272 723.653 282.388 637.119 253.113 531.48 c 1
 458.478 531.813 l 1
 517.206 747.932 l 1
 567.206 748.068 l 1
 567.272 723.686 545.448 637.354 516.23 531.908 c 1
 556.494 531.974 582.812 532.021 584.574 532.034 c 1
 584.618 481.034 l 1
 501.99 481.034 l 1
 444.521 281.792 l 1
 522.946 281.917 581.905 282.013 584.574 282.034 c 1
 584.618 231.034 l 1
 429.674 231.034 l 1
 395.38 113.869 368.181 21.0586 368.206 12.0684 c 1
 317.206 11.9316 l 1
 376.745 231.034 l 1
 166.674 231.034 l 1
 132.38 113.869 105.182 21.0586 105.206 12.0684 c 1
 54.2061 11.9316 l 1
 113.745 231.034 l 1
 34.8379 231.034 l 1
390.514 281.705 m 1
 444.68 481.034 l 1
 238.99 481.034 l 1
 181.395 281.36 l 1
 245.62 281.473 321.775 281.596 390.514 281.705 c 1
EndSplineSet
EndChar
StartChar: dollar
Encoding: 36 36 34
Width: 429
Flags: W
VStem: 191 50<614 744>
Fore
374.59 352.869 m 1
 381.882 302.045 366.044 248.341 325.663 205.943 c 0
 301.521 181.802 272.383 166.101 241.806 159.204 c 1
 241.905 70.3359 241.978 57.5371 242 54.0684 c 1
 191 54 l 1
 191 155.839 l 1
 155.305 159.081 120.266 174.186 91.2568 201.701 c 0
 46.8555 246.104 34.2578 308.859 53.2031 366.347 c 1
 57.6709 333.674 73.0801 303.67 97.8867 278.864 c 0
 125.098 253.055 157.613 238.165 191 233.741 c 1
 191 362.409 l 1
 49.9902 385.323 l 1
 53.1025 404.477 l 1
 34.3018 461.88 46.9336 524.495 91.2568 568.818 c 0
 120.266 596.334 155.305 611.438 191 614.681 c 1
 191 744 l 1
 241 744.068 l 1
 241.06 733.071 241.167 710.091 241.293 611.431 c 1
 272.059 604.593 301.385 588.852 325.662 564.576 c 0
 366.045 522.179 381.882 468.475 374.59 417.649 c 1
 366.391 442.528 352.284 466.422 332.292 487.413 c 0
 306.303 513.402 274.522 529.609 241.384 535.583 c 1
 241.534 404.854 l 1
 378.01 382.677 l 1
 371.963 345.462 l 1
 372.897 347.92 373.772 350.39 374.59 352.869 c 1
367.046 333.802 m 1
 241.591 354.188 l 1
 241.724 234.999 l 1
 274.738 241.02 306.391 257.205 332.292 283.106 c 0
 347.115 298.67 358.703 315.829 367.046 333.802 c 1
60.6592 434.246 m 1
 191 413.065 l 1
 191 536.778 l 1
 157.613 532.355 125.097 517.466 97.8857 491.656 c 0
 80.9131 474.684 68.3389 455.276 60.6592 434.246 c 1
EndSplineSet
EndChar
StartChar: ampersand
Encoding: 38 38 36
Width: 467
Flags: HW
HStem: 3 79<258.446 324.946>
Fore
337.36 607.122 m 1
 304.526 642.189 252.074 665.038 189.64 666.254 c 0
 91.5352 666.254 12.2832 607.417 9.63965 527.374 c 0
 9.63965 524.849 9.72368 522.341 9.88985 519.854 c 1
 9.5 519.854 l 1
 9.44573 503.892 22.4628 465.123 50.1811 439.29 c 1
 62.7595 419.736 77.6646 397.792 94.037 374.421 c 1
 62.2796 335.414 42.8351 285.04 41.4463 228 c 0
 41.4463 105.369 133.38 6.30469 258.446 3 c 0
 292.019 3 323.553 10.6039 351.627 24.36 c 1
 359.236 13.1801 363.507 5.99218 363.5 3.85449 c 1
 414.5 3.74512 l 1
 385.831 45.416 l 1
 412.246 65.3911 434.056 91.6186 449.554 122.352 c 1
 423.214 102.349 392.46 89.6066 358.928 84.5202 c 1
 133.404 412.324 l 2
 133.497 412.509 133.59 412.694 133.841 412.651 c 2
 133.404 412.324 l 1
 74.0688 498.569 l 1
 84.7736 571.507 160.445 623.694 252.84 623.694 c 0
 283.751 623.092 312.412 617.187 337.36 607.122 c 1
112.297 348.607 m 1
 309.286 82.9248 l 1
 192.283 93.714 107.951 189.548 107.946 307 c 0
 108.294 321.285 109.775 335.185 112.297 348.607 c 1
EndSplineSet
EndChar
StartChar: quotesingle
Encoding: 39 39 37
Width: 273
Flags: W
Fore
111 609.827 m 5
 111 536.228 l 5
 162 536.241 l 5
 161.934 538.674 161.2 602.481 161 609.841 c 5
 111 609.827 l 5
EndSplineSet
EndChar
StartChar: parenright
Encoding: 41 41 39
Width: 441
Flags: HW
Fore
376.861 362 m 4
 376.268 335.701 378.176 321.749 374.246 295.894 c 4
 361.049 209.054 335.623 174.239 301.568 129.435 c 4
 266.15 82.8359 248.705 86.7061 219.314 66.0625 c 5
 189.148 105.938 l 5
 228.336 133.464 232.785 121.546 261.814 159.76 c 4
 299.834 209.811 314.602 236.056 324.83 303.516 c 4
 328.502 327.718 326.346 345.094 326.861 368 c 4
 326.344 410.561 325.672 427.019 315.994 480.193 c 4
 315.623 482.231 308.861 526 265.746 572.396 c 4
 228.326 612.666 212.887 616.506 172.877 649.777 c 5
 204.846 688.223 l 5
 245.631 654.307 254.633 654.278 303.809 605.071 c 4
 330.861 578 354.541 523.976 365.225 488.929 c 4
 374.83 434.793 376.277 409.995 376.861 362 c 4
EndSplineSet
Ref: 65 65 S -0.125 0.216506 -0.216506 -0.125 267.799 26.5665
EndChar
StartChar: asterisk
Encoding: 42 42 40
Width: 318
Flags: W
Fore
103.701 598.735 m 1
 104.893 601.271 106.228 603.721 107.695 606.069 c 1
 94.9199 624.319 l 1
 117.237 618.12 l 1
 118.763 619.656 120.358 621.115 122.02 622.491 c 1
 127.32 646.64 l 1
 138.528 632.481 l 1
 140.676 633.374 142.879 634.15 145.13 634.804 c 1
 156.84 650.24 l 1
 165.029 637.233 l 1
 169.99 637.043 174.811 636.272 179.433 634.984 c 1
 202.92 644.479 l 1
 198.442 626.073 l 1
 201.458 624 204.302 621.673 206.947 619.121 c 1
 225.96 621.439 l 1
 217.798 605.597 l 1
 219.63 602.612 221.248 599.47 222.632 596.194 c 1
 239.64 593.359 l 1
 227.015 581.637 l 1
 227.834 577.277 228.264 572.771 228.264 568.16 c 0
 228.264 567.861 228.262 567.563 228.259 567.267 c 1
 237.48 559.52 l 1
 226.607 552.674 l 1
 225.188 546.156 222.894 539.989 219.859 534.317 c 1
 223.8 506.24 l 1
 207.917 518.152 l 1
 206.425 516.654 204.867 515.229 203.246 513.883 c 1
 202.2 494 l 1
 188.108 504.455 l 1
 185.45 503.273 182.703 502.271 179.88 501.461 c 1
 179.88 488.96 l 1
 164.917 499.082 l 1
 164.147 499.054 163.375 499.04 162.6 499.04 c 0
 158.187 499.04 153.874 499.499 149.703 500.374 c 1
 133.08 485.359 l 1
 131.59 507.227 l 1
 127.994 509.26 124.601 511.634 121.445 514.31 c 1
 88.4404 504.8 l 1
 108.794 528.546 l 1
 107.214 530.919 105.771 533.402 104.479 535.98 c 1
 84.1201 537.92 l 1
 99.3936 549.375 l 1
 99.0557 550.636 98.751 551.912 98.4805 553.201 c 1
 78.3604 553.76 l 1
 97.1973 574.363 l 1
 97.375 576.467 97.6426 578.543 97.9961 580.588 c 1
 84.8398 586.88 l 1
 103.701 598.735 l 1
EndSplineSet
EndChar
StartChar: plus
Encoding: 43 43 41
Width: 457
Flags: W
VStem: 203 50<424 597.268>
Fore
203 597.268 m 5
 253 597.301 l 5
 253.09 589.053 253.287 509.957 253.483 424.634 c 5
 341.861 424.832 423.408 425.007 426.233 425.034 c 5
 426.267 374.034 l 5
 253.597 374.034 l 5
 253.795 285.855 253.969 204.62 254 201.801 c 5
 203 201.768 l 5
 203 374.034 l 5
 30.7666 374.034 l 5
 30.7334 424.034 l 5
 38.968 424.124 117.831 424.32 203 424.516 c 5
 203 597.268 l 5
EndSplineSet
EndChar
StartChar: hyphen
Encoding: 45 45 43
Width: 457
Flags: HW
Fore
30.7666 374.034 m 5
 30.7334 424.034 l 5
 49.1328 424.234 420.15 424.968 426.232 425.034 c 5
 426.267 374.034 l 5
 30.7666 374.034 l 5
EndSplineSet
EndChar
StartChar: period
Encoding: 46 46 44
Width: 137
Flags: W
DStem: 78 139.5 78 139.5 55 136.5 77.4199 132.542
Fore
72.4199 132.542 m 5
 79.4717 130.692 85.7666 126.262 90.6406 120.076 c 5
 96 124 l 5
 111 88 l 5
 100.182 78.9199 l 5
 97.6855 64.5527 89.6953 52.7363 79.1035 47.0879 c 5
 80 43.5 l 5
 62 40.5 l 5
 60.5693 43.8379 l 5
 52.4961 45.0781 45.248 49.6631 39.7383 56.4492 c 5
 35 52.5 l 5
 26 67.5 l 5
 39.7695 81.2695 l 5
 40.5703 84.5137 41 87.9473 41 91.5 c 4
 41 99.6572 38.7354 107.184 34.9199 113.223 c 5
 38.1895 119.424 42.6533 124.555 47.9004 128.104 c 5
 50 136.5 l 5
 73 139.5 l 5
 72.4199 132.542 l 5
EndSplineSet
EndChar
StartChar: slash
Encoding: 47 47 45
Width: 355
Flags: W
Fore
252.5 747.932 m 5
 52.5 11.9316 l 5
 103.5 12.0684 l 5
 103.434 36.3955 302.7 674.468 302.5 748.068 c 5
 252.5 747.932 l 5
EndSplineSet
EndChar
StartChar: zero
Encoding: 48 48 6
Width: 600
Flags: W
Fore
136.896 398.7 m 4
 136.896 296.955 215.342 214.38 312 214.38 c 4
 408.658 214.38 487.104 296.955 487.104 398.7 c 4
 487.104 500.444 408.658 583.021 312 583.021 c 4
 215.342 583.021 136.896 500.444 136.896 398.7 c 4
115.67 500.618 m 5
 119.642 509.073 124.092 517.236 128.983 525.066 c 5
 86.4004 585.9 l 5
 160.791 565.236 l 5
 165.877 570.354 171.196 575.217 176.73 579.804 c 5
 194.4 660.3 l 5
 231.761 613.107 l 5
 238.919 616.08 246.262 618.668 253.766 620.846 c 5
 292.8 672.3 l 5
 320.098 628.945 l 5
 336.634 628.311 352.703 625.743 368.107 621.45 c 5
 446.4 653.1 l 5
 431.476 591.744 l 5
 441.527 584.834 451.007 577.077 459.823 568.571 c 5
 523.2 576.3 l 5
 495.994 523.488 l 5
 502.098 513.541 507.494 503.068 512.106 492.149 c 5
 568.8 482.7 l 5
 526.716 443.622 l 5
 529.447 429.092 530.88 414.07 530.88 398.7 c 4
 530.88 397.705 530.873 396.712 530.861 395.721 c 5
 561.6 369.9 l 5
 525.357 347.08 l 5
 520.627 325.354 512.978 304.797 502.864 285.891 c 5
 516 192.3 l 5
 463.055 232.01 l 5
 458.083 227.016 452.889 222.266 447.488 217.777 c 5
 444 151.5 l 5
 397.027 186.351 l 5
 388.166 182.412 379.01 179.069 369.6 176.372 c 5
 369.6 134.7 l 5
 319.722 168.44 l 5
 317.159 168.347 314.584 168.3 312 168.3 c 4
 297.287 168.3 282.912 169.83 269.011 172.748 c 5
 213.6 122.7 l 5
 208.631 195.59 l 5
 196.647 202.365 185.334 210.281 174.817 219.2 c 5
 64.7998 187.5 l 5
 132.646 266.654 l 5
 127.378 274.565 122.57 282.841 118.264 291.437 c 5
 50.4004 297.9 l 5
 101.311 336.084 l 5
 100.185 340.287 99.1689 344.54 98.2676 348.837 c 5
 31.2002 350.7 l 5
 93.9912 419.378 l 5
 94.584 426.389 95.4766 433.31 96.6543 440.127 c 5
 52.7998 461.1 l 5
 115.67 500.618 l 5
EndSplineSet
EndChar
StartChar: one
Encoding: 49 49 7
Width: 297
Flags: W
DStem: 146.247 700.523 146.247 700.523 148.388 697.579 148.388 699.413
Fore
15.6123 633.452 m 1
 34.082 608.795 63.5859 592.73 98.7051 591.875 c 0
 116.785 591.875 133.727 596.315 148.388 604.267 c 1
 148.388 51.4633 l 1
 107.559 51.2859 71.2312 51.1158 63.7334 51.0342 c 1
 63.7666 1.03418 l 1
 280.267 1.03418 l 1
 280.233 52.0342 l 1
 277.689 52.0064 242.608 51.8619 201.308 51.6167 c 1
 201.099 208.736 200.555 679.234 200.388 710.068 c 1
 148.388 711 l 1
 148.388 699.413 l 1
 146.247 700.523 l 1
 148.388 697.579 l 1
 148.388 666.95 l 1
 130.399 639.271 99.0166 621.8 63.1553 621.8 c 0
 45.7676 622.224 29.6455 626.375 15.6123 633.452 c 1
EndSplineSet
EndChar
StartChar: two
Encoding: 50 50 7
Width: 459
Flags: W
Fore
341.244 608.438 m 5
 273.88 661.815 194.486 673.112 111.912 628.303 c 4
 71.4033 604.915 41.2031 571.59 24.1748 531.054 c 5
 19.6133 611.628 57.4932 688.105 130.003 729.969 c 5
 215.883 776.813 313.369 762.795 381.193 703.932 c 5
 435.007 704.068 l 5
 435.193 704.068 l 6
 435.159 704.068 435.097 704.129 435.007 704.068 c 4
 426.78 698.478 190.362 221.576 120.472 57.2656 c 1
 238.79 57.5596 422.366 57.9844 426.927 58.0342 c 1
 426.96 7.03418 l 1
 48.46 7.03418 l 1
 48.4268 57.0342 l 1
 50.8633 57.0605 341.244 608.438 341.244 608.438 c 5
EndSplineSet
EndChar
StartChar: three
Encoding: 51 51 11
Width: 491
Flags: W
HStem: 45 79<166.053 232.553> 375 50<88 369.236>
Fore
88 375 m 1
 87.8633 425 l 1
 154.804 425.182 321.401 425.805 369.306 425.966 c 1
 365.85 435.898 361.785 445.475 357.158 454.65 c 1
 365.965 448.054 374.278 440.824 382.036 433.011 c 1
 382.568 438.821 382.909 444.703 383.054 450.651 c 0
 383.054 573.282 291.12 672.347 166.054 675.651 c 0
 119.278 675.651 76.4619 661.892 41.4463 635.3 c 1
 77.7842 707.36 148.827 754.651 232.554 754.651 c 1
 357.62 751.347 449.554 652.282 449.554 529.651 c 0
 448.354 480.396 433.692 436.111 409.263 399.824 c 1
 433.691 363.538 448.353 319.254 449.553 270 c 0
 449.553 147.369 357.619 48.3047 232.553 45 c 1
 148.828 45 77.7832 92.291 41.4453 164.352 c 1
 76.4629 137.76 119.279 124 166.053 124 c 0
 291.119 127.305 383.053 226.369 383.053 349 c 0
 382.908 354.948 382.567 360.829 382.036 366.638 c 1
 374.277 358.825 365.965 351.596 357.159 344.999 c 1
 361.99 354.579 366.208 364.597 369.761 375 c 1
 88 375 l 1
EndSplineSet
EndChar
StartChar: four
Encoding: 52 52 12
Width: 491
Flags: W
VStem: 319 51<14 373.769>
Fore
319 766.477 m 1
 319 424.664 l 1
 262.178 424.476 198.311 424.259 169.388 424.122 c 1
 165.972 429.089 162.722 434.242 159.645 439.572 c 0
 99.9727 549.536 139.798 678.685 246 740 c 0
 269.779 752.968 294.396 761.721 319 766.477 c 1
319 781.196 m 1
 263.475 795.795 201.766 789.41 144.333 758.089 c 1
 38.1309 696.775 -1.69336 567.626 57.9766 457.664 c 1
 99.8398 385.154 176.317 347.274 256.894 351.835 c 1
 242.914 357.707 229.792 365.146 217.639 374.034 c 1
 319 374.034 l 1
 319 13.9316 l 1
 370 14 l 1
 369.968 19.8849 369.78 192.857 369.571 374.034 c 1
 426.267 374.034 l 1
 426.233 425.034 l 1
 424.43 425.014 401.442 424.936 369.512 424.394 c 1
 369.307 601.26 369.093 772.073 369 789 c 1
 319 788.932 l 1
 319 781.196 l 1
EndSplineSet
EndChar
StartChar: five
Encoding: 53 53 12
Width: 737
Flags: W
Fore
638.434 786.363 m 5
 651.054 786.305 672.293 785.443 710.23 770.268 c 4
 716.037 767.945 719.458 763.056 719.652 756.805 c 4
 719.845 750.554 716.737 745.453 711.081 742.785 c 4
 640.617 709.549 660.676 710.04 624 705 c 28
 509.103 689.209 385.84 703.052 327 690 c 4
 291.793 682.189 208.701 719.422 144 681 c 5
 135.942 676.215 145.568 529.394 136.857 523.457 c 5
 240.361 468.04 271.944 441.119 282.427 417.125 c 5
 287.048 417.278 291.826 417.404 297.88 417.369 c 4
 363.055 416.992 413.121 404.777 442.592 397.318 c 4
 553.119 369.343 636.361 354.371 715.266 275.466 c 4
 718.505 272.227 719.951 268.343 719.62 263.774 c 4
 719.288 259.205 717.306 255.558 713.624 252.833 c 4
 617.216 181.493 554.706 159.983 429.834 132.298 c 4
 405.396 126.879 356.27 116.015 307.227 116.099 c 4
 296.861 116.117 288.2 116.481 278.893 117.294 c 5
 271.209 96.6517 254.317 65.5188 208.278 41.262 c 4
 184.168 28.5592 142.45 1.43511 98.5656 1.63666 c 4
 85.9462 1.69462 64.7066 2.55737 26.77 17.732 c 4
 20.963 20.0548 17.5415 24.9437 17.348 31.1951 c 4
 17.1545 37.4464 20.2625 42.5471 25.9192 45.2151 c 4
 96.3834 78.4505 103.035 77.9312 138.313 111.31 c 4
 157.122 129.107 159.092 144.888 182.027 157.757 c 4
 214.176 175.797 232.432 180.612 271.439 186.567 c 4
 340.34 197.085 371.894 185.426 430.719 198.543 c 4
 506.699 215.486 548.796 228.615 604.903 267.8 c 5
 556.965 308.444 508.641 317.207 438.905 334.45 c 4
 372.676 350.825 337.828 338.362 271.567 351.335 c 4
 234.419 358.608 212.86 364.319 181.863 385.473 c 4
 153.513 404.82 157.98 418.752 138.313 436.89 c 4
 101.841 470.527 100.789 474.69 31.5625 509.76 c 4
 26.6992 512.223 23.8633 516.424 23.3965 521.855 c 4
 22.9287 527.286 -8.45049 677.276 51 738 c 28
 115.371 803.75 48 783 282 786 c 4
 307.03 786.321 364.957 786.084 414 786 c 4
 424.365 785.981 629.127 787.176 638.434 786.363 c 5
EndSplineSet
EndChar
StartChar: seven
Encoding: 55 55 14
Width: 459
Flags: W
Fore
410.5 703.068 m 13
 356.5 702.932 l 5
 288.676 761.795 191.189 775.813 105.31 728.969 c 5
 32.7998 687.105 -5.08008 610.628 -0.518555 530.054 c 5
 16.5098 570.59 46.71 603.915 87.2188 627.303 c 4
 169.793 672.112 263.187 660.815 330.551 607.438 c 5
 156.5 7.93164 l 5
 207.5 8.06836 l 5
 207.45 26.303 406.67 709.702 410.5 703.068 c 13
EndSplineSet
EndChar
StartChar: nine
Encoding: 57 57 15
Width: 600
Flags: HW
Fore
366.218 194.108 m 4
 340.09 158.134 349.567 180.625 299.096 145.533 c 5
 328.37 105 l 5
 375.889 138.038 371.333 118.374 405.829 163.597 c 4
 442.652 211.871 462.021 247.813 473.677 318.705 c 4
 477.366 341.139 479.093 356.676 478.838 379.761 c 4
 478.29 429.362 473.992 451.454 464.747 503.561 c 4
 463.397 511.17 462.709 515.009 459.853 520.166 c 5
 469.492 578.435 453.102 630.685 421.21 690.428 c 4
 389.986 748.914 344.086 783.462 277.81 781.729 c 4
 212.445 780.018 166.456 743.854 142.209 683.128 c 4
 111.404 605.98 113.715 543.347 153.509 470.428 c 4
 184.674 413.321 235.854 392.752 300.909 392.328 c 4
 350.528 392.004 395.983 402.693 424.858 435.432 c 5
 427.157 418.395 428.591 401.786 428.838 379.761 c 4
 429.06 359.977 427.583 346.55 424.37 327 c 4
 414.53 267.127 397.37 237 366.218 194.108 c 4
279.025 451.848 m 5
 242.815 455.894 214.104 471.39 195.539 505.408 c 4
 167.684 556.451 166.066 600.295 187.63 654.298 c 4
 195.965 675.173 207.971 691.902 223.45 703.664 c 5
 204.359 679.89 243.511 657.022 254.609 627.028 c 4
 257.734 618.584 253.792 609.495 261.609 605.028 c 4
 267.435 601.699 269.965 618.656 275.609 615.028 c 4
 285.88 608.426 289.922 599.233 289.609 587.028 c 4
 289.423 579.776 277.854 582.517 274.609 576.028 c 4
 267.205 561.221 262.34 551.535 263.609 535.028 c 4
 264.827 519.194 278.855 513.811 280.609 498.028 c 4
 282.591 480.194 282.19 466.337 279.025 451.848 c 5
334.266 711.774 m 5
 354.392 700.957 370.359 682.954 382.93 659.408 c 4
 409.756 609.156 420.913 566.477 403.615 514.961 c 5
 403.169 514.713 l 5
 403.395 514.308 l 5
 402.249 510.938 400.982 507.53 399.589 504.078 c 4
 382.936 462.811 343.219 450.447 298.719 450.738 c 4
 297.927 450.743 297.139 450.753 296.353 450.767 c 4
 308.954 467.008 323.56 488.079 331.609 501.028 c 4
 341.397 516.774 342.635 528.514 343.609 547.028 c 4
 344.245 559.12 343.84 568.147 335.609 577.028 c 4
 327.138 586.168 313.155 578.11 305.609 588.028 c 4
 297.26 599.001 294.57 610.632 300.609 623.028 c 4
 304.765 631.559 316.122 631.271 324.609 627.028 c 4
 334.002 622.332 328.512 601.143 338.609 604.028 c 4
 349.797 607.225 347.227 621.506 345.609 633.028 c 4
 343.888 645.296 327.604 649.01 330.609 661.028 c 4
 336.243 683.563 341.877 699.927 334.266 711.774 c 5
EndSplineSet
Ref: 65 65 S -0.125 0.216506 -0.216506 -0.125 374.937 62.5665
EndChar
StartChar: less
Encoding: 60 60 18
Width: 444
Flags: W
DStem: 89.2207 378.169 160.987 400.901 349.221 262.169 369.593 307.831 349.294 538.863 369.52 493.137 89.2939 423.863 160.987 400.901
Fore
89.2207 378.169 m 2
 79.7588 382.391 74.3906 390.679 74.4072 401.04 c 0
 74.4238 411.401 79.8184 419.672 89.2939 423.863 c 2
 349.294 538.863 l 1
 369.52 493.137 l 1
 160.987 400.901 l 1
 369.593 307.831 l 1
 349.221 262.169 l 1
 89.2207 378.169 l 2
EndSplineSet
EndChar
StartChar: question
Encoding: 63 63 21
Width: 491
Flags: W
VStem: 111 51<133 291.288>
DStem: 141 103.5 141 103.5 118 100.5 140.42 96.542
Fore
111 296 m 1
 111 133 l 1
 162 133.068 l 1
 161.936 144.751 161.257 250.401 161.003 291.346 c 1
 217.486 292.319 274.317 314.465 320.884 358.839 c 1
 407.597 445.552 412.639 580.608 326.541 671.38 c 1
 267.338 730.583 183.662 747.379 107.013 722.119 c 1
 150.576 716.162 190.582 695.616 223.656 662.541 c 1
 309.755 571.77 304.713 436.713 218 350 c 0
 191.982 325.22 162.62 307.221 131.966 296.029 c 1
 111 296 l 1
EndSplineSet
Ref: 46 46 N 1 0 0 1 68 -36
EndChar
StartChar: A
Encoding: 65 65 0
Width: 633
Flags: HW
Fore
306 764 m 1
 224 654 201.039 578.675 172 448 c 0
 157.118 381.034 149.559 324.142 156.743 268.342 c 1
 116.635 256.977 88.368 232.658 67 192 c 0
 31.8467 125.111 5 90 41 0 c 1
 77 76 78.3906 88.1084 119 132 c 0
 139.12 153.746 164.464 161.119 187.485 170.542 c 1
 240.497 94.2658 410.32 90.3379 446.352 170.2 c 1
 469.149 160.938 494.123 153.482 514 132 c 0
 554.609 88.1084 556 76 592 0 c 1
 628 90 601.153 125.111 566 192 c 0
 542.095 237.486 509.555 262.522 461.457 271.849 c 1
 464.694 332.768 458.299 389.941 440 462 c 0
 408.289 586.891 392 678 306 764 c 1
307.8 677.6 m 1
 368 617.4 379.402 553.623 401.6 466.2 c 0
 404.246 455.778 406.537 445.801 408.488 436.153 c 1
 332.942 451.74 281.534 453.38 210.212 438.491 c 1
 211.38 444.351 212.646 450.317 214 456.4 c 0
 234.327 547.872 250.4 600.6 307.8 677.6 c 1
416.17 381.604 m 1
 418.719 346.889 416.375 313.75 410 275.1 c 0
 397.826 201.295 246.266 205.062 218.2 274.4 c 0
 203.971 309.554 199.749 342.955 201.943 378.943 c 1
 282.106 362.78 335.631 362.609 416.17 381.604 c 1
EndSplineSet
EndChar
StartChar: B
Encoding: 66 66 8
Width: 722
Flags: W
Fore
267.275 343.6 m 2
 260.478 344.952 l 1
 240 318 233.603 315.18 215.565 304.332 c 1
 218.531 174.828 l 1
 229.319 178.277 243.743 181.686 267.167 185.457 c 0
 328.818 195.384 359.314 183.709 420.986 197.018 c 0
 496.354 213.283 534.749 226.251 588.54 263.56 c 1
 541.88 302.928 488.596 312.177 428.878 327.296 c 0
 369.506 342.329 336.965 330.91 267.275 343.6 c 2
211.261 492.264 m 1
 235.885 478.531 252.949 462.467 265.835 440.236 c 1
 267.121 440.45 l 2
 328.78 450.327 359.314 438.709 420.986 452.018 c 0
 496.354 468.283 534.749 481.251 588.54 518.56 c 1
 541.88 557.928 488.596 567.177 428.878 582.296 c 0
 369.506 597.329 336.925 585.695 267.275 598.6 c 0
 242.489 603.193 226.118 607.706 208.428 616 c 1
 211.261 492.264 l 1
100.268 260.814 m 0
 88.0442 260.973 67.4723 261.701 30.729 276.398 c 0
 24.9219 278.721 21.5004 283.61 21.307 289.861 c 0
 21.1135 296.112 24.2216 301.213 29.8785 303.881 c 0
 95.1258 334.652 103.306 335.748 134.265 363.919 c 1
 133.761 430.496 l 1
 101.352 459.61 92.8501 460.29 29.8785 490.119 c 0
 24.2262 492.796 21.1136 497.887 21.307 504.139 c 0
 21.5004 510.39 24.9024 515.329 30.7289 517.602 c 0
 44.067 522.807 70.715 533.418 100.268 533.186 c 0
 112.263 533.091 122.252 531.743 133.016 528.872 c 1
 131.816 687.236 l 1
 100.478 715 90.0042 716.638 29.8785 745.119 c 0
 24.2262 747.796 21.1136 752.888 21.307 759.139 c 0
 21.5004 765.39 24.9024 770.329 30.7289 772.602 c 0
 44.067 777.807 70.7174 788.629 100.268 788.186 c 0
 142.455 787.552 165.739 771.511 206.478 749.853 c 0
 224.073 740.499 263.59 719.067 279.128 663.204 c 1
 283.177 663.325 287.515 663.429 292.786 663.396 c 0
 355.799 663.011 403.774 651.332 432.691 644.014 c 0
 539.55 616.969 620.017 602.471 696.307 526.182 c 0
 699.546 522.943 700.992 519.059 700.661 514.49 c 0
 700.329 509.921 698.348 506.273 694.665 503.549 c 0
 604.259 436.668 544.704 415.104 431.054 389.427 c 1
 432.692 389.014 l 2
 539.552 361.976 620.017 347.471 696.307 271.182 c 0
 699.546 267.943 700.992 264.059 700.661 259.49 c 0
 700.329 254.921 698.348 251.273 694.665 248.549 c 0
 601.464 179.6 541.056 158.793 420.354 132.032 c 0
 396.727 126.794 349.233 116.294 301.819 116.374 c 0
 291.933 116.391 283.649 116.739 274.79 117.499 c 1
 267.279 97.486 250.843 67.5253 206.478 44.1468 c 0
 183.142 31.8498 142.752 5.61004 100.269 5.81411 c 0
 88.0435 5.87283 67.4723 6.70046 30.7289 21.3981 c 0
 24.9218 23.7209 21.5004 28.6099 21.307 34.8614 c 0
 21.1136 41.1128 24.2217 46.2135 29.8786 48.8813 c 0
 96.5053 80.3022 103.553 80.7113 136.184 110.67 c 1
 135.008 265.912 l 1
 119.335 261.424 108.23 260.711 100.268 260.814 c 0
EndSplineSet
EndChar
StartChar: C
Encoding: 67 67 20
Width: 639
Flags: W
Fore
556.618 679.5 m 28
 512.416 645.86 487.824 678.459 415.518 660.1 c 4
 328.095 637.901 264.317 441.5 204.119 381.3 c 5
 281.119 323.9 333.846 132.827 425.317 112.5 c 4
 494.627 97.0977 487.101 110.392 557.317 98.7002 c 4
 571.282 46.375 l 4
 560.905 13.793 432.854 2.81348 461.512 6.41406 c 5
 436.858 9.54297 411.133 14.4082 383.718 20.5 c 4
 253.044 49.5391 177.718 297.5 67.7178 379.5 c 5
 153.718 465.5 244.828 716.789 369.718 748.5 c 4
 441.777 766.797 489.857 795.802 559.868 769.955 c 28
 592.983 757.729 584.709 700.878 556.618 679.5 c 28
EndSplineSet
EndChar
StartChar: D
Encoding: 68 68 9
Width: 639
Flags: HW
VStem: 102 66<60 756>
Fore
82.3818 679.5 m 0
 54.291 700.878 46.0166 757.729 79.1318 769.955 c 0
 149.143 795.802 197.223 766.797 269.282 748.5 c 0
 394.172 716.789 485.281 465.5 571.282 379.5 c 1
 461.281 297.5 385.956 49.5391 255.282 20.5 c 0
 227.867 14.4082 202.142 9.54297 177.487 6.41406 c 1
 206.146 2.81348 78.0947 13.793 67.7178 46.375 c 1
 81.6826 98.7002 l 1
 89.3824 99.9823 96.1474 100.964 102.181 101.716 c 1
 104.64 667.123 l 1
 97.5918 669.572 90.3015 673.473 82.3818 679.5 c 0
169.149 666.018 m 1
 176.301 105.789 l 1
 185.97 106.951 197.812 108.973 213.683 112.5 c 0
 305.153 132.827 357.881 323.9 434.881 381.3 c 1
 374.683 441.5 310.904 637.901 223.481 660.1 c 0
 201.633 665.647 184.141 666.542 169.149 666.018 c 1
EndSplineSet
EndChar
StartChar: E
Encoding: 69 69 10
Width: 590
Flags: W
Fore
333.729 423.669 m 5
 321.859 425.646 l 6
 262.175 435.584 226.071 424.283 167.159 437.375 c 4
 89.4082 454.653 84.5195 577.966 158.829 596.835 c 4
 220.29 612.44 258.758 601.183 321.265 613.325 c 4
 354.639 619.808 374.271 625.697 402.778 644.224 c 4
 423.273 657.544 424.639 675.479 442.899 692.375 c 4
 480.207 726.893 490.499 728.075 555.1 758.675 c 5
 478.6 789.275 448.755 766.455 391.899 736.575 c 4
 353.234 716.255 378 720 324.027 697.712 c 5
 272.246 700.463 223.65 718.027 162.399 702.475 c 4
 56.2422 675.521 113.399 690 39.3994 674 c 5
 5.67871 496.126 3.54688 316.531 53.3994 110 c 5
 115.399 98 63.2256 121.358 174.3 96.6748 c 4
 231.221 84.0254 279.578 77.5996 327.009 83.707 c 5
 393 72 357.34 75.5879 391.899 57.4248 c 4
 448.755 27.5449 478.6 4.72461 555.1 35.3252 c 5
 490.499 65.9248 480.207 67.1074 442.899 101.625 c 4
 424.415 118.728 423.112 133.262 403.339 144.537 c 4
 374.352 161.066 354.808 165.367 321.859 170.646 c 4
 262.115 180.217 226.071 169.283 167.159 182.375 c 4
 89.4082 199.653 84.5195 322.966 158.829 341.835 c 4
 220.29 357.44 266.758 346.183 329.265 358.325 c 4
 335.263 359.49 328.487 422.465 333.729 423.669 c 5
EndSplineSet
EndChar
StartChar: F
Encoding: 70 70 12
Width: 526
Flags: HW
Fore
174.3 26.6748 m 24
 159.599 -18.2012 115.399 8 53.3994 20 c 1
 3.54688 226.531 5.67871 496.126 39.3994 674 c 1
 113.399 690 56.2422 675.521 162.399 702.475 c 0
 223.65 718.027 272.246 700.463 324.027 697.712 c 1
 378 720 353.234 716.255 391.899 736.575 c 0
 448.755 766.455 478.6 789.275 555.1 758.675 c 1
 490.499 728.075 480.207 726.893 442.899 692.375 c 0
 424.639 675.479 423.273 657.544 402.778 644.224 c 0
 374.271 625.697 354.639 619.808 321.265 613.325 c 0
 258.758 601.183 220.29 612.44 158.829 596.835 c 0
 84.5195 577.966 89.4082 454.653 167.159 437.375 c 0
 226.071 424.283 262.175 435.584 321.859 425.646 c 2
 333.729 423.669 l 1
 328.487 422.465 335.263 359.49 329.265 358.325 c 0
 266.758 346.183 220.29 357.44 158.829 341.835 c 0
 84.5195 322.966 212.61 143.62 174.3 26.6748 c 24
EndSplineSet
KernsSLIF: 119 -138 0 0 118 -92 0 0 117 -107 0 0 116 -107 0 0 115 -138 0 0 114 -200 0 0 113 -138 0 0 112 -138 0 0 111 -154 0 0 110 -107 0 0 109 -200 0 0 106 -200 0 0 105 -138 0 0 103 -153 0 0 101 -77 0 0 100 -138 0 0 99 -107 0 0 97 -169 0 0 339 -153 0 0
EndChar
StartChar: G
Encoding: 71 71 21
Width: 758
Flags: W
Fore
402.32 306.123 m 1
 333.744 309.099 279 365.695 279 435 c 0
 279 461.854 287.219 486.801 301.278 507.459 c 1
 276.299 533.685 272.424 572.978 291.58 605.6 c 0
 315.584 646.477 355.967 650.899 403.3 653.48 c 0
 459.074 656.522 498.512 653.858 542.38 619.28 c 0
 582.375 587.755 590.731 551.246 597.1 500.72 c 0
 604.617 441.08 596.682 404.61 576.58 347.96 c 0
 556.69 291.907 540.413 242.418 496.78 202 c 0
 452.725 161.19 419.943 134.599 359.98 131.319 c 0
 295.955 127.818 258.221 150.365 204.94 186.04 c 0
 152.601 221.085 124.624 265.897 97.7803 322.881 c 0
 71.7354 378.169 74.0949 416.811 74.9805 477.92 c 0
 75.8955 541.065 69.1062 583.82 102.34 637.52 c 0
 139.927 698.253 176.844 730.808 244.899 752.48 c 0
 369 792 343.421 792.213 416.98 792.4 c 0
 587.572 792.835 654.1 690.56 654.1 690.56 c 1
 561.526 729.312 476.852 749.59 410.14 744.207 c 0
 354.002 739.678 298.663 719.576 225.46 702.881 c 0
 189.653 694.715 182.384 663.76 162.38 632.96 c 0
 144.509 605.444 132.759 588.106 129.7 555.44 c 0
 125.114 506.458 131.678 477.824 143.38 430.04 c 0
 153.239 389.779 161.228 366.356 184.419 332 c 0
 210.101 293.953 224.589 244.367 266.5 225.641 c 0
 313.762 204.523 348.769 200.734 398.74 214.24 c 0
 453.261 228.976 486.581 270.207 519.58 316.04 c 0
 554.765 364.908 558.049 404.219 562.899 464.24 c 0
 565.459 495.912 554.66 514.814 537.819 541.76 c 0
 518.155 573.223 506.421 597.083 471.7 610.16 c 0
 431.749 625.207 397.036 632.642 362.26 607.881 c 0
 346.147 596.409 368.974 578.428 376.26 560.061 c 1
 386.415 562.633 397.049 564 408 564 c 0
 479.208 564 537 506.208 537 435 c 0
 537 402.258 524.781 372.353 504.658 349.598 c 1
 503.803 322.076 462.663 273.081 431.659 256.16 c 0
 394.104 235.663 364.966 246.685 322.22 248.52 c 0
 288.767 249.956 259.896 264.181 236.859 288.48 c 0
 202.679 324.535 208.931 361.017 192.78 408 c 0
 183.727 434.338 175.471 448.735 172.26 476.4 c 0
 167.68 515.854 159.239 540.988 173.02 578.24 c 0
 187.795 618.182 206.175 639.454 241.419 663.359 c 0
 285.432 693.213 316.47 703.6 369.1 711.24 c 0
 428.996 719.935 465.393 718.962 524.14 704.4 c 0
 572.016 692.533 607.783 685.674 635.859 645.119 c 0
 671.991 592.929 671.457 550.438 674.619 487.04 c 0
 677.795 423.363 668.429 386.715 651.819 325.16 c 0
 637.918 273.644 623.855 245.927 597.1 199.76 c 0
 578.089 166.957 562.541 151.135 535.54 124.52 c 0
 500.026 89.5137 483.411 61.9028 437.5 42.4404 c 0
 397.31 25.4033 369.395 33.7893 325.78 35.5996 c 0
 260.397 38.3135 234 21 159 54 c 0
 111.027 75.108 235.769 83.9121 287.02 94.8799 c 0
 331.577 104.415 359.121 95.1194 403.3 106.28 c 0
 444.618 116.719 471.375 121.734 503.619 149.6 c 0
 546.01 186.233 564.897 214.83 587.98 265.881 c 0
 612.062 319.14 613.327 354.023 622.18 411.8 c 0
 630.278 464.653 646.664 497.384 631.3 548.6 c 0
 615.407 601.576 591.468 629.79 546.94 662.6 c 0
 518.693 683.413 493.093 675.282 458.02 676.28 c 0
 419.661 677.372 396.194 680.613 359.98 667.92 c 0
 308.007 649.702 262.739 647.374 236.859 598.76 c 0
 218.049 563.425 212.06 531.292 215.043 498 c 0
 217.261 473.239 241.105 449.367 246 420 c 0
 258 348 284.249 302.862 353.26 291.881 c 0
 370.133 289.196 395.255 294.847 402.32 306.123 c 1
EndSplineSet
EndChar
StartChar: H
Encoding: 72 72 22
Width: 553
Flags: W
Fore
374.354 555.555 m 0
 400.08 641.03 370.529 783.146 435.189 778.869 c 0
 461.52 777.128 473.496 761.247 475.404 745.385 c 0
 493.284 596.74 421.356 548.072 421.747 387 c 0
 422.109 237.7 478.678 190.292 478.452 75.4255 c 0
 478.423 60.2033 479.345 47.2277 475.404 28.6149 c 0
 466.038 -15.6162 408.179 -18.1469 397.37 30.2321 c 0
 379.876 108.503 395.237 150.416 374.354 218.445 c 0
 350.664 295.618 346.603 308.098 336.791 329.382 c 1
 312.09 350.463 242.754 337.646 219.535 327.204 c 1
 208.42 305.345 196.367 279.162 178.055 209.254 c 0
 159.348 137.839 176.359 102.476 161.737 30.1171 c 0
 160.126 22.1453 153.648 -8.50404 121.468 -7.00789 c 0
 94.9197 -5.77363 83.0922 8.72649 80.1449 24.0816 c 0
 54.5146 157.608 134.475 254.105 133.96 387 c 0
 133.441 520.743 49.8781 640.348 80.1449 749.918 c 0
 91.754 791.945 152.431 794.04 161.737 743.883 c 0
 175.627 669.013 160.457 629.978 178.055 564.746 c 0
 184.58 540.56 197.308 490.612 219.5 446.836 c 1
 248.68 433 310.043 418.977 336.617 444.284 c 1
 347.397 468.028 350.05 474.803 374.354 555.555 c 0
EndSplineSet
EndChar
StartChar: I
Encoding: 73 73 26
Width: 633
Flags: W
Fore
446.352 643.799 m 4
 469.149 653.062 494.123 660.517 514 682 c 4
 554.609 725.892 537 705 592 764 c 5
 588 648 601.153 688.889 566 622 c 4
 542.094 576.513 488.049 542.861 423 527 c 6
 419.945 526.795 l 5
 422.753 468.572 418.862 311.224 406.327 249.121 c 5
 419.945 248.205 l 5
 423 248 l 6
 488.049 232.139 542.094 198.487 566 153 c 4
 601.153 86.1113 588 108 609 15 c 5
 530 70 554.609 49.1084 514 93 c 4
 494.123 114.483 469.149 121.938 446.352 131.201 c 5
 424.748 140.958 287.762 143.244 187.484 131.542 c 28
 157.043 127.989 139.12 114.746 119 93 c 4
 78.3906 49.1084 106 75 30 11 c 5
 21 78 31.8467 86.1113 67 153 c 4
 88.3682 193.658 140.385 225.824 201 242 c 6
 210.714 242.677 l 5
 207.653 273.972 206.629 355.267 207.828 387.499 c 4
 206.629 419.732 207.653 501.028 210.714 532.323 c 5
 201 533 l 6
 140.385 549.176 88.3682 581.342 67 622 c 4
 31.8467 688.889 42 675 41 764 c 5
 108 708 78.3906 725.892 119 682 c 4
 139.12 660.254 157.043 647.01 187.484 643.458 c 28
 287.762 631.756 424.748 634.042 446.352 643.799 c 4
EndSplineSet
EndChar
StartChar: J
Encoding: 74 74 27
Width: 633
Flags: W
Fore
230.945 -200.205 m 1
 234 -200 l 2
 300.805 -195.515 392.91 -173.809 396.613 -122.556 c 0
 409.148 -60.4531 422.753 468.572 419.945 526.795 c 1
 423 527 l 2
 488.049 542.861 542.094 576.513 566 622 c 0
 601.153 688.889 588 648 592 764 c 1
 537 705 554.609 725.892 514 682 c 0
 494.123 660.517 469.149 653.062 446.352 643.799 c 0
 424.748 634.042 287.762 631.756 187.484 643.458 c 0
 157.043 647.011 139.12 660.254 119 682 c 0
 78.3904 725.891 108 708 41 764 c 1
 42 675 31.8467 688.889 67 622 c 0
 88.3682 581.342 140.385 549.176 201 533 c 2
 210.714 532.323 l 1
 207.653 501.028 206.629 419.732 207.828 387.499 c 0
 206.806 360.02 207 90 200.351 -90.3497 c 0
 197.449 -169.069 57 -108 -1.51562 -83.542 c 0
 -29.793 -71.7228 -49.8799 -66.7461 -70 -45 c 0
 -110.61 -1.1086 -81 -19 -148 37 c 1
 -147 -52 -157.153 -38.1113 -122 -105 c 0
 -100.632 -145.658 -50.7109 -192.223 12 -194 c 2
 230.945 -200.205 l 1
EndSplineSet
EndChar
StartChar: K
Encoding: 75 75 28
Width: 590
Flags: W
Fore
148.472 9.40354 m 1
 148.472 12.4382 147.697 18.3144 146.916 25.5884 c 0
 142.492 66.7884 142.306 115.475 142.298 136.22 c 0
 142.263 221.56 147.709 297.699 152.721 340.035 c 2
 153.642 347.729 l 1
 153.721 347.728 l 2
 164.347 347.728 172.551 348.125 181.471 348.948 c 1
 209.845 286.784 342.619 73.9029 380.753 46.7374 c 0
 382.648 45.3877 383.066 45.127 384.921 44.1469 c 0
 425.713 22.5897 448.944 6.44745 491.131 5.81411 c 0
 520.682 5.37047 547.333 16.1934 560.671 21.3981 c 0
 566.497 23.6717 569.899 28.61 570.093 34.8614 c 0
 570.286 41.1128 567.174 46.204 561.521 48.8813 c 0
 495.707 80.0557 489.323 79.3386 453.086 112.635 c 0
 434.949 129.3 437.285 140.761 410.769 157.567 c 2
 409.709 158.482 l 2
 377.263 188.244 290.188 351.435 236.271 412.367 c 1
 284.65 448.425 384.7 613.568 410.952 631.647 c 0
 434.087 647.579 434.555 663.74 453.086 681.365 c 0
 487.036 713.653 493.541 713.059 561.521 745.119 c 0
 567.178 747.787 570.286 752.888 570.093 759.139 c 0
 569.899 765.39 566.478 770.279 560.671 772.602 c 0
 523.928 787.299 503.357 788.127 491.132 788.186 c 0
 448.648 788.39 408.254 762.156 384.921 749.853 c 0
 353.75 733.417 383.459 749.043 383.319 748.96 c 0
 344.188 725.913 235.187 538.338 210.94 470.188 c 1
 196.088 471.523 183.837 473.72 163.102 476.459 c 1
 163.878 500.694 163.943 522.707 163.948 536.51 c 0
 163.96 569.397 163.452 594.062 163.437 630.473 c 0
 163.406 700.913 166.316 748.72 180.502 769.613 c 0
 184.228 775.1 184.543 781.369 180.832 786.866 c 0
 177.122 792.364 171.137 794.645 164.708 793.013 c 0
 157.461 791.173 135.454 785.635 123.986 783.331 c 1
 121.276 785.455 118.729 787.153 117.305 787.67 c 1
 110.448 787.67 98.1491 785.06 86.83 782.661 c 0
 80.6496 781.352 76.4392 777.001 75.2625 770.794 c 0
 40.9088 589.581 32.9598 403.232 32.8475 309.521 c 0
 32.7882 260.032 33.8024 142.241 58.8182 36.4804 c 0
 60.2362 30.4853 64.5008 26.4439 70.5491 25.2733 c 0
 102.947 19.0028 113.561 4.87651 121.24 -2.25107 c 0
 126.489 -7.12253 126.16 -3.75084 132.914 -7.21815 c 1
 136.025 -7.21815 147.13 5.47481 148.472 9.40354 c 1
EndSplineSet
EndChar
StartChar: L
Encoding: 76 76 18
Width: 590
Flags: W
Fore
109.785 143.574 m 1
 140.608 142.773 231.114 109.844 316.538 117.527 c 1
 328.915 84.5585 350.922 62.323 384.921 44.1469 c 0
 456.199 6.04056 483.59 -8.68005 560.671 21.3981 c 0
 572.907 26.1734 573.439 43.2368 561.521 48.8813 c 0
 495.707 80.0557 489.323 79.3386 453.086 112.635 c 0
 434.949 129.3 437.694 141.424 410.769 157.567 c 0
 331.473 205.112 246.054 180.896 170.413 197.018 c 0
 106.622 210.613 141.657 382.488 137.988 483.588 c 0
 132.34 639.312 208.861 784.827 133.3 785.62 c 0
 116.354 785.798 89.406 773.841 55.83 766.187 c 0
 49.6705 764.782 45.4392 760.526 44.2625 754.319 c 0
 5.27297 548.653 14.5074 342.061 58.8182 156.48 c 0
 62.7392 140.058 99.4284 138.951 109.785 143.574 c 1
EndSplineSet
EndChar
StartChar: M
Encoding: 77 77 5
Width: 927
Flags: W
Fore
387.062 472.509 m 4
 404.767 402.604 391.631 361.913 406.275 282.239 c 6
 408.227 272.489 l 5
 392.844 262.03 372.182 243.613 353.722 208.979 c 4
 330.538 165.479 309.555 134.725 308.929 85.2568 c 4
 308.493 50.9082 321.102 19.6855 327.073 4.42871 c 4
 329.353 -1.39453 334.285 -4.7998 340.536 -4.99316 c 4
 346.787 -5.18652 351.879 -2.07324 354.556 3.5791 c 4
 390.835 80.168 390.626 88.959 430.011 131.813 c 4
 442.634 145.549 452.494 148.903 464.665 159.648 c 5
 476.893 150.36 489.104 146.554 502.989 131.813 c 4
 540.992 91.4727 540.506 83.9795 578.444 3.5791 c 4
 581.113 -2.07715 586.213 -5.18652 592.464 -4.99316 c 4
 598.715 -4.7998 603.604 -1.37793 605.927 4.42871 c 4
 623.013 47.1426 624.01 70.5498 624.071 85.2568 c 4
 624.277 134.745 593.615 181.781 579.278 208.979 c 4
 562.363 241.064 542.494 262.865 514.455 278.686 c 5
 515.004 281.981 l 6
 526.725 355.144 512.904 390.562 528.643 463.146 c 4
 548.241 553.532 563.618 598.997 609.301 664.035 c 5
 657.681 608.511 668.257 546.756 687.062 472.509 c 4
 704.766 402.604 691.344 361.86 706.275 282.239 c 4
 714.572 237.998 722.209 216.167 744.774 181.027 c 4
 762.276 153.774 782.1 153.859 802.99 131.813 c 4
 841.109 91.583 840.506 83.9795 878.444 3.5791 c 4
 881.113 -2.07715 886.213 -5.18652 892.464 -4.99316 c 4
 898.715 -4.7998 903.604 -1.37793 905.927 4.42871 c 4
 923.013 47.1426 924.01 70.5498 924.071 85.2568 c 4
 924.277 134.745 893.604 181.775 879.278 208.979 c 4
 847.782 268.784 805.386 286.335 776.978 293.664 c 5
 777.169 299.799 777.257 305.227 777.26 311.748 c 4
 777.296 381.424 763.686 439.549 754.539 475.691 c 4
 721.312 606.979 705.581 694.342 616.606 784.606 c 4
 613.391 787.869 609.483 789.292 604.915 788.961 c 4
 600.346 788.629 596.712 786.638 593.974 782.965 c 4
 513.118 674.5 487.484 596.086 457.718 462.87 c 5
 454.539 475.691 l 6
 421.266 606.968 405.581 694.342 316.606 784.606 c 4
 313.391 787.869 309.483 789.292 304.915 788.961 c 4
 300.346 788.629 296.712 786.638 293.974 782.965 c 4
 212.791 674.062 187.271 595.455 157.357 461.254 c 4
 151.475 434.863 139.377 381.021 138.999 322.374 c 4
 138.916 309.542 139.543 299.342 140.527 288.877 c 5
 101.877 274.888 75.3633 249.516 53.7217 208.979 c 4
 30.5088 165.496 9.55469 134.725 8.92871 85.2568 c 4
 8.49316 50.9082 21.1016 19.6855 27.0732 4.42871 c 4
 29.3525 -1.39551 34.2842 -4.7998 40.5361 -4.99316 c 4
 46.7871 -5.18652 51.8789 -2.07324 54.5557 3.5791 c 4
 90.835 80.168 90.624 88.9609 130.01 131.813 c 4
 143.38 146.359 167.549 155.84 182.515 181.112 c 4
 203.663 216.824 208.449 241.278 215.011 282.027 c 4
 226.791 355.18 212.904 390.562 228.643 463.146 c 4
 248.241 553.532 263.618 598.997 309.301 664.035 c 5
 357.681 608.511 368.257 546.756 387.062 472.509 c 4
EndSplineSet
EndChar
StartChar: N
Encoding: 78 78 17
Width: 645
Flags: HW
Fore
430.01 121.813 m 0
 450.836 144.453 457.915 185.127 471.145 204.212 c 2
 512.656 266.042 l 2
 513.918 267.923 514.624 269.702 514.996 271.937 c 0
 529.379 358.323 521.398 428.97 539.643 512.746 c 0
 561.458 612.916 546.17 653.975 603.026 732.035 c 0
 607.903 738.73 605.937 750.872 603.429 760.261 c 0
 590.084 810.214 533.25 795.97 511.988 760.463 c 0
 467.354 685.922 487.399 668.804 459.357 540.254 c 0
 456.813 528.592 454.243 503.803 451.843 476.377 c 1
 420.352 601.754 403.145 686.813 316.607 774.607 c 0
 309.935 781.375 299.251 780.044 293.974 772.965 c 0
 212.791 664.062 187.271 585.455 157.357 451.254 c 0
 150.324 419.703 134.102 347.147 140.528 278.877 c 1
 101.877 264.888 75.3629 239.515 53.7221 198.978 c 0
 9.09178 115.379 -7.96807 83.9548 27.0728 -5.57086 c 0
 31.8603 -17.8019 48.9078 -18.345 54.5561 -6.42129 c 0
 90.835 70.1676 90.6236 78.961 130.01 121.813 c 0
 143.38 136.359 167.549 145.84 182.514 171.112 c 0
 237.794 264.457 209.503 364.869 228.643 453.146 c 0
 248.241 543.532 263.619 588.997 309.301 654.035 c 1
 357.68 598.51 368.257 536.756 387.061 462.508 c 0
 404.888 392.122 390.201 360.592 408.227 262.489 c 1
 392.844 252.03 372.181 233.613 353.722 198.978 c 0
 318.383 132.674 288.368 93.3072 327.073 -5.57086 c 0
 331.859 -17.8018 348.909 -18.3447 354.556 -6.42129 c 0
 390.835 70.1676 390.607 78.9767 430.01 121.813 c 0
EndSplineSet
KernsSLIF: 122 -76 0 0 121 -76 0 0 120 -61 0 0 119 -76 0 0 118 -93 0 0 117 -76 0 0 116 -76 0 0 115 -92 0 0 114 -92 0 0 113 -92 0 0 112 -80 0 0 111 -92 0 0 110 -153 0 0 109 -107 0 0 105 -138 0 0 103 -80 0 0 101 -153 0 0 106 -80 0 0 100 -91 0 0 99 -107 0 0 97 -106 0 0
EndChar
StartChar: O
Encoding: 79 79 4
Width: 743
Flags: HW
Fore
343.379 787.4 m 0
 212.65 783.98 120.673 711.65 72.1787 590.2 c 0
 10.5693 435.905 15.1904 310.637 94.7783 164.8 c 0
 157.108 50.5869 259.467 9.44727 389.578 8.59961 c 0
 516.721 7.77051 630.196 43.0938 677.778 161 c 0
 742.923 322.426 712.157 451.237 630.179 604.8 c 0
 567.733 721.773 475.932 790.868 343.379 787.4 c 0
456.291 647.492 m 1
 496.542 625.859 528.479 589.853 553.619 542.76 c 0
 611.004 435.266 632.539 345.098 586.938 232.1 c 0
 553.631 149.565 474.198 124.839 385.198 125.42 c 0
 383.614 125.43 382.037 125.449 380.466 125.476 c 1
 405.667 157.959 434.88 200.102 450.979 226 c 0
 470.555 257.492 473.029 280.971 474.979 318 c 0
 476.251 342.185 475.44 360.238 458.979 378 c 0
 442.036 396.279 414.07 380.165 398.979 400 c 0
 382.28 421.946 376.9 445.208 388.979 470 c 0
 397.29 487.062 420.004 486.487 436.979 478 c 0
 455.764 468.607 444.784 426.23 464.979 432 c 0
 487.353 438.393 482.213 466.956 478.979 490 c 0
 475.535 514.536 442.969 521.963 448.979 546 c 0
 460.247 591.07 471.514 623.797 456.291 647.492 c 1
345.811 127.64 m 1
 273.392 135.731 215.969 166.723 178.838 234.76 c 0
 123.127 336.846 119.893 424.533 163.019 532.54 c 0
 179.689 574.29 203.701 607.748 234.661 631.272 c 1
 196.478 583.723 274.782 537.989 296.979 478 c 0
 303.228 461.111 295.344 442.935 310.979 434 c 0
 322.63 427.342 327.69 461.257 338.979 454 c 0
 359.519 440.796 367.604 422.41 366.979 398 c 0
 366.606 383.496 343.467 388.978 336.979 376 c 0
 322.171 346.385 312.439 327.014 314.979 294 c 0
 317.414 262.333 345.471 251.566 348.979 220 c 0
 352.942 184.332 352.142 156.617 345.811 127.64 c 1
EndSplineSet
EndChar
StartChar: P
Encoding: 80 80 13
Width: 722
Flags: HW
Fore
262.11 347.63 m 1
 275.252 349.894 295.164 356.533 354.522 371.127 c 0
 383.295 378.202 393.501 381.052 420.354 387.032 c 0
 541.03 413.909 601.464 434.6 694.665 503.549 c 0
 698.348 506.273 700.329 509.921 700.661 514.49 c 0
 700.992 519.059 699.546 522.943 696.307 526.182 c 0
 620.017 602.471 539.55 616.969 432.691 644.014 c 0
 403.774 651.332 355.799 663.011 292.786 663.396 c 0
 287.515 663.429 283.177 663.325 279.128 663.204 c 1
 263.59 719.067 224.073 740.499 206.478 749.853 c 0
 165.739 771.511 142.455 787.552 100.268 788.186 c 0
 70.7175 788.629 44.067 777.807 30.729 772.602 c 0
 24.9024 770.329 21.5004 765.39 21.307 759.139 c 0
 21.1135 752.888 24.2262 747.796 29.8785 745.119 c 0
 91.2152 716.065 100.932 714.709 131.304 687.708 c 1
 131.109 529.485 l 1
 121.732 531.717 111.692 533.014 100.268 533.186 c 0
 70.7175 533.629 44.067 522.807 30.729 517.602 c 0
 24.9024 515.329 21.5004 510.39 21.307 504.139 c 0
 21.1135 497.888 24.2262 492.796 29.8785 490.119 c 0
 91.0052 461.164 100.851 459.705 130.99 432.982 c 1
 130.901 360.781 l 1
 102.858 335.397 92.636 333.478 29.8785 303.881 c 0
 24.2216 301.213 21.1135 296.112 21.307 289.861 c 0
 21.5004 283.61 24.9219 278.721 30.729 276.398 c 0
 67.4723 261.701 88.0433 260.873 100.268 260.814 c 0
 110.636 260.764 120.881 262.289 130.783 264.802 c 1
 130.475 15.3183 l 2
 130.464 6.63978 136.796 0.299799 145.475 0.2998 c 2
 199.875 0.2998 l 2
 208.624 0.299801 214.986 6.74343 214.874 15.4922 c 2
 211.203 301.711 l 1
 233.166 313.979 249.065 327.989 262.11 347.63 c 1
208.741 493.63 m 1
 207.171 616.072 l 1
 225.308 607.486 242.794 603.394 267.275 598.6 c 0
 331.264 586.069 365.404 597.983 428.878 582.296 c 0
 495.9 565.733 542.393 557.267 588.488 518.449 c 1
 534.633 480.95 494.043 468.311 420.986 452.018 c 0
 364.179 439.349 333.709 450.296 267.121 440.45 c 2
 266.012 440.265 l 1
 252.952 463.21 234.389 479.596 208.741 493.63 c 1
EndSplineSet
EndChar
StartChar: Q
Encoding: 81 81 19
Width: 743
Flags: HW
Fore
343.379 787.4 m 0
 212.65 783.98 120.673 711.65 72.1787 590.2 c 0
 10.5693 435.905 15.1904 310.637 94.7783 164.8 c 0
 157.108 50.5869 259.467 9.44727 389.578 8.59961 c 0
 420.7 8.39666 451.003 10.3599 479.721 15.1701 c 1
 524.734 6.57817 564.741 3.01285 604.11 8.08203 c 1
 613.77 -26.0107 634.441 -50.0371 669 -68.2002 c 0
 725.856 -98.0801 755.701 -120.9 832.201 -90.2998 c 1
 767.6 -59.7002 757.308 -58.5176 720 -24 c 0
 701.516 -6.89746 700.213 7.63672 680.44 18.9121 c 0
 651.453 35.4414 631.909 39.7422 598.96 45.0215 c 0
 591.692 46.1858 584.774 47.0466 578.124 47.684 c 1
 621.532 71.5254 656.342 107.882 677.778 161 c 0
 742.923 322.426 712.157 451.237 630.179 604.8 c 0
 567.733 721.773 475.932 790.868 343.379 787.4 c 0
456.291 647.492 m 1
 496.542 625.859 528.479 589.853 553.619 542.76 c 0
 611.004 435.266 632.539 345.098 586.938 232.1 c 0
 553.631 149.565 474.198 124.839 385.198 125.42 c 0
 383.614 125.43 382.037 125.449 380.466 125.476 c 1
 405.667 157.959 434.88 200.102 450.979 226 c 0
 470.555 257.492 473.029 280.971 474.979 318 c 0
 476.251 342.185 475.44 360.238 458.979 378 c 0
 442.036 396.279 414.07 380.165 398.979 400 c 0
 382.28 421.946 376.9 445.208 388.979 470 c 0
 397.29 487.062 420.004 486.487 436.979 478 c 0
 455.764 468.607 444.784 426.23 464.979 432 c 0
 487.353 438.393 482.213 466.956 478.979 490 c 0
 475.535 514.536 442.969 521.963 448.979 546 c 0
 460.247 591.07 471.514 623.797 456.291 647.492 c 1
345.811 127.64 m 1
 273.392 135.731 215.969 166.723 178.838 234.76 c 0
 123.127 336.846 119.893 424.533 163.019 532.54 c 0
 179.689 574.29 203.701 607.748 234.661 631.272 c 1
 196.478 583.723 274.782 537.989 296.979 478 c 0
 303.228 461.111 295.344 442.935 310.979 434 c 0
 322.63 427.342 327.69 461.257 338.979 454 c 0
 359.519 440.796 367.604 422.41 366.979 398 c 0
 366.606 383.496 343.467 388.978 336.979 376 c 0
 322.171 346.385 312.439 327.014 314.979 294 c 0
 317.414 262.333 345.471 251.566 348.979 220 c 0
 352.942 184.332 352.142 156.617 345.811 127.64 c 1
EndSplineSet
EndChar
StartChar: R
Encoding: 82 82 14
Width: 722
Flags: HW
DStem: 244.816 326.517 335.64 366.267 492.04 -0.0537434 601.927 17.0961
Fore
335.64 366.267 m 1
 507.216 410.429 568.215 410.003 694.665 503.549 c 0
 701.815 508.837 702.998 519.491 696.307 526.182 c 0
 620.017 602.471 539.55 616.969 432.691 644.014 c 0
 400.384 652.19 344.847 665.168 279.128 663.204 c 1
 263.59 719.067 224.073 740.499 206.478 749.853 c 0
 136.02 787.31 108.336 802.887 30.7289 772.602 c 0
 18.4913 767.828 17.962 750.763 29.8785 745.119 c 0
 89.1996 717.019 99.8522 715.456 131.304 687.691 c 1
 131.109 529.361 l 1
 89.0781 539.871 53.3476 526.429 30.729 517.602 c 0
 18.4912 512.828 17.962 495.763 29.8785 490.119 c 0
 90.9087 461.21 100.308 460.054 130.99 432.974 c 1
 130.901 360.93 l 1
 73.8297 310.77 20.5706 313.649 21.307 289.861 c 0
 22.0945 264.409 101.977 260.795 100.268 260.814 c 0
 111.532 260.688 121.195 262.155 130.782 264.62 c 1
 130.475 15.3183 l 2
 130.464 6.63978 136.796 0.2998 145.475 0.2998 c 2
 199.875 0.2998 l 2
 208.624 0.299801 214.986 6.74343 214.874 15.4922 c 2
 211.203 301.712 l 1
 224.988 309.412 235.595 317.346 244.816 326.517 c 1
 492.04 -0.0537434 l 2
 494.981 -3.93857 498.953 -5.94233 503.826 -5.99899 c 2
 589.826 -6.99899 l 2
 601.513 -7.13489 609.998 6.51413 601.927 17.0961 c 2
 335.64 366.267 l 1
588.54 518.56 m 1
 453.859 425.146 317.225 451.327 265.835 440.236 c 1
 252.512 463.221 234.731 479.606 208.741 493.647 c 1
 207.164 616.572 l 1
 276.304 583.44 367.713 597.783 428.878 582.296 c 0
 488.596 567.177 541.88 557.928 588.54 518.56 c 1
EndSplineSet
EndChar
StartChar: S
Encoding: 83 83 23
Width: 737
Flags: W
Fore
282.427 417.125 m 5
 287.048 417.278 291.826 417.404 297.88 417.369 c 4
 363.055 416.992 413.121 404.777 442.592 397.318 c 4
 553.119 369.343 636.361 354.371 715.266 275.466 c 4
 718.505 272.227 719.951 268.343 719.62 263.774 c 4
 719.288 259.205 717.306 255.558 713.624 252.833 c 4
 617.216 181.493 554.706 159.983 429.834 132.298 c 4
 405.396 126.879 356.27 116.015 307.227 116.099 c 4
 296.861 116.117 288.2 116.481 278.893 117.294 c 5
 271.209 96.6517 254.317 65.5188 208.278 41.262 c 4
 184.168 28.5592 142.45 1.43511 98.5656 1.63666 c 4
 85.9462 1.69462 64.7066 2.55737 26.77 17.732 c 4
 20.963 20.0548 17.5415 24.9437 17.348 31.1951 c 4
 17.1545 37.4464 20.2625 42.5471 25.9192 45.2151 c 4
 96.3834 78.4505 103.035 77.9312 138.313 111.31 c 4
 157.122 129.107 159.092 144.888 182.027 157.757 c 4
 214.176 175.797 232.432 180.612 271.439 186.567 c 4
 340.34 197.085 371.894 185.426 430.719 198.543 c 4
 506.699 215.486 548.796 228.615 604.903 267.8 c 5
 556.965 308.444 508.641 317.207 438.905 334.45 c 4
 372.676 350.825 337.828 338.362 271.567 351.335 c 4
 234.419 358.608 212.86 364.319 181.863 385.473 c 4
 153.513 404.82 157.98 418.752 138.313 436.89 c 4
 101.841 470.527 94.7895 474.69 25.5621 509.76 c 4
 20.6996 512.223 17.8633 516.424 17.396 521.855 c 4
 16.9287 527.286 18.9943 531.924 23.3759 535.167 c 4
 119.782 606.509 182.294 628.017 307.166 655.702 c 4
 331.604 661.121 380.73 671.985 429.773 671.901 c 4
 440.139 671.883 448.8 671.519 458.107 670.706 c 5
 465.791 691.348 482.683 722.481 528.722 746.738 c 4
 552.832 759.441 594.55 786.565 638.434 786.363 c 4
 651.054 786.305 672.293 785.443 710.23 770.268 c 4
 716.037 767.945 719.458 763.056 719.652 756.805 c 4
 719.845 750.554 716.737 745.453 711.081 742.785 c 4
 640.617 709.549 633.965 710.069 598.687 676.69 c 4
 579.878 658.893 577.908 643.112 554.973 630.243 c 4
 522.824 612.203 504.568 607.388 465.561 601.433 c 4
 396.66 590.915 365.121 602.509 306.281 589.457 c 4
 266.689 580.674 215.506 577.061 136.857 523.457 c 5
 240.361 468.04 271.944 441.119 282.427 417.125 c 5
EndSplineSet
EndChar
StartChar: T
Encoding: 84 84 25
Width: 633
Flags: HW
Fore
423 477 m 6
 406.327 475.879 l 5
 435.475 331.471 417.886 212.774 378 49 c 4
 365.79 -1.13379 286.003 -9.05566 270 40 c 4
 215.625 206.686 192.448 326.11 217.292 481.864 c 5
 151.67 486.44 86.1653 535.533 67 572 c 4
 31.8467 638.889 5 674 41 764 c 5
 77 688 78.3906 675.892 119 632 c 4
 139.12 610.254 164.463 602.881 187.484 593.458 c 5
 255 621 363 615 446.352 593.799 c 5
 469.149 603.062 494.123 610.517 514 632 c 4
 554.609 675.892 556 688 592 764 c 5
 628 674 601.153 638.889 566 572 c 4
 542.094 526.513 488.049 492.861 423 477 c 6
EndSplineSet
EndChar
StartChar: U
Encoding: 85 85 3
Width: 633
Flags: W
Fore
165.857 326.746 m 0
 201.494 167.646 166.692 -9.1976 316.188 -11 c 0
 465.245 -12.7971 438.516 194.137 467.143 326.746 c 0
 481.021 391.036 498.744 420.527 523.759 485.277 c 0
 540.806 529.404 540.247 529.664 558.778 565.022 c 0
 590.284 625.137 613.542 710.974 614.302 749.194 c 0
 614.379 753.04 614.128 760.603 611.954 767.567 c 0
 606.241 785.87 593.889 786.042 588.084 786.676 c 0
 581.265 787.42 575.378 783.903 572.841 782.615 c 0
 568.448 780.387 566.613 779.111 562.419 775.939 c 0
 488.777 720.241 481.8 658.263 438.702 574.367 c 0
 419.974 537.911 414.617 513.74 405.703 476.055 c 0
 390.269 410.802 392.333 385.604 375.857 310.854 c 0
 353.776 210.67 391.944 104.267 316.5 102.801 c 0
 244.154 101.394 277.785 213.243 257.143 310.854 c 0
 242.61 379.576 243.278 407.685 227.297 476.055 c 0
 217.013 520.05 213.1 537.886 194.298 574.367 c 0
 151.746 656.932 147.023 716.365 70.5805 775.939 c 0
 68.3913 777.645 64.552 780.386 60.1595 782.615 c 0
 51.8706 786.821 47.5611 786.591 44.9162 786.676 c 0
 35.0748 786.992 25.2247 780.953 21.0459 767.567 c 0
 18.8382 760.494 18.7431 755.196 18.6977 749.194 c 0
 18.4277 713.511 41.5918 628.019 74.222 565.022 c 0
 92.4534 529.824 94.0582 524.874 109.241 485.277 c 0
 134.66 418.986 150.558 395.048 165.857 326.746 c 0
EndSplineSet
EndChar
StartChar: V
Encoding: 86 86 1
Width: 633
Flags: W
Fore
444.775 592.973 m 0
 462.193 618.79 489.55 627.565 502.99 642.187 c 0
 542.377 685.039 542.165 693.832 578.444 770.421 c 0
 581.121 776.074 586.213 779.186 592.464 778.993 c 0
 598.715 778.799 603.648 775.395 605.927 769.571 c 0
 611.899 754.315 624.506 723.092 624.071 688.743 c 0
 623.445 639.275 602.398 608.554 579.278 565.022 c 0
 568.354 544.453 543.142 497.927 476.968 480.326 c 1
 477.154 474.854 477.296 469.291 477.26 462.249 c 0
 476.885 388.421 462.866 331.197 454.539 298.308 c 0
 422.836 173.102 405.976 78.7628 316.607 -10.6066 c 0
 313.368 -13.8456 309.484 -15.2921 304.915 -14.9607 c 0
 300.346 -14.6293 296.7 -12.6461 293.974 -8.96498 c 0
 213.069 100.277 188.518 172.241 157.357 312.746 c 0
 151.313 340.001 138.905 396.074 138.999 451.626 c 0
 139.02 464.248 139.472 474.316 140.478 485.175 c 1
 117.52 493.421 81.6736 511.956 53.722 565.022 c 0
 39.3941 592.223 8.72211 639.255 8.92845 688.743 c 0
 8.98978 703.45 9.98725 726.857 27.0729 769.571 c 0
 29.3957 775.378 34.2847 778.799 40.5361 778.993 c 0
 46.7875 779.186 51.8871 776.078 54.5561 770.421 c 0
 92.4943 690.021 91.9637 682.487 130.01 642.187 c 0
 150.696 620.276 167.968 618.764 182.514 592.888 c 0
 202.897 556.632 208.302 535.667 215.011 491.973 c 0
 226.695 415.88 213.977 376.65 228.643 310.854 c 0
 248.178 223.212 263.297 175.106 309.191 110.011 c 1
 357.105 165.324 367.072 220.935 387.061 301.492 c 0
 405.598 376.191 391.539 416.416 406.275 491.76 c 0
 414.473 533.671 421.096 557.876 444.775 592.973 c 0
EndSplineSet
EndChar
StartChar: W
Encoding: 87 87 2
Width: 927
Flags: W
Fore
408.249 501.616 m 1
 406.275 491.76 l 2
 391.636 416.398 405.598 376.191 387.061 301.492 c 0
 367.072 220.935 357.105 165.324 309.191 110.011 c 1
 263.297 175.106 248.178 223.212 228.643 310.854 c 0
 213.977 376.65 226.695 415.88 215.011 491.973 c 0
 208.302 535.667 202.897 556.631 182.515 592.888 c 0
 167.968 618.764 150.696 620.276 130.01 642.187 c 0
 91.9637 682.487 92.4943 690.021 54.5561 770.421 c 0
 51.8871 776.078 46.7875 779.186 40.5361 778.993 c 0
 34.2847 778.799 29.3957 775.378 27.0729 769.571 c 0
 9.98725 726.857 8.98978 703.45 8.92845 688.743 c 0
 8.72211 639.255 39.3941 592.223 53.722 565.022 c 0
 81.6736 511.956 117.52 493.421 140.478 485.175 c 1
 139.472 474.316 139.02 464.248 138.999 451.626 c 0
 138.905 396.074 151.313 340.001 157.357 312.746 c 0
 188.518 172.241 213.069 100.277 293.974 -8.96498 c 0
 296.7 -12.6461 300.346 -14.6293 304.915 -14.9607 c 0
 309.484 -15.2921 313.368 -13.8456 316.607 -10.6066 c 0
 405.976 78.7628 422.844 173.1 454.539 298.309 c 2
 457.718 311.123 l 1
 488.731 171.691 513.381 99.8554 593.974 -8.96498 c 0
 596.7 -12.6461 600.346 -14.6293 604.915 -14.9607 c 0
 609.484 -15.2921 613.368 -13.8457 616.607 -10.6066 c 0
 705.976 78.7628 722.836 173.102 754.539 298.308 c 0
 762.866 331.197 776.885 388.423 777.26 462.252 c 0
 777.296 469.293 777.153 474.855 776.968 480.325 c 1
 843.143 497.927 868.354 544.452 879.278 565.022 c 0
 902.398 608.554 923.445 639.275 924.071 688.743 c 0
 924.506 723.092 911.899 754.315 905.927 769.571 c 0
 903.648 775.395 898.715 778.799 892.464 778.993 c 0
 886.213 779.186 881.121 776.074 878.444 770.421 c 0
 842.165 693.832 842.377 685.039 802.99 642.187 c 0
 789.55 627.564 762.193 618.79 744.775 592.973 c 0
 721.096 557.876 714.473 533.671 706.275 491.76 c 0
 691.539 416.416 705.598 376.191 687.061 301.492 c 0
 667.071 220.935 657.105 165.324 609.191 110.011 c 1
 563.297 175.106 548.178 223.212 528.643 310.854 c 0
 513.977 376.65 526.403 415.882 515.004 492.018 c 2
 514.483 495.146 l 1
 543.146 510.974 562.653 533.808 579.278 565.022 c 0
 602.45 608.527 623.445 639.275 624.071 688.743 c 0
 624.506 723.092 611.899 754.315 605.927 769.571 c 0
 603.648 775.395 598.715 778.799 592.464 778.993 c 0
 586.213 779.186 581.121 776.074 578.444 770.421 c 0
 542.165 693.832 542.374 685.041 502.99 642.187 c 0
 490.405 628.494 479.422 625.708 464.895 614.339 c 1
 454.738 622.989 443.95 627.356 430.01 642.187 c 0
 392.054 682.572 392.494 690.021 354.556 770.421 c 0
 351.887 776.078 346.788 779.186 340.536 778.993 c 0
 334.285 778.799 329.396 775.378 327.073 769.571 c 0
 309.987 726.857 308.99 703.45 308.929 688.743 c 0
 308.722 639.255 339.382 592.217 353.722 565.022 c 0
 367.997 537.951 384.346 517.841 408.249 501.616 c 1
EndSplineSet
EndChar
StartChar: X
Encoding: 88 88 16
Width: 633
Flags: W
Fore
447.177 669.701 m 0
 467.209 687.339 490.741 689.772 505.839 699.585 c 0
 543.838 724.284 545.917 725.9 579.66 774.728 c 0
 582.628 779.023 586.905 781.243 592.125 781.2 c 0
 597.346 781.156 601.661 778.914 604.481 774.521 c 0
 621.804 747.535 624.525 733.069 624.072 721.046 c 0
 622.765 686.392 602.951 670.021 577.284 641.117 c 0
 563.276 625.342 538.106 600.242 477.209 590.159 c 1
 477.243 588.642 477.285 587.003 477.261 585.149 c 0
 476.773 548.703 468.835 518.766 453.814 483.154 c 0
 426.774 419.049 419.409 403.039 409.363 386.846 c 1
 429.669 352.749 443.558 315.456 453.814 290.846 c 0
 474.657 240.828 477.287 209.25 477.261 188.851 c 0
 477.258 186.95 477.211 185.297 477.18 183.754 c 1
 516.474 177.158 550.086 163.812 577.284 132.883 c 0
 598.287 108.999 624.413 84.9239 624.072 52.954 c 0
 623.961 42.6075 622.906 27.117 604.481 -0.520692 c 0
 601.585 -4.86445 597.346 -7.15613 592.125 -7.1997 c 0
 586.905 -7.24327 582.631 -5.0207 579.66 -0.727884 c 0
 546.157 47.6835 544.445 50.0947 505.839 74.4146 c 0
 483.956 88.1999 465.413 87.2666 447.177 104.299 c 0
 435.53 115.176 419.251 127.701 406.729 168.24 c 0
 391.151 218.675 404.362 242.386 387.786 281.674 c 0
 375.859 309.94 369.966 323.794 365.375 333.078 c 1
 345.072 314.306 326.438 302.57 313.717 294.937 c 0
 308.068 291.547 301.718 291.971 296.595 296.115 c 0
 288.04 303.033 271.32 316.62 253.703 333.811 c 1
 246.759 322.131 238.576 306.283 228.066 276.43 c 0
 213.485 235.014 226.322 211.779 214.692 168.571 c 0
 207.681 142.521 202.309 126.587 180.357 104.591 c 0
 162.914 87.1136 142.49 84.4396 127.162 74.4147 c 0
 89.1408 49.5485 90.8335 46.7154 52.7733 -1.49479 c 0
 49.647 -5.45478 45.4393 -7.39058 40.3981 -7.18811 c 0
 35.3568 -6.98565 31.2444 -4.76672 28.5192 -0.520698 c 0
 11.1984 26.4667 8.47502 40.9308 8.92845 52.954 c 0
 10.2354 87.6079 29.9726 104.048 55.7164 132.883 c 0
 79.8644 159.932 107.239 173.28 139.71 180.718 c 1
 139.254 185.015 138.917 189.608 138.999 195.224 c 0
 139.236 211.524 139.594 232.443 157.934 281.809 c 0
 179.322 339.383 194.987 367.42 208.421 387.016 c 1
 195.176 406.178 180.224 431.749 157.934 492.191 c 0
 151.285 510.22 138.896 544.142 138.999 578.776 c 0
 139.015 584.185 139.288 588.803 139.735 593.488 c 1
 91.1144 605.326 68.1635 626.987 55.7164 641.117 c 0
 34.6922 664.983 8.58662 689.076 8.92845 721.046 c 0
 9.03908 731.392 10.0941 746.883 28.5192 774.521 c 0
 31.3179 778.719 35.3568 780.986 40.398 781.188 c 0
 45.4393 781.391 49.6566 779.462 52.7733 775.495 c 0
 88.8705 729.543 89.3549 723.485 127.162 699.585 c 0
 149.124 685.702 165.107 685.693 180.357 669.409 c 0
 191.703 657.294 204.406 646.224 214.692 605.429 c 0
 227.07 556.339 214.03 535.381 228.066 497.57 c 0
 233.352 483.33 241.205 461.527 253.769 440.207 c 1
 271.811 457.849 287.509 470.573 296.595 477.885 c 0
 301.728 482.017 308.086 482.483 313.717 479.063 c 0
 326.875 471.07 345.939 458.95 365.335 441.067 c 1
 374.632 459.137 381.664 477.041 387.786 492.326 c 0
 405.04 535.411 391.921 560.486 406.729 605.76 c 0
 415.576 632.808 422.833 648.268 447.177 669.701 c 0
298.395 426.045 m 0
 285.056 415.308 276.122 407.308 266.295 397.653 c 0
 260.071 391.539 260.098 382.489 266.295 376.347 c 0
 279.209 363.546 291.427 353.596 298.395 347.955 c 0
 303.516 343.81 309.867 343.388 315.517 346.778 c 0
 332.241 356.812 343.314 365.416 354.754 376.15 c 0
 361.285 382.278 361.232 391.666 354.754 397.85 c 0
 338.915 412.971 323.335 422.465 315.517 427.222 c 0
 309.888 430.647 303.527 430.176 298.395 426.045 c 0
EndSplineSet
EndChar
StartChar: Y
Encoding: 89 89 15
Width: 633
Flags: HW
Fore
447.177 672.701 m 4
 467.209 690.339 490.741 692.772 505.839 702.585 c 4
 543.838 727.284 545.917 728.9 579.66 777.728 c 4
 585.68 786.437 598.72 786.494 604.48 777.521 c 4
 645.066 714.299 617.806 689.751 577.283 644.116 c 4
 563.276 628.343 538.106 603.241 477.209 593.158 c 5
 478.061 555.212 468.75 521.562 453.814 486.154 c 4
 425.404 418.805 409.138 372.648 357.077 328.64 c 5
 358 13.0439 l 6
 358.025 4.35547 351.688 -2 343 -2 c 6
 279 -2 l 6
 270.329 -2 264 4.3291 264 13 c 6
 264 327.093 l 5
 208.969 378.188 186.588 417.554 157.934 495.19 c 4
 148.849 519.805 135.904 556.346 139.735 596.488 c 5
 91.1143 608.326 68.1631 629.986 55.7168 644.116 c 4
 18.3747 686.507 -13.3962 714.649 28.5195 777.521 c 4
 34.1215 785.923 46.3392 786.685 52.7734 778.495 c 4
 88.8701 732.543 89.3545 726.485 127.161 702.585 c 4
 149.124 688.702 165.106 688.693 180.357 672.408 c 4
 191.703 660.294 204.406 649.224 214.692 608.429 c 4
 227.07 559.339 214.016 538.376 228.066 500.57 c 4
 239.811 468.969 251.068 430.296 308.951 381.149 c 5
 350.273 408.337 360.285 428.435 387.785 495.326 c 4
 409.553 548.274 381.959 615.282 447.177 672.701 c 4
EndSplineSet
EndChar
StartChar: Z
Encoding: 90 90 24
Width: 737
Flags: W
Fore
124.078 800.901 m 0
 111.856 800.934 89.0178 801.068 66.5652 798.364 c 0
 45.4829 795.824 44.8249 774.658 44.637 769.378 c 0
 44.217 757.574 49.3009 745.341 57.0744 737.883 c 0
 63.2299 731.977 67.6464 731.199 71.0148 730.507 c 0
 116.762 721.114 160.519 721.674 181.18 721.649 c 0
 215.131 721.609 237.196 723.056 271.714 723.123 c 0
 307.117 723.192 320.675 720.666 330.719 718.457 c 0
 411.874 700.607 519.515 698.429 600.54 650.979 c 1
 553.384 619.151 489.605 559.295 456.056 532.367 c 0
 385.669 475.872 354.552 443.595 289.512 398.078 c 0
 174.669 317.706 69.8743 217.509 21.7341 169.466 c 0
 18.4919 166.23 17.0487 162.343 17.3801 157.774 c 0
 17.7115 153.205 19.7033 149.571 23.3759 146.833 c 0
 119.447 75.2171 188.779 52.6818 307.166 26.2976 c 0
 360.881 14.3265 480.302 4.7731 584.214 4.56678 c 0
 606.705 4.52213 642.539 4.79084 690.053 8.03697 c 0
 709.244 9.34817 710.192 24.5747 710.876 29.8641 c 0
 711.506 34.7418 709.453 39.0888 708.68 41.1943 c 0
 701.855 59.7791 684.93 72.7534 677.025 76.7667 c 0
 672.677 78.9744 673.385 79.333 665.301 80.6064 c 0
 603.634 90.3197 540.23 89.7083 508.959 89.7272 c 0
 457.157 89.7584 421.231 88.0839 375.277 88.0262 c 0
 336.144 87.9772 320.092 89.521 306.281 92.5432 c 0
 227.782 109.721 187.921 122.985 131.691 162.169 c 1
 164.93 193.369 205.041 222.45 302.259 282.21 c 0
 374.049 326.339 407.732 374.039 472.721 434.014 c 0
 507.582 466.186 525.023 482.423 557.81 516.689 c 0
 576.422 536.14 578.7 547.119 598.687 565.89 c 0
 635.44 600.407 644.448 604.809 711.438 638.76 c 0
 716.3 641.224 719.137 645.424 719.604 650.855 c 0
 720.071 656.286 717.994 660.909 713.624 664.167 c 0
 641.315 718.069 603.771 724.336 329.834 784.702 c 0
 288.67 793.773 201.255 800.692 124.078 800.901 c 0
EndSplineSet
EndChar
StartChar: bracketleft
Encoding: 91 91 25
Width: 325
Flags: W
Fore
134.93 87.7461 m 1
 135.986 438.755 136.026 358.001 134.93 699.375 c 1
 155.045 717.854 182.163 728.803 212.087 728.803 c 0
 231.407 728.332 249.32 723.719 264.913 715.855 c 1
 244.392 743.252 211.609 761.104 172.587 762.053 c 0
 151.854 762.053 132.467 756.797 115.823 747.421 c 1
 84.7627 748 l 1
 84.7627 721.313 l 1
 69.8926 703.085 60.7803 679.775 60.0869 653.553 c 0
 60.0869 627.548 69.2119 603.988 84.7627 585.517 c 1
 84.7627 201.604 l 1
 69.2119 183.133 60.0869 159.573 60.0869 133.568 c 0
 60.7803 107.346 69.8926 84.0361 84.7627 65.8076 c 1
 84.7627 39.1211 l 1
 115.823 39.7002 l 1
 132.467 30.3242 151.854 25.0684 172.587 25.0684 c 0
 211.609 26.0176 244.392 43.8691 264.913 71.2656 c 1
 249.32 63.4023 231.407 58.7891 212.087 58.3184 c 0
 182.163 58.3184 155.045 69.2666 134.93 87.7461 c 1
EndSplineSet
EndChar
StartChar: asciicircum
Encoding: 94 94 7
Width: 244
Flags: W
Fore
206.722 560.846 m 16
 208.534 577.903 204.953 593.911 194.707 614.088 c 0
 176.948 649.058 167.826 674.568 119.667 698.648 c 1
 73.7471 667.848 60.8887 646.758 44.626 610.168 c 0
 36.293 591.418 35.0029 577.633 39.0264 562.008 c 8
 40.0928 557.867 58.1064 557.549 60.4189 561.561 c 24
 71.459 580.712 59.5215 593.113 68.1465 612.52 c 0
 79.5303 638.133 88.5312 652.896 120.675 674.456 c 1
 154.387 657.6 160.771 639.742 173.202 615.264 c 0
 183.484 595.018 171.72 581.802 184.067 561.756 c 24
 186.676 557.521 206.251 556.421 206.722 560.846 c 16
EndSplineSet
EndChar
StartChar: underscore
Encoding: 95 95 8
Width: 457
Flags: W
Fore
23.7666 31.0342 m 5
 23.7334 81.0342 l 5
 42.1328 81.2344 434.151 81.9678 440.233 82.0342 c 5
 440.267 31.0342 l 5
 23.7666 31.0342 l 5
EndSplineSet
EndChar
StartChar: grave
Encoding: 96 96 9
Width: 273
Flags: W
Fore
90 609.827 m 1
 132 536.228 l 1
 183 536.241 l 1
 182.934 538.674 140.2 602.481 140 609.841 c 1
 90 609.827 l 1
EndSplineSet
EndChar
StartChar: a
Encoding: 97 97 10
Width: 555
Flags: HW
HStem: 3 79<258.446 324.946> 425.651 79<236.161 302.661>
VStem: 475 51<12 514.686>
Fore
125.933 395.229 m 1
 158.032 415.31 195.609 425.652 236.161 425.651 c 0
 361.228 422.347 453.161 323.282 453.161 200.651 c 0
 452.391 169.022 446.068 139.278 435.174 112.422 c 1
 403.075 92.3416 365.498 81.9992 324.946 82 c 0
 199.88 85.3047 107.946 184.369 107.946 307 c 0
 108.717 338.629 115.039 368.374 125.933 395.229 c 1
475 416.838 m 1
 436.206 468.819 374.972 502.741 302.661 504.651 c 0
 225.732 504.651 159.509 464.727 121.077 402.347 c 1
 73.5574 361.049 43.1948 299.807 41.4463 228 c 1
 41.4463 105.369 133.38 6.30469 258.446 3 c 1
 335.375 3 401.598 42.9248 440.03 105.304 c 1
 453.054 116.623 464.789 129.44 475 143.562 c 1
 475 11.9321 l 1
 526 12.0684 l 1
 525.934 36.3955 525.2 441.468 525 515.068 c 1
 475 514.932 l 1
 475 416.838 l 1
EndSplineSet
EndChar
StartChar: c
Encoding: 99 99 8
Width: 467
Flags: W
HStem: 3 79<258.446 324.946>
Fore
133.841 412.651 m 4
 79.0479 371.608 43.3467 306.044 41.4463 228 c 5
 41.4463 105.369 133.38 6.30469 258.446 3 c 5
 342.172 3 413.216 50.291 449.554 122.352 c 4
 414.537 95.7598 371.721 82 324.946 82 c 4
 199.88 85.3047 107.946 184.369 107.946 307 c 4
 108.888 345.64 118.114 381.466 133.841 412.651 c 4
EndSplineSet
EndChar
StartChar: d
Encoding: 100 100 9
Width: 555
Flags: HW
HStem: 3 79<258.446 324.946> 425.651 79<236.161 302.661>
VStem: 475 51<12 747.572>
Fore
475 416.838 m 1
 436.206 468.819 374.972 502.741 302.661 504.651 c 0
 225.732 504.651 159.509 464.727 121.077 402.347 c 1
 73.5574 361.049 43.1948 299.807 41.4463 228 c 1
 41.4463 105.369 133.38 6.30469 258.446 3 c 1
 335.375 3 401.598 42.9248 440.03 105.304 c 1
 453.054 116.623 464.789 129.44 475 143.562 c 1
 475 11.9321 l 1
 526 12.0684 l 1
 525.934 36.3955 525.2 674.468 525 748.068 c 1
 475 747.932 l 1
 475 416.838 l 1
125.933 395.229 m 1
 158.032 415.31 195.609 425.652 236.161 425.651 c 0
 361.228 422.347 453.161 323.282 453.161 200.651 c 0
 452.391 169.022 446.068 139.278 435.174 112.422 c 1
 403.075 92.3416 365.498 81.9992 324.946 82 c 0
 199.88 85.3047 107.946 184.369 107.946 307 c 0
 108.717 338.629 115.039 368.374 125.933 395.229 c 1
EndSplineSet
EndChar
StartChar: e
Encoding: 101 101 10
Width: 555
Flags: HW
HStem: 3 79<239.06 305.56> 256 51<68.6138 360.441>
Fore
482.939 361.484 m 1
 451.754 377.211 415.928 386.438 377.287 387.379 c 0
 306.253 387.379 243.126 356.531 201.938 306.267 c 1
 287.179 306.558 392.939 306.952 410.477 307 c 1
 410.613 256 l 1
 171.13 256 l 1
 165.32 242.764 160.746 228.775 157.55 214.148 c 1
 190.682 137.81 264.301 84.4111 355.561 82 c 0
 402.334 82 445.15 95.7598 480.168 122.352 c 1
 443.83 50.291 372.785 3 289.061 3 c 1
 163.994 6.30469 72.0605 105.369 72.0605 228 c 0
 72.4072 242.242 73.8799 256.069 76.3887 269.407 c 0
 84.0645 315.525 105.227 355.854 135.639 386.946 c 0
 144.502 396.33 154.14 404.925 164.455 412.651 c 1
 163.689 411.12 l 2
 201.178 438.253 247.729 453.879 298.287 453.879 c 0
 376.332 451.979 441.896 416.277 482.939 361.484 c 1
EndSplineSet
EndChar
StartChar: f
Encoding: 102 102 11
Width: 473
Flags: W
HStem: 320 50<46 110.96>
Fore
446 692 m 5
 414.814 707.727 378.988 716.953 340.348 717.895 c 4
 267.055 717.895 202.18 685.055 161.136 631.929 c 5
 161.241 570.325 161.377 471.084 161.51 369.97 c 5
 243.101 370.226 338.389 370.496 341.967 371 c 5
 342 320 l 5
 161.575 320 l 5
 161.782 160.774 161.968 9.91423 162 4.06836 c 5
 111 4 l 5
 111 320 l 5
 46.5 320 l 5
 46.4668 370 l 5
 51.6711 370.057 77.0862 370.156 111 370.271 c 5
 111 405.901 l 5
 64.7205 445.3 36.3477 502.544 36.3477 567.395 c 5
 39.6523 692.461 138.717 784.395 261.348 784.395 c 5
 339.393 782.494 404.957 746.793 446 692 c 5
EndSplineSet
EndChar
StartChar: g
Encoding: 103 103 12
Width: 535
Flags: HW
HStem: 299 60<383 385> 335 60<269 276> 476 47<263 477.914>
Fore
274.247 189.313 m 1
 330.36 201.289 318.52 200.463 350.992 213.991 c 1
 352.434 210.53 l 1
 330.842 194.383 314.939 196.755 276.041 186.207 c 1
 277.213 183.879 278.136 181.336 278.763 178.638 c 1
 326.262 175.83 324.487 179.058 353.492 182.937 c 1
 353.99 179.22 l 1
 339.753 177.315 330.266 171.219 315.16 174.033 c 0
 304.218 176.072 292.532 175.692 279.342 175.542 c 1
 279.586 173.827 279.713 172.062 279.713 170.261 c 0
 279.713 164.376 278.355 158.886 276.01 154.252 c 1
 334.029 135.695 317.882 141.644 356.855 136.595 c 1
 356.375 132.876 l 1
 342.13 134.722 331.389 131.288 317.525 137.916 c 0
 305.142 143.837 290.715 146.497 274.151 151.063 c 1
 271.249 146.713 267.381 143.405 262.96 141.655 c 1
 314.833 108.345 299.813 118.722 336.715 103.524 c 1
 335.287 100.057 l 1
 322.006 105.526 310.742 104.99 299.066 114.98 c 0
 288.049 124.409 273.887 130.911 258.048 140.401 c 0
 257.28 140.309 256.501 140.261 255.713 140.261 c 0
 255.339 140.261 254.966 140.271 254.596 140.302 c 0
 252.748 105.761 256.883 96.093 259.527 76.3184 c 1
 255.811 75.8203 l 1
 253.906 90.0576 247.81 99.5449 250.624 114.65 c 0
 252.138 122.777 252.318 131.313 252.25 140.572 c 1
 247.459 141.438 243.125 144.075 239.688 147.933 c 1
 226.668 108.926 229.132 109.124 225.431 78.6693 c 1
 236.889 76.2606 248.923 74.8313 261.5 74.5 c 0
 351.328 74.5 442.232 145.096 445.2 267 c 1
 445.2 362.873 375.797 456.48 261.5 459.5 c 1
 171.672 459.5 80.7676 388.904 77.7998 267 c 1
 77.7998 182.821 131.305 100.388 221.725 79.4884 c 1
 222.968 92.6129 220.242 102.93 226.507 116.036 c 0
 231.388 126.244 234.053 137.842 237.396 150.882 c 1
 233.851 156.11 231.713 162.875 231.713 170.261 c 0
 231.713 176.88 233.431 183.001 236.339 187.965 c 1
 228.875 192.228 221.754 197.92 215.832 206.552 c 0
 207.008 219.419 193.786 229.959 179.848 244.811 c 1
 182.58 247.38 l 1
 208.202 220.079 210.004 213.657 239.757 192.665 c 1
 243.999 197.389 249.589 200.26 255.713 200.261 c 0
 256.645 200.261 257.564 200.194 258.468 200.065 c 0
 312.617 250.749 287.04 223.619 319.62 266.265 c 1
 322.6 263.988 l 1
 317.816 252.832 311.482 241.555 298.811 232.863 c 0
 286.584 224.477 276.458 212.122 262.737 198.954 c 1
 263.892 198.512 265.01 197.964 266.083 197.32 c 1
 326.487 229.098 300.885 214.18 339.585 244.005 c 1
 341.873 241.034 l 1
 334.365 231.497 325.328 222.243 310.839 217.128 c 0
 297.47 212.408 285.018 203.685 269.387 194.914 c 1
 271.206 193.334 272.842 191.448 274.247 189.313 c 1
359.5 329 m 0
 359.5 345.56 370.252 359 383.5 359 c 0
 396.748 359 407.5 345.56 407.5 329 c 0
 407.5 312.439 396.748 299 383.5 299 c 0
 370.252 299 359.5 312.439 359.5 329 c 0
187.556 365 m 0
 183.233 386.613 201.867 404.93 219.5 404.93 c 0
 232.262 404.93 243.284 395.559 248.4 382.025 c 1
 252.931 389.802 261.358 395.001 269.5 395 c 0
 282.748 395 293.5 381.56 293.5 365 c 0
 293.5 348.439 282.748 335 269.5 335 c 0
 260.782 335 254.011 343.661 249.829 352.435 c 1
 245.613 336.544 233.622 325.07 219.5 325.07 c 0
 201.866 325.07 190.218 351.69 187.556 365 c 0
-5.10352 -121.993 m 1
 24.2803 -166.369 60.55 -158.453 135.214 -158.276 c 0
 271.058 -157.959 351.912 -165.293 472.059 -123.218 c 0
 488.969 -117.296 499.42 -127.852 499.076 -114.573 c 0
 498.913 -108.302 497.449 -106.346 494.702 -104.117 c 0
 421.494 -44.7248 398.029 -2.13602 266.599 -15.6738 c 0
 231.725 -19.2638 189.961 -46.5341 154.482 -18.0615 c 0
 129.538 1.9562 129.405 18.2965 130.753 45.6903 c 1
 57.3944 91.4082 10.8651 173.241 10.8652 267 c 1
 14.4619 414.748 122.946 526.875 261.5 526.875 c 0
 274.762 526.525 287.701 525.242 300.265 523.092 c 1
 362.31 523.238 468.305 523.474 477.932 523.5 c 1
 478 476 l 1
 410.206 476 l 1
 473.116 428.718 512.135 352.86 512.135 267 c 1
 509.255 148.686 439.114 53.2128 340.133 19.8699 c 1
 427.36 12.5644 455.567 -27.4433 516.572 -76.8701 c 0
 528.945 -86.8936 533.475 -97.5195 534.016 -114.573 c 0
 534.854 -141.023 516.291 -142.361 483.313 -156.295 c 1
 354.869 -200.003 248.636 -195.321 102.849 -192.931 c 0
 44.8379 -191.975 1.14355 -194.827 -34.5791 -140.75 c 0
 -41.1579 -130.798 -42.2783 -118.179 -37.1133 -107.646 c 0
 -27.6221 -88.3096 -4.4541 -81.7432 11.2383 -64.5557 c 1
 38.5205 -86.3828 l 1
 20.6312 -105.977 -0.24631 -115.492 -5.10352 -121.993 c 1
-5.59282 -121.103 m 1
 -5.59385 -121.099 l 2
 -5.60744 -121.061 -5.61802 -121.034 -5.62233 -121.024 c 2
 -5.62291 -121.023 l 1
 -5.62233 -121.024 l 2
 -5.61504 -121.046 -5.60543 -121.072 -5.59385 -121.099 c 2
 -5.59333 -121.101 l 1
 -5.59282 -121.103 l 1
-5.62291 -121.023 m 1
 -5.62338 -121.021 l 1
 -5.62291 -121.023 l 1
-5.62338 -121.021 m 1
 -5.62402 -121.02 l 1
 -5.62338 -121.021 l 1
-5.59097 -121.108 m 1
 -5.59181 -121.105 l 1
223.731 10.7401 m 1
 203.209 14.1721 183.681 19.9163 165.374 27.6937 c 1
 166.816 -1.96587 200.379 3.56611 223.731 10.7401 c 1
EndSplineSet
Ref: 65 65 N 0.113137 -0.113137 0.113137 0.113137 -6.12546 -47.6815
EndChar
StartChar: h
Encoding: 104 104 13
Width: 491
Flags: W
VStem: 95 50<6 319.664>
Fore
145 5.7207 m 1
 95 6.65234 l 1
 94.9091 23.2858 94.7096 166.643 94.5121 319.888 c 1
 75.4148 313.173 57.6002 303.637 41.4453 291.369 c 1
 54.7964 317.845 72.8329 340.978 94.4616 359.649 c 1
 94.2406 533.17 94.0342 706.461 94 712.652 c 1
 145 711.721 l 1
 145 392.015 l 1
 171.636 404.091 201.206 410.721 232.553 410.721 c 0
 357.619 407.416 449.553 308.352 449.553 185.721 c 1
 447.652 107.676 411.951 42.1113 357.158 1.06836 c 1
 372.885 32.2539 382.111 68.0801 383.053 106.721 c 0
 383.053 229.352 291.119 328.416 166.053 331.721 c 0
 158.939 331.721 151.917 331.402 145 330.769 c 1
 145 5.7207 l 1
EndSplineSet
EndChar
StartChar: i
Encoding: 105 105 14
Width: 273
Flags: HW
HStem: 10 50<69 211.959>
VStem: 111 51<26 357.025 386.245 459.827>
Fore
69.5 10 m 1
 212 10 l 1
 211.967 61 l 1
 209.45 60.9725 187.759 60.8308 161.893 60.4511 c 1
 161.666 139.257 161.16 327.665 161 357.068 c 1
 111 358 l 1
 111 60.318 l 1
 91.5537 60.1835 75.3748 60.0643 69.4668 60 c 1
 69.5 10 l 1
111 459.827 m 1
 161 459.841 l 1
 161.2 452.481 161.934 388.674 162 386.241 c 1
 111 386.228 l 1
 111 459.827 l 1
EndSplineSet
EndChar
StartChar: j
Encoding: 106 106 15
Width: 223
Flags: HW
Fore
125.561 458.759 m 1
 125.561 385.159 l 1
 176.546 385.173 l 1
 176.48 387.605 175.762 451.413 175.565 458.772 c 1
 125.561 458.759 l 1
125.561 -74.09 m 1
 81.7745 -137.249 -20.7632 -156.424 -84.3291 -109.24 c 1
 -40.0083 -212.388 143.186 -191.276 174.136 -83.999 c 1
 176.546 -84 l 1
 176.541 -83.0013 176.531 -79.4489 176.517 -73.748 c 0
 178.452 -62.769 178.372 -52.0137 176.448 -41.7385 c 1
 176.229 62.8411 175.725 326.128 175.565 356 c 1
 125.561 355.932 l 1
 125.561 -74.09 l 1
EndSplineSet
EndChar
StartChar: k
Encoding: 107 107 29
Width: 472
Flags: W
Fore
348.501 651.863 m 1
 398.501 652 l 1
 398.636 602.412 281.901 487.308 205.734 410.038 c 1
 211.441 410.491 217.217 410.72 223.054 410.721 c 0
 348.12 407.416 440.054 308.352 440.054 185.721 c 1
 438.153 107.676 402.452 42.1113 347.659 1.06836 c 1
 363.386 32.2539 372.612 68.0801 373.554 106.721 c 0
 373.554 229.352 281.62 328.416 156.554 331.721 c 0
 149.44 331.721 142.418 331.402 135.501 330.769 c 1
 135.501 5.7207 l 1
 85.501 6.65234 l 1
 85.41 23.2858 85.2106 166.643 85.013 319.888 c 1
 65.9158 313.173 48.1012 303.637 31.9463 291.369 c 1
 45.2974 317.845 63.3338 340.978 84.9626 359.649 c 1
 84.7415 533.17 84.5352 706.461 84.501 712.652 c 1
 135.501 711.721 l 1
 135.501 392.015 l 1
 136.692 392.55 l 1
 348.501 651.863 l 1
EndSplineSet
EndChar
StartChar: l
Encoding: 108 108 30
Width: 273
Flags: HW
Fore
138.938 662.628 m 1
 92.8919 685.539 43.4612 649.619 37.6318 602.259 c 1
 29.1064 631.002 34.7754 662.38 54.7559 684.581 c 0
 83.9227 715.32 126.636 715.08 155.92 686.926 c 1
 188.938 686.962 l 1
 189.114 661.087 189.702 199.389 189.886 81.5217 c 1
 215.403 81.6902 236.68 81.8294 239.172 82.0342 c 1
 239.205 31.0342 l 1
 96.7051 31.0342 l 1
 96.6719 81.0342 l 1
 102.654 81.0993 119.166 81.2207 138.938 81.3573 c 1
 138.938 662.628 l 1
EndSplineSet
EndChar
StartChar: m
Encoding: 109 109 31
Width: 759
Flags: HW
HStem: 331.72 79<163.053 229.553 437.053 503.553>
VStem: 90.9995 51<6.70505 411.72> 365 51<6.70505 411.72>
Fore
628.158 1.06836 m 1
 682.951 42.1113 718.652 107.676 720.553 185.721 c 1
 720.553 308.352 628.619 407.416 503.553 410.721 c 0
 472.206 410.721 442.636 404.091 416 392.015 c 1
 416 411.721 l 1
 365 412.652 l 1
 365.014 409.966 365.061 390.472 365.128 361.326 c 1
 328.663 391.092 282.024 409.334 229.553 410.721 c 0
 198.206 410.721 168.636 404.091 142 392.015 c 1
 142 411.721 l 1
 91 412.652 l 1
 91.0146 409.906 91.0635 389.595 91.1328 359.363 c 1
 69.6504 340.741 51.7295 317.71 38.4453 291.369 c 1
 54.5186 303.575 72.2354 313.077 91.2227 319.786 c 1
 91.4746 207.854 91.8633 31.8965 92 6.65234 c 1
 142 5.7207 l 1
 142 330.769 l 1
 148.917 331.402 155.939 331.721 163.053 331.721 c 0
 258.66 329.194 334.905 270.708 365.519 188.512 c 1
 365.668 123.86 365.817 61.8634 365.919 28.648 c 1
 362.547 19.11 358.614 9.90284 354.158 1.06836 c 1
 358.206 4.10011 362.149 7.26567 365.982 10.5596 c 1
 365.988 9.00802 365.995 7.70067 366 6.65234 c 1
 416 5.7207 l 1
 416 71.7067 l 1
 434.557 104.764 445.522 143.408 446.553 185.721 c 0
 446.553 228.13 435.558 267.72 416 301.507 c 1
 416 330.769 l 1
 422.917 331.402 429.939 331.721 437.053 331.721 c 0
 562.119 328.416 654.053 229.352 654.053 106.721 c 0
 653.111 68.0801 643.885 32.2539 628.158 1.06836 c 1
EndSplineSet
EndChar
StartChar: o
Encoding: 111 111 30
Width: 523
Flags: HW
HStem: 299 60<383 385> 335 60<269 276>
Fore
261.5 526.875 m 1
 405.951 523.059 512.135 408.639 512.135 267 c 1
 508.538 119.253 400.054 7.125 261.5 7.125 c 1
 117.049 10.9414 10.8652 125.361 10.8652 267 c 1
 14.4619 414.748 122.946 526.875 261.5 526.875 c 1
274.247 189.313 m 1
 330.36 201.289 318.52 200.463 350.992 213.991 c 1
 352.434 210.53 l 1
 330.842 194.383 314.939 196.755 276.041 186.207 c 1
 277.213 183.879 278.136 181.336 278.763 178.638 c 1
 326.262 175.83 324.487 179.058 353.492 182.937 c 1
 353.99 179.22 l 1
 339.753 177.315 330.266 171.219 315.16 174.033 c 0
 304.218 176.072 292.532 175.692 279.342 175.542 c 1
 279.586 173.827 279.713 172.062 279.713 170.261 c 0
 279.713 164.376 278.355 158.886 276.01 154.252 c 1
 334.029 135.695 317.882 141.644 356.855 136.595 c 1
 356.375 132.876 l 1
 342.13 134.722 331.389 131.288 317.525 137.916 c 0
 305.142 143.837 290.715 146.497 274.151 151.063 c 1
 271.249 146.713 267.381 143.405 262.96 141.655 c 1
 314.833 108.345 299.813 118.722 336.715 103.524 c 1
 335.287 100.057 l 1
 322.006 105.526 310.742 104.99 299.066 114.98 c 0
 288.049 124.409 273.887 130.911 258.048 140.401 c 0
 257.28 140.309 256.501 140.261 255.713 140.261 c 0
 255.339 140.261 254.966 140.271 254.596 140.302 c 0
 252.748 105.761 256.883 96.093 259.527 76.3184 c 1
 255.811 75.8203 l 1
 253.906 90.0576 247.81 99.5449 250.624 114.65 c 0
 252.138 122.777 252.318 131.313 252.25 140.572 c 1
 247.459 141.438 243.125 144.075 239.688 147.933 c 1
 226.668 108.926 229.132 109.124 225.431 78.6693 c 1
 236.889 76.2606 248.923 74.8313 261.5 74.5 c 0
 351.328 74.5 442.232 145.096 445.2 267 c 1
 445.2 362.873 375.797 456.48 261.5 459.5 c 1
 171.672 459.5 80.7676 388.904 77.7998 267 c 1
 77.7998 182.821 131.305 100.388 221.725 79.4884 c 1
 222.968 92.6129 220.242 102.93 226.507 116.036 c 0
 231.388 126.244 234.053 137.842 237.396 150.882 c 1
 233.851 156.11 231.713 162.875 231.713 170.261 c 0
 231.713 176.88 233.431 183.001 236.339 187.965 c 1
 228.875 192.228 221.754 197.92 215.832 206.552 c 0
 207.008 219.419 193.786 229.959 179.848 244.811 c 1
 182.58 247.38 l 1
 208.202 220.079 210.004 213.657 239.757 192.665 c 1
 243.999 197.389 249.589 200.26 255.713 200.261 c 0
 256.645 200.261 257.564 200.194 258.468 200.065 c 0
 312.617 250.749 287.04 223.619 319.62 266.265 c 1
 322.6 263.988 l 1
 317.816 252.832 311.482 241.555 298.811 232.863 c 0
 286.584 224.477 276.458 212.122 262.737 198.954 c 1
 263.892 198.512 265.01 197.964 266.083 197.32 c 1
 326.487 229.098 300.885 214.18 339.585 244.005 c 1
 341.873 241.034 l 1
 334.365 231.497 325.328 222.243 310.839 217.128 c 0
 297.47 212.408 285.018 203.685 269.387 194.914 c 1
 271.206 193.334 272.842 191.448 274.247 189.313 c 1
359.5 329 m 0
 359.5 345.56 370.252 359 383.5 359 c 0
 396.748 359 407.5 345.56 407.5 329 c 0
 407.5 312.439 396.748 299 383.5 299 c 0
 370.252 299 359.5 312.439 359.5 329 c 0
187.556 365 m 0
 183.233 386.613 201.867 404.93 219.5 404.93 c 0
 232.262 404.93 243.284 395.559 248.4 382.025 c 1
 252.931 389.802 261.358 395.001 269.5 395 c 0
 282.748 395 293.5 381.56 293.5 365 c 0
 293.5 348.439 282.748 335 269.5 335 c 0
 260.782 335 254.011 343.661 249.829 352.435 c 1
 245.613 336.544 233.622 325.07 219.5 325.07 c 0
 201.866 325.07 190.218 351.69 187.556 365 c 0
EndSplineSet
EndChar
StartChar: r
Encoding: 114 114 33
Width: 325
Flags: W
Fore
286.42 398.107 m 5
 261.589 431.257 221.923 452.857 174.705 454.006 c 4
 149.618 454.006 126.16 447.646 106.021 436.302 c 5
 68.4385 437.002 l 5
 68.4385 404.712 l 5
 50.4453 382.655 39.4189 354.45 38.5801 322.721 c 4
 38.5801 291.255 49.6211 262.748 68.4385 240.397 c 5
 68.4385 6.24219 l 5
 130.147 5.11523 l 5
 130.083 16.9824 129.493 260.812 129.141 378.166 c 5
 153.479 400.526 186.292 413.774 222.501 413.774 c 4
 245.878 413.203 267.552 407.622 286.42 398.107 c 5
EndSplineSet
EndChar
StartChar: s
Encoding: 115 115 34
Width: 467
Flags: W
DStem: 57.9901 233.324 66.0099 282.676 377.99 181.324 386.01 230.676
Fore
57.9901 233.324 m 5
 66.0099 282.676 l 5
 98.0099 277.476 375.518 232.381 386.01 230.676 c 5
 377.99 181.324 l 5
 57.9901 233.324 l 5
EndSplineSet
Ref: 99 99 S -0.53033 0.53033 0.53033 0.53033 234.728 -88.9517
Ref: 99 99 S -0.53033 -0.53033 0.53033 -0.53033 234.728 555.471
EndChar
StartChar: t
Encoding: 116 116 35
Width: 467
Flags: W
HStem: 3 79<258.446 324.946>
VStem: 87 51<2 41.1361>
Fore
87 397.237 m 1
 56.2735 397.151 34.8798 397.079 30.7334 397.034 c 1
 30.7666 347.034 l 1
 74.9014 347.034 l 1
 54.5882 312.894 42.5292 272.473 41.4463 228 c 0
 41.4463 175.73 58.1487 127.742 87 89.6253 c 1
 87 2 l 1
 138 1.06836 l 1
 137.989 3.16764 137.957 17.9511 137.913 41.1669 c 1
 171.815 18.0838 212.937 4.20186 258.446 3 c 0
 342.172 3 413.216 50.291 449.554 122.352 c 1
 414.537 95.7598 371.721 82 324.946 82 c 0
 242.486 84.1789 174.429 127.986 137.63 192.73 c 1
 137.336 347.034 l 1
 413.267 347.034 l 1
 413.233 398.034 l 1
 409.188 397.99 249.426 397.651 137.356 397.369 c 1
 137.257 444.201 137.173 478.815 137 488.068 c 1
 87 489 l 1
 87 397.237 l 1
EndSplineSet
EndChar
StartChar: u
Encoding: 117 117 36
Width: 467
Flags: HW
HStem: 3 79<258.446 324.946>
VStem: 346 51<2 407.015>
Fore
133.841 412.651 m 1
 79.0479 371.608 43.3467 306.044 41.4463 228 c 1
 41.4463 105.369 133.38 6.30469 258.446 3 c 0
 289.794 3 319.364 9.62936 346 21.706 c 1
 346 2 l 1
 397 1.06836 l 1
 396.985 3.81365 396.936 24.1252 396.867 54.3572 c 1
 418.35 72.9789 436.27 96.0105 449.554 122.352 c 1
 433.48 110.145 415.764 100.643 396.776 93.9342 c 1
 396.525 205.866 396.136 381.824 396 407.068 c 1
 346 408 l 1
 346 82.9516 l 1
 339.083 82.3183 332.06 82 324.946 82 c 0
 199.88 85.3047 107.946 184.369 107.946 307 c 0
 108.888 345.64 118.114 381.466 133.841 412.651 c 1
EndSplineSet
EndChar
StartChar: v
Encoding: 118 118 37
Width: 490
Flags: W
Fore
285.658 29.1572 m 28
 273.031 9.05664 228.202 9.06965 228.202 9.06965 c 5
 104.281 13.4919 13.4453 112.103 13.4453 234 c 5
 15.3457 312.045 51.0469 377.609 105.84 418.652 c 5
 90.1133 387.467 80.8867 351.641 79.9453 313 c 4
 79.9453 199.659 158.478 106.449 269.119 90.3682 c 5
 431.998 414 l 5
 481.998 413.068 l 5
 482.102 394.239 375.116 171.559 285.658 29.1572 c 28
EndSplineSet
EndChar
StartChar: w
Encoding: 119 119 38
Width: 714
Flags: HW
Fore
494.658 29.1572 m 0
 482.031 9.05664 437.202 9.06934 437.202 9.06934 c 1
 385.561 10.9125 339.665 29.1125 303.695 58.5386 c 1
 285.658 29.1572 l 2
 273.031 9.05664 228.202 9.06934 228.202 9.06934 c 1
 104.281 13.4922 13.4453 112.104 13.4453 234 c 1
 15.3457 312.045 51.0469 377.609 105.84 418.652 c 1
 90.1133 387.467 80.8867 351.641 79.9453 313 c 0
 79.9453 199.659 158.478 106.449 269.118 90.3682 c 1
 270.276 92.6694 l 1
 240.028 131.247 222.445 180.37 222.445 234 c 0
 224.346 312.045 260.047 377.609 314.84 418.652 c 1
 299.113 387.467 289.887 351.641 288.945 313 c 0
 288.945 269.285 300.628 228.564 321.33 194.109 c 1
 431.998 414 l 1
 481.998 413.068 l 1
 482.075 399.084 423.078 272.647 356.062 150.171 c 1
 388.182 118.827 430.13 97.3426 478.118 90.3682 c 1
 640.998 414 l 1
 690.998 413.068 l 1
 691.102 394.239 584.116 171.559 494.658 29.1572 c 0
EndSplineSet
EndChar
StartChar: x
Encoding: 120 120 39
Width: 306
Flags: HW
Fore
107.614 150.91 m 1
 14.7486 174.414 -2.60677 297.271 70.8008 352.257 c 1
 62.9375 336.664 69.3242 330.751 68.8535 311.431 c 0
 68.8535 255.662 82.6687 209.641 135.83 200.528 c 1
 164.999 245.486 183.294 301.379 208.879 349.931 c 1
 258.879 349.465 l 1
 258.916 342.645 230.857 282.342 198.386 222.555 c 1
 291.251 199.051 308.607 76.1943 235.199 21.208 c 1
 243.062 36.8008 236.676 42.7139 237.146 62.0342 c 0
 237.146 117.803 223.331 163.824 170.17 172.937 c 1
 141.001 127.979 122.706 72.0859 97.1211 23.5342 c 1
 47.1211 24 l 1
 47.0843 30.8201 75.1431 91.123 107.614 150.91 c 1
EndSplineSet
EndChar
StartChar: y
Encoding: 121 121 40
Width: 490
Flags: HW
Fore
105.84 418.652 m 1
 51.0469 377.609 15.3457 312.045 13.4453 234 c 1
 13.4453 112.103 104.281 13.4919 228.202 9.06965 c 1
 126 -194 l 1
 177 -194.932 l 1
 176.973 -190.031 226.507 -96.3632 285.658 16.1568 c 1
 344.863 31.9365 393.529 72.778 421.553 128.352 c 1
 393.46 107.019 360.349 93.9442 324.201 89.6069 c 1
 402.226 238.675 482.102 394.239 481.998 413.068 c 1
 431.998 414 l 1
 269.119 90.3682 l 1
 158.478 106.449 79.9453 199.659 79.9453 313 c 0
 80.8867 351.641 90.1133 387.467 105.84 418.652 c 1
EndSplineSet
EndChar
StartChar: z
Encoding: 122 122 41
Width: 294
Flags: HW
Fore
221.36 310.634 m 0
 221.396 279.424 179.577 234.745 133.564 207.071 c 1
 79.1279 171.978 36.3262 100.904 35.2617 59.7539 c 0
 35.1699 56.2324 35.6396 52.5293 36.7412 49.0127 c 0
 40.3486 37.498 46.5967 36.501 54.4375 34.1777 c 1
 88.5488 31.1113 128.329 29.9727 165.366 29.9424 c 0
 199.265 29.915 239.617 31.0107 250.3 33.8115 c 0
 250.35 33.8252 253.19 34.8164 253.749 35.0957 c 0
 259.466 37.958 261.499 44.2617 258.704 50.0117 c 2
 248.862 70.249 l 2
 246.878 74.3301 243.227 76.6016 238.689 76.5791 c 2
 86.2412 75.8184 l 1
 87.7109 110.5 159.02 160.027 202.625 186.811 c 0
 204.204 187.781 205.369 188.922 206.289 190.427 c 0
 248.098 218.61 276.524 268.569 277.186 315.126 c 0
 277.377 328.566 273.995 347.224 259.076 353.33 c 0
 258.974 353.372 253.375 354.838 252.532 354.917 c 0
 218.805 358.072 175.372 359.123 135.143 359.152 c 0
 99.9795 359.178 52.3652 358.091 41.3467 355.264 c 0
 41.2998 355.252 38.4893 354.283 37.9209 353.999 c 0
 32.2021 351.141 30.1699 344.833 32.9658 339.083 c 2
 42.8076 318.846 l 2
 44.791 314.767 48.4404 312.495 52.9756 312.516 c 2
 221.233 313.283 l 1
 221.295 312.359 221.36 311.488 221.36 310.634 c 0
EndSplineSet
EndChar
StartChar: braceleft
Encoding: 123 123 42
Width: 325
Flags: HW
Fore
134.93 87.7461 m 1
 135.986 438.756 136.026 358.001 134.93 699.375 c 1
 155.045 717.854 182.163 728.803 212.087 728.803 c 0
 231.407 728.332 249.32 723.719 264.913 715.855 c 1
 244.392 743.252 211.609 761.104 172.587 762.053 c 0
 151.854 762.053 132.467 756.797 115.823 747.421 c 1
 84.7627 748 l 1
 84.7627 721.313 l 1
 69.8926 703.085 60.7803 679.775 60.0869 653.553 c 0
 60.0869 627.548 69.2119 603.988 84.7627 585.517 c 1
 84.7627 341.216 l 1
 46.7079 345.611 12.1345 357.876 -17.3311 376.118 c 1
 6.42612 337.856 41.4737 306.9 84.7627 287.721 c 1
 84.7627 201.604 l 1
 69.2119 183.133 60.0869 159.573 60.0869 133.568 c 0
 60.7803 107.346 69.8926 84.0361 84.7627 65.8076 c 1
 84.7627 39.1211 l 1
 115.823 39.7002 l 1
 132.467 30.3242 151.854 25.0684 172.587 25.0684 c 0
 211.609 26.0176 244.392 43.8691 264.913 71.2656 c 1
 249.32 63.4023 231.407 58.7891 212.087 58.3184 c 0
 182.163 58.3184 155.045 69.2666 134.93 87.7461 c 1
EndSplineSet
EndChar
StartChar: bar
Encoding: 124 124 43
Width: 273
Flags: WO
VStem: 111 50<4 795>
Fore
111 795 m 5
 161 795.068 l 5
 161.2 758.269 161.934 16.2324 162 4.06836 c 5
 111 4 l 5
 111 795 l 5
EndSplineSet
EndChar
StartChar: asciitilde
Encoding: 126 126 45
Width: 424
Flags: W
Fore
264.283 451.396 m 1
 259.209 469.88 249.363 487.657 234.553 503.165 c 1
 191.197 546.521 123.668 549.043 78.2832 505.993 c 1
 48.6816 476.392 40.2832 434.554 52.9141 396.229 c 1
 55.8926 418.011 66.1641 438.014 82.7031 454.552 c 0
 104.877 475.584 132.336 485.738 159.717 485.567 c 1
 164.791 467.084 174.637 449.307 189.447 433.799 c 1
 232.803 390.442 300.332 387.921 345.717 430.971 c 1
 375.318 460.572 383.717 502.41 371.086 540.734 c 1
 368.107 518.953 357.836 498.95 341.297 482.412 c 0
 319.123 461.38 291.664 451.226 264.283 451.396 c 1
EndSplineSet
EndChar
StartChar: uni007F
Encoding: 127 127 46
Width: 1597
Flags: HW
Fore
1371.96 532 m 8
 1380.35 515.228 1391.96 514 1405.96 498 c 8
 1418.83 483.29 1444.23 503.312 1449.96 522 c 24
 1460.47 556.264 1401.42 568.394 1407.82 603.657 c 24
 1410.29 617.322 1429.95 614.338 1434.21 627.557 c 24
 1437.59 638.057 1437.72 649.521 1428.27 655.21 c 24
 1411.89 665.073 1398.66 649.408 1381.08 641.886 c 24
 1369.86 637.083 1365.86 629.344 1354.13 625.967 c 24
 1328 618.448 1311.56 622.073 1284.45 624.086 c 24
 1249.17 626.704 1221.04 615.811 1195.13 639.894 c 24
 1182.27 651.839 1188.83 666.617 1184.07 683.507 c 24
 1180.37 696.618 1187.21 715.041 1173.72 716.866 c 24
 1158.17 718.969 1158.39 697.328 1152.02 682.991 c 24
 1145.3 667.889 1150.17 655.754 1140.84 642.112 c 24
 1114.65 603.82 1078.42 603.741 1045.27 571.282 c 24
 1010.99 537.713 980.257 520.862 969.962 474 c 16
 954.754 404.771 959.342 390.006 955.726 336.035 c 24
 953.036 295.893 954.748 287.21 952.529 232.924 c 8
 951.358 204.268 984.951 201.705 1008.03 184.678 c 24
 1035.9 164.114 1055.17 157.783 1083.48 137.826 c 16
 1095.68 129.227 1107.54 121.431 1117.96 113.729 c 0
 1128.87 105.673 1138.2 97.7197 1144.73 89.0605 c 8
 1155.14 75.249 1166.52 105.118 1179.96 116 c 24
 1188.9 123.231 1192.16 129.855 1202.35 135.168 c 24
 1221.35 145.067 1236.17 139.729 1255.52 148.91 c 24
 1271.36 156.424 1307.94 168.776 1291.76 175.503 c 16
 1266.98 185.8 1258.71 174.989 1237.61 175.727 c 24
 1220.3 176.331 1194.51 161.366 1193.3 178.643 c 16
 1189.95 226.525 1189.98 304.464 1195.91 384.559 c 24
 1200.2 442.432 1207.2 485.275 1215.96 532 c 0
 1224.11 575.479 1291.96 574 1339.96 566 c 0
 1357.75 563.036 1365.96 544 1371.96 532 c 8
771.962 516 m 0
 763.962 538 755.45 587.645 735.962 630 c 24
 710.042 686.333 702.837 729.547 651.962 765 c 24
 607.533 795.961 570.094 791.506 515.962 793 c 24
 478.912 794.022 457.465 789.644 421.962 779 c 24
 364.3 761.714 333.05 745.84 281.962 714 c 24
 213.006 671.024 173.902 643.764 119.962 583 c 24
 87.8516 546.828 73.9629 522.039 53.9619 478 c 24
 42.1758 452.049 37.2686 436.175 32.9619 408 c 24
 23.0615 343.228 19.5137 304.517 30.9619 240 c 24
 41.8965 178.381 44.8613 135.373 87.9619 90 c 24
 131.979 43.6611 175.92 39.3506 237.962 24 c 24
 313.108 5.40723 358.562 8.62988 435.962 10 c 24
 472.823 10.6523 496.064 5.50391 529.962 20 c 24
 578.813 40.8916 597.962 62 633.962 108 c 8
 671.171 155.545 680.223 171.326 727.962 231 c 0
 735.962 241 754.592 296.152 759.962 292 c 0
 778.04 278.02 790.669 149.135 817.962 123 c 8
 862.034 80.7979 892.234 58.7715 949.962 39 c 24
 1041.12 7.77734 1099.73 10.9834 1195.96 16 c 24
 1259.51 19.3135 1298.81 20.0215 1355.96 48 c 24
 1390.23 64.7764 1405.36 82.833 1429.96 112 c 24
 1483.44 175.396 1522.4 212.943 1539.96 294 c 16
 1565.96 414 1590.7 466.553 1565.96 582 c 0
 1553.96 638 1541.44 666.726 1505.96 708 c 24
 1476.49 742.289 1452.57 757.866 1409.96 773 c 24
 1338.39 798.421 1291.65 796.265 1215.96 790 c 24
 1166.19 785.881 1138.51 776.104 1091.96 758 c 24
 1028.55 733.336 992.215 717.067 937.962 676 c 16
 877.045 629.889 803.962 510 783.962 474 c 0
 780.927 468.536 776.581 503.298 771.962 516 c 0
811.962 376 m 24
 821.594 466.938 866.146 511.15 923.962 582 c 24
 960.711 627.033 988.398 647.637 1037.96 678 c 24
 1093.55 712.055 1127.84 731.223 1191.96 743 c 24
 1266.42 756.678 1314.98 762.345 1385.96 736 c 24
 1423.42 722.097 1445.86 706.53 1465.96 672 c 24
 1513.25 590.767 1510.25 527.785 1503.96 434 c 24
 1496.72 325.912 1478.92 261.353 1423.96 168 c 24
 1402.97 132.351 1385.74 112.768 1349.96 92 c 24
 1309.55 68.543 1280.53 65.8818 1233.96 62 c 24
 1198.07 59.0078 1177.35 63.29 1141.96 70 c 24
 1077.22 82.2764 1036.34 83.8848 979.962 118 c 24
 916.724 156.268 885.245 190.178 847.962 254 c 24
 822.938 296.835 806.736 326.668 811.962 376 c 24
345.962 64 m 24
 296.333 65.9043 268.032 74.4502 221.962 93 c 24
 181.57 109.263 152.416 115.415 125.962 150 c 24
 81.6973 207.87 79.4336 257.225 75.9619 330 c 24
 73.6211 379.06 77.1035 409.534 97.9619 454 c 24
 128.754 519.644 162.766 548.983 217.962 596 c 24
 285.885 653.857 327.817 690.761 413.962 714 c 24
 464.424 727.613 499.385 731.287 547.962 712 c 24
 594.143 693.664 614.677 667.526 641.962 626 c 24
 678.67 570.132 681.644 528.826 697.962 464 c 24
 711.077 411.896 727.485 381.2 719.962 328 c 24
 712.291 273.761 693.19 244.551 659.962 201 c 24
 620.703 149.546 592.769 120.029 533.962 93 c 24
 466.555 62.0166 420.095 61.1562 345.962 64 c 24
339.962 606 m 16
 388.274 608.426 391.193 606.348 423.933 605.534 c 24
 452.688 604.819 468.883 600.958 497.617 602.28 c 24
 517.891 603.213 529.927 602.905 549.175 609.341 c 24
 567.188 615.364 571.421 621.387 591.697 633.085 c 8
 598.195 636.834 599.409 624.186 603.513 617.906 c 24
 608.235 610.68 616.27 606.784 614.053 598.44 c 24
 611.896 590.321 600.206 594.208 595.746 587.09 c 24
 592.73 582.277 592.117 577.875 594.238 572.607 c 24
 601.064 555.654 627.202 560.419 630.033 542.364 c 24
 631.658 531.997 623.363 526.796 615.78 519.542 c 24
 605.618 509.822 598.281 503.938 584.38 501.82 c 24
 557.747 497.762 543.746 514.988 516.838 516.312 c 24
 466.104 518.807 411.986 512.04 387.424 501.616 c 0
 370.752 494.541 387.782 475.727 388.808 459.212 c 24
 389.972 440.463 391.353 433.26 393.204 411.247 c 8
 396.169 375.995 448.613 409.478 483.688 404.862 c 24
 522.608 399.741 572.003 423.557 582.511 385.732 c 24
 586.45 371.553 564.56 371.192 554.47 360.479 c 24
 542.345 347.606 542.614 331.6 526.195 325.031 c 24
 504.896 316.511 490.738 330.664 467.921 333.033 c 24
 448.728 335.025 434.029 348.059 418.566 336.516 c 24
 398.949 321.871 407.338 299.598 405.002 275.229 c 24
 401.465 238.334 395.03 216.607 407.538 180.227 c 8
 412.054 167.094 394.255 162.82 383.783 153.698 c 24
 372.198 143.606 366.468 131.318 351.108 131.69 c 24
 332.904 132.131 328.321 148.777 313.69 159.617 c 24
 294.629 173.739 288.112 191.903 264.688 195.655 c 24
 248.351 198.272 238.976 190.225 224.368 182.453 c 24
 211.122 175.406 203.73 170.251 194.011 158.822 c 24
 187.539 151.213 191.63 137.654 181.727 136.348 c 24
 173.361 135.244 173.391 146.744 166.783 151.991 c 24
 161.152 156.463 149.049 154.432 150.912 161.377 c 16
 159.49 193.353 172.578 208.039 198.654 224.629 c 24
 236.847 248.928 273.499 237.826 312.197 248.711 c 8
 331.72 254.202 322.689 279.193 323.559 299.455 c 24
 324.395 318.952 326.559 332.115 316.846 349.042 c 24
 311.623 358.145 305.637 362.404 295.646 365.613 c 24
 284.407 369.223 277.186 365.108 265.407 364.343 c 24
 247.438 363.175 229.912 345.664 219.411 360.294 c 24
 212.852 369.433 225.202 377.068 231.001 386.708 c 24
 240.684 402.805 245.146 414.237 260.896 424.473 c 24
 269.424 430.014 276.039 429.905 286.154 430.957 c 24
 293.308 431.7 299.077 425.509 304.576 430.144 c 24
 331.587 452.908 308.976 485.374 315.962 520 c 24
 322.849 554.134 305.185 604.254 339.962 606 c 16
1125.51 201.97 m 8
 1121.72 180.574 1091.35 207.956 1072.24 218.294 c 24
 1049.43 230.63 1017.85 235.116 1021.15 260.834 c 16
 1028.93 321.524 1025.97 350.614 1030.91 407.873 c 24
 1035.13 456.807 1037.3 488.516 1044.21 533.105 c 8
 1046.93 550.699 1066.8 549.588 1082.58 557.843 c 24
 1095.69 564.704 1103.13 575.196 1117.65 572.324 c 24
 1129.85 569.91 1139.07 562.227 1140.28 549.848 c 16
 1143.96 512 1141.21 518.246 1140.9 498.044 c 24
 1140.06 442.32 1137.72 410.931 1134.84 355.274 c 24
 1131.75 295.454 1135.57 258.811 1125.51 201.97 c 8
EndSplineSet
EndChar
StartChar: cent
Encoding: 162 162 49
Width: 467
Flags: HW
Fore
356.313 581.614 m 1
 330.811 585.273 304.765 584.565 279.183 579.389 c 1
 279.078 645.746 278.988 694.272 278.935 704 c 1
 228.935 703.932 l 1
 228.935 563.046 l 1
 94.9468 501.945 39.8292 325.002 154.755 203.838 c 0
 176.662 181.93 201.921 165.83 228.935 155.518 c 1
 228.935 62.9316 l 1
 279.935 63 l 1
 279.92 65.6758 279.873 96.4111 279.807 143.123 c 1
 311.057 139.537 343.246 142.87 374.283 153.099 c 1
 340.019 157.784 307.956 171.494 279.736 193.228 c 1
 279.597 293.039 279.409 431.414 279.245 539.233 c 1
 303.142 558.577 329.292 572.709 356.313 581.614 c 1
228.935 481.819 m 1
 228.935 249.68 l 1
 183.911 321.796 185.073 410.54 228.935 481.819 c 1
EndSplineSet
EndChar
StartChar: sterling
Encoding: 163 163 50
Width: 614
Flags: W
Fore
199.001 71.5879 m 1
 222.932 71.0281 297.148 47.3852 364.403 52.835 c 1
 374.305 29.0967 391.91 13.0879 419.109 0 c 0
 473.096 -25.9746 496.021 -38.7449 559.709 -16.3789 c 0
 569.447 -12.9594 569.94 -0.661913 560.39 3.40918 c 0
 507.738 25.8545 502.631 25.3389 473.642 49.3115 c 0
 459.132 61.3105 461.328 70.04 439.787 81.6631 c 0
 377.747 115.144 307.642 98.5321 247.503 110.067 c 0
 197.061 119.743 224.607 240.602 221.563 316.397 c 0
 220.896 332.933 220.945 346.814 222.283 362.117 c 1
 226.295 359.69 230.422 357.405 234.654 355.271 c 1
 230.644 360.552 226.999 366.054 223.724 371.757 c 1
 363.173 371.757 l 1
 363.146 412.558 l 1
 360.941 412.533 298.786 412.399 230.098 412.245 c 1
 236.078 442.816 263.266 529.081 222.269 533.546 c 1
 264.394 614.889 372.411 655.489 466.895 607.842 c 1
 434.061 651.676 381.608 680.237 319.173 681.757 c 0
 221.068 681.757 141.816 608.21 139.173 508.157 c 0
 139.173 499.49 139.806 490.992 141.035 482.702 c 1
 136.524 457.246 133.439 433.516 131.336 412.016 c 1
 86.3969 411.906 51.5502 411.808 46.7461 411.757 c 1
 46.7725 371.757 l 1
 128.283 371.757 l 1
 123.73 287.215 129.485 189.221 158.228 80.8809 c 0
 161.333 69.1703 190.63 68.2282 199.001 71.5879 c 1
EndSplineSet
EndChar
StartChar: currency
Encoding: 164 164 51
Width: 549
Flags: HW
HStem: 153 79<252.393 318.893>
Fore
105.5 740.863 m 1
 173.929 615.693 l 1
 208.585 640.427 250.689 654.651 296.607 654.651 c 0
 332.051 653.715 364.834 645.087 393.617 630.412 c 1
 454 740.863 l 1
 504 741 l 1
 504.051 722.441 478.796 668.438 440.996 597.658 c 1
 486.216 556.505 513.607 496.589 513.607 429.651 c 0
 511.858 357.845 481.496 296.603 433.977 255.304 c 1
 423.372 238.093 410.652 222.59 396.175 209.164 c 1
 504 11.9316 l 1
 453 12.0684 l 1
 453.022 19.7842 413.013 88.5449 358.374 181.195 c 1
 327.226 163.144 291.169 153 252.393 153 c 0
 230.632 153.575 209.874 157.05 190.429 163.042 c 1
 141.345 79.6719 106.48 19.2725 106.5 12.0684 c 1
 55.5 11.9316 l 1
 148.022 181.172 l 1
 79.4346 219.533 35.3926 293.121 35.3926 378 c 0
 37.1416 449.807 67.5039 511.049 115.023 552.348 c 1
 119.862 560.2 125.141 567.697 130.825 574.803 c 1
 86.293 656.694 55.4443 720.49 55.5 741 c 1
 105.5 740.863 l 1
379.183 240.246 m 0
 396.914 245.331 413.653 252.746 429.12 262.422 c 1
 440.015 289.277 446.337 319.022 447.107 350.651 c 0
 447.107 409.939 408.333 490.887 372 531 c 1
 339.24 551.81 273.071 574.516 230.107 575.651 c 0
 143.525 575.651 167.178 574.819 119.88 545.229 c 1
 108.985 518.373 102.663 488.629 101.893 457 c 0
 101.893 379.531 157.447 289.459 216 249 c 1
 240.036 239.455 290.867 232.74 318.893 232 c 0
 322.037 232 376.075 240.122 379.183 240.246 c 0
EndSplineSet
EndChar
StartChar: yen
Encoding: 165 165 52
Width: 633
Flags: HW
HStem: 308 50<118 514.204> 308 207<118 514.207> 465 50<118 514.204>
Fore
477.188 593.158 m 1
 477.792 566.383 472.758 539.539 465.024 515.875 c 1
 493.949 515.941 512.877 515.988 514.213 516 c 1
 514.246 465 l 1
 444.931 465 l 1
 427.332 422.92 412.836 389.379 387.148 358.698 c 1
 456.133 358.852 511.885 358.975 514.213 359 c 1
 514.246 308 l 1
 357.117 308 l 1
 357.979 13.0439 l 2
 358.004 4.35547 351.667 -2 342.979 -2 c 2
 278.979 -2 l 2
 270.309 -2 263.979 4.3291 263.979 13 c 2
 263.979 308 l 1
 118.746 308 l 1
 118.713 358 l 1
 125.024 358.069 172.815 358.2 233.135 358.346 c 1
 205.177 389.808 187.556 420.774 169.562 465 c 1
 118.746 465 l 1
 118.713 515 l 1
 121.615 515.032 133.291 515.076 150.923 515.128 c 1
 143.292 538.741 136.833 566.246 139.714 596.488 c 1
 91.0938 608.326 68.1426 629.986 55.6963 644.116 c 0
 18.3538 686.508 -13.4166 714.648 28.499 777.521 c 0
 34.1012 785.923 46.3189 786.685 52.7529 778.495 c 0
 88.8496 732.543 89.334 726.485 127.141 702.585 c 0
 149.104 688.702 165.085 688.693 180.336 672.408 c 0
 233.649 615.489 215.345 552.548 223.652 515.322 c 1
 276.199 515.451 339.937 515.593 394.319 515.714 c 1
 403.284 554.326 388.24 620.828 447.156 672.701 c 0
 467.188 690.339 490.721 692.771 505.818 702.585 c 0
 543.817 727.284 545.896 728.9 579.64 777.729 c 0
 585.659 786.436 598.699 786.495 604.459 777.521 c 0
 645.045 714.299 617.785 689.751 577.263 644.116 c 0
 563.255 628.343 538.085 603.241 477.188 593.158 c 1
375.014 465 m 1
 242.053 465 l 1
 253.205 440.887 271.12 413.252 308.931 381.149 c 1
 343.226 403.714 355.955 421.395 375.014 465 c 1
EndSplineSet
EndChar
StartChar: brokenbar
Encoding: 166 166 53
Width: 273
Flags: W
VStem: 111 51<27 357.015 405 735.015>
Fore
111 736 m 1
 111 405 l 1
 162 404.068 l 1
 161.934 416.232 161.2 698.269 161 735.068 c 1
 111 736 l 1
111 358 m 1
 111 27 l 1
 162 26.0684 l 1
 161.934 38.2324 161.2 320.269 161 357.068 c 1
 111 358 l 1
EndSplineSet
EndChar
StartChar: section
Encoding: 167 167 54
Width: 467
Flags: W
Fore
387.16 241.508 m 1
 420.609 261.966 434.98 304.557 421.487 363.02 c 0
 398.033 455.453 309.793 547.704 214.892 574.114 c 0
 153.641 589.654 109.914 569.334 94.9521 524.815 c 0
 94.499 523.467 94.0723 522.096 93.6719 520.702 c 1
 94.7822 521.397 95.916 522.063 97.0713 522.698 c 0
 118.085 534.245 146.459 535.766 179.878 527.286 c 0
 274.779 500.876 363.02 408.625 386.472 316.191 c 0
 393.152 287.245 393.05 262.007 387.16 241.508 c 1
378.261 232.609 m 1
 357.804 199.159 315.213 184.788 256.75 198.282 c 0
 164.315 221.736 72.0654 309.976 45.6553 404.877 c 0
 30.1143 466.127 50.4355 509.854 94.9521 524.815 c 0
 96.3027 525.27 97.6738 525.696 99.0674 526.097 c 1
 98.3721 524.986 97.707 523.854 97.0713 522.698 c 0
 85.5234 501.685 84.0029 473.312 92.4824 439.892 c 0
 118.893 344.99 211.146 256.751 303.578 233.298 c 0
 332.523 226.616 357.762 226.719 378.261 232.609 c 1
385.226 237.869 m 1
 392.518 187.045 376.68 133.341 336.299 90.9434 c 1
 271.264 25.9092 169.972 22.127 101.893 86.7012 c 1
 57.4912 131.104 44.8936 193.86 63.8389 251.347 c 1
 68.3066 218.674 83.7158 188.67 108.522 163.864 c 0
 176.602 99.29 277.894 103.072 342.928 168.106 c 0
 362.921 189.098 377.027 212.99 385.226 237.869 c 1
410.226 557.65 m 1
 417.518 608.475 401.68 662.179 361.299 704.576 c 1
 296.264 769.61 194.972 773.393 126.893 708.818 c 1
 82.4912 664.416 69.8936 601.66 88.8389 544.173 c 1
 93.3066 576.846 108.716 606.85 133.522 631.655 c 0
 201.602 696.229 302.894 692.448 367.928 627.413 c 0
 387.921 606.422 402.027 582.529 410.226 557.65 c 1
EndSplineSet
EndChar
StartChar: ordfeminine
Encoding: 170 170 57
Width: 413
Flags: HW
HStem: 276 50<60 352.258> 356.017 39.5<193.862 227.112> 567.343 39.5<182.719 215.969>
VStem: 302.139 25.5<360.517 611.86>
Fore
60.7363 276 m 5
 60.7129 326 l 5
 73.5938 326.2 348.006 326.934 352.264 327 c 5
 352.287 276 l 5
 60.7363 276 l 5
EndSplineSet
Ref: 97 97 S 0.5 0 0 0.5 64.6389 354.517
EndChar
StartChar: logicalnot
Encoding: 172 172 59
Width: 457
Flags: W
Fore
30.7666 374.034 m 1
 30.7334 425.034 l 1
 49.1328 425.234 420.151 424.968 426.233 425.034 c 1
 426.267 314.034 l 1
 362 314.034 l 1
 364 374.034 l 1
 30.7666 374.034 l 1
EndSplineSet
EndChar
StartChar: mu
Encoding: 181 181 68
Width: 467
Flags: HW
HStem: 3 79<258.446 324.946>
VStem: 34 51<-148 407.015> 346 51<2 407.015>
Fore
34 408 m 1
 34 -148 l 1
 85 -148.932 l 1
 84.969 -143.262 84.7932 -30.0914 84.5939 92.8664 c 1
 123.298 39.728 185.188 4.93631 258.446 3 c 0
 289.794 3 319.364 9.62891 346 21.7061 c 1
 346 2 l 1
 397 1.06836 l 1
 396.985 3.81348 396.937 24.125 396.867 54.3574 c 1
 418.35 72.9785 436.271 96.0107 449.554 122.352 c 1
 433.48 110.146 415.764 100.643 396.776 93.9346 c 1
 396.524 205.866 396.137 381.823 396 407.068 c 1
 346 408 l 1
 346 82.9512 l 1
 339.083 82.3184 332.061 82 324.946 82 c 0
 199.88 85.3047 107.946 184.369 107.946 307 c 0
 108.888 345.64 118.114 381.466 133.841 412.651 c 1
 114.741 398.344 97.9605 381.058 84.1234 361.301 c 1
 84.0727 385.116 84.0302 401.491 84 407.068 c 1
 34 408 l 1
EndSplineSet
EndChar
StartChar: paragraph
Encoding: 182 182 69
Width: 722
Flags: HW
Fore
293.294 755.301 m 2
 249.094 760.401 l 2
 239.982 761.451 232.386 754.339 232.375 745.518 c 2
 232.36 733.63 l 1
 222.296 741.387 212.919 746.429 206.478 749.853 c 0
 136.021 787.31 108.336 802.887 30.729 772.602 c 0
 18.4912 767.828 17.962 750.763 29.8785 745.119 c 0
 91.2152 716.065 100.932 714.709 131.304 687.708 c 1
 131.109 529.485 l 1
 87.6738 539.825 52.8487 526.234 30.729 517.602 c 0
 18.4912 512.828 17.962 495.763 29.8785 490.119 c 0
 91.0052 461.164 100.851 459.705 130.99 432.982 c 1
 130.901 360.781 l 1
 102.858 335.397 92.636 333.478 29.8785 303.881 c 0
 17.9035 298.233 18.5459 281.272 30.729 276.398 c 0
 71.3239 260.16 100.983 257.24 130.783 264.802 c 1
 130.475 15.3183 l 2
 130.464 6.63978 136.796 0.299799 145.475 0.2998 c 2
 199.875 0.2998 l 2
 208.624 0.299801 214.986 6.74343 214.874 15.4922 c 2
 211.203 301.711 l 1
 218.757 305.931 225.594 310.356 231.844 315.147 c 1
 231.475 15.3184 l 2
 231.464 6.63965 237.796 0.299805 246.475 0.299805 c 2
 300.875 0.299805 l 2
 309.624 0.299805 315.986 6.74316 315.874 15.4922 c 2
 311.453 360.197 l 1
 506.163 409.61 568.574 410.269 694.665 503.549 c 0
 701.815 508.837 702.998 519.491 696.307 526.182 c 0
 620.017 602.471 539.55 616.969 432.691 644.014 c 0
 406.079 650.749 363.327 661.177 307.568 663.096 c 1
 306.574 740.592 l 2
 306.472 748.493 301.143 754.396 293.294 755.301 c 2
208.741 493.63 m 1
 207.171 616.072 l 1
 215.411 612.171 223.516 609.198 232.204 606.666 c 1
 232.046 478.687 l 1
 225.023 484.032 217.274 488.961 208.741 493.63 c 1
310.371 444.591 m 1
 308.466 593.121 l 1
 349.061 590.162 380.422 594.271 428.878 582.296 c 0
 495.9 565.733 542.393 557.267 588.488 518.449 c 1
 534.633 480.95 494.043 468.311 420.986 452.018 c 0
 378.058 442.444 350.17 446.357 310.371 444.591 c 1
EndSplineSet
EndChar
StartChar: ordmasculine
Encoding: 186 186 73
Width: 413
Flags: HW
HStem: 276 50<60 352.258> 487 30<274.25 275.25> 505 30<217.25 220.75>
Fore
60.7363 276 m 1x80
 60.7129 326 l 1
 73.5938 326.2 348.006 326.934 352.264 327 c 1
 352.287 276 l 1
 60.7363 276 l 1x80
EndSplineSet
Ref: 111 111 N 0.5 0 0 0.5 82.75 337.5
EndChar
StartChar: AE
Encoding: 198 198 85
Width: 980
Flags: W
Fore
733.729 423.669 m 1
 653.066 437.108 628.667 423.706 567.159 437.375 c 0
 489.408 454.653 484.52 577.966 558.829 596.835 c 0
 639.332 617.275 721.436 591.36 802.778 644.224 c 0
 823.273 657.544 824.639 675.479 842.899 692.375 c 0
 880.207 726.893 890.499 728.075 955.1 758.675 c 1
 878.6 789.275 848.755 766.455 791.899 736.575 c 0
 753.234 716.255 778 720 724.027 697.712 c 1
 672.246 700.463 623.65 718.027 562.399 702.475 c 0
 456.242 675.521 513.399 690 439.399 674 c 1
 430.976 629.569 424.524 585.03 420.361 539.993 c 1
 397.717 626.82 373.038 696.963 306 764 c 1
 224 654 201.039 578.675 172 448 c 0
 157.118 381.034 149.559 324.142 156.743 268.342 c 1
 116.635 256.977 88.368 232.658 67 192 c 0
 31.8467 125.111 5 90 41 0 c 1
 77 76 78.3906 88.1084 119 132 c 0
 139.12 153.746 164.464 161.119 187.485 170.542 c 1
 238.556 97.0578 398.044 90.7224 441.869 161.766 c 1
 445.35 144.692 449.189 127.442 453.399 110 c 1
 515.399 98 463.226 121.358 574.3 96.6748 c 0
 631.221 84.0254 679.578 77.5996 727.009 83.707 c 1
 793 72 757.34 75.5879 791.899 57.4248 c 0
 848.755 27.5449 878.6 4.72461 955.1 35.3252 c 1
 890.499 65.9248 880.207 67.1074 842.899 101.625 c 0
 824.415 118.728 823.112 133.262 803.339 144.537 c 0
 724.169 189.682 641.643 165.823 567.159 182.375 c 0
 489.408 199.653 484.52 322.966 558.829 341.835 c 0
 620.29 357.44 644 345 729.265 358.325 c 0
 735.302 359.269 728.487 422.465 733.729 423.669 c 1
307.8 677.6 m 1
 368 617.4 379.402 553.623 401.6 466.2 c 0
 404.246 455.778 406.537 445.801 408.488 436.153 c 1
 332.942 451.74 281.534 453.38 210.212 438.491 c 1
 229.543 535.48 249.007 598.732 307.8 677.6 c 1
416.17 381.604 m 0
 415.804 358.363 414.302 301.182 410 275.1 c 0
 397.826 201.295 246.266 205.062 218.2 274.4 c 0
 203.971 309.554 199.749 342.955 201.943 378.943 c 1
 282.106 362.78 335.631 362.609 416.17 381.604 c 0
EndSplineSet
EndChar
StartChar: Eth
Encoding: 208 208 95
Width: 639
Flags: HW
VStem: 102 66<60 756>
Fore
51.7666 374.034 m 1
 51.7334 425.034 l 1
 57.7077 425.099 78.2965 425.115 103.588 425.109 c 1
 104.64 667.123 l 1
 52.5576 685.222 42.8748 756.568 79.1318 769.955 c 0
 149.143 795.802 197.223 766.797 269.282 748.5 c 0
 394.172 716.789 485.281 465.5 571.282 379.5 c 1
 461.281 297.5 385.956 49.5391 255.282 20.5 c 0
 227.867 14.4082 202.142 9.54297 177.487 6.41406 c 1
 206.146 2.81348 78.0947 13.793 67.7178 46.375 c 1
 81.6826 98.7002 l 1
 89.3828 99.9824 96.1475 100.964 102.182 101.716 c 1
 103.366 374.034 l 1
 51.7666 374.034 l 1
172.876 374.034 m 1
 176.301 105.789 l 1
 185.97 106.951 197.812 108.973 213.683 112.5 c 0
 305.153 132.827 357.881 323.9 434.881 381.3 c 1
 374.683 441.5 310.904 637.901 223.481 660.1 c 0
 201.633 665.647 184.142 666.542 169.148 666.018 c 1
 172.225 425.063 l 1
 204.332 425.034 230.806 425.008 233.233 425.034 c 1
 233.267 374.034 l 1
 172.876 374.034 l 1
EndSplineSet
EndChar
StartChar: Oslash
Encoding: 216 216 103
Width: 743
Flags: HW
Fore
343.379 787.4 m 0
 212.65 783.98 120.673 711.65 72.1787 590.2 c 0
 10.5693 435.905 15.1904 310.637 94.7783 164.8 c 0
 105.391 145.352 117.165 128.024 130.039 112.651 c 1
 52.5 11.9316 l 1
 103.5 12.0684 l 1
 103.488 16.5809 123.873 43.4128 157.089 84.5992 c 1
 217.313 30.5164 296.316 9.20744 389.578 8.59961 c 0
 516.721 7.77051 630.196 43.0938 677.778 161 c 0
 742.923 322.426 712.157 451.237 630.179 604.8 c 0
 623.316 617.655 616.099 629.932 608.513 641.597 c 1
 661.257 712.099 696.049 765.158 696 783 c 1
 646 782.863 l 1
 573.206 688.306 l 1
 515.408 753.689 440.284 789.935 343.379 787.4 c 0
456.291 647.492 m 1
 476.01 636.894 493.733 622.846 509.639 605.736 c 1
 451.103 529.7 l 1
 438.88 551.788 480.185 610.3 456.291 647.492 c 1
380.466 125.476 m 1
 405.667 157.959 434.88 200.102 450.979 226 c 0
 470.555 257.492 473.029 280.971 474.979 318 c 0
 476.251 342.185 475.44 360.238 458.979 378 c 0
 445.622 392.41 425.414 385.445 410.064 391.571 c 1
 451.864 442.779 l 1
 453.868 434.99 456.974 429.713 464.979 432 c 0
 483.663 437.339 483.16 458.137 480.603 478.272 c 1
 544.649 558.602 l 1
 607.542 453.906 633.944 348.579 586.938 232.1 c 0
 552.89 147.728 467.53 123.969 380.466 125.476 c 1
345.811 127.64 m 1
 300.741 132.675 261.479 146.58 229.304 172.765 c 1
 318.025 279.918 l 1
 325.959 258.241 346.046 246.388 348.979 220 c 0
 352.942 184.331 352.142 156.616 345.811 127.64 c 1
234.661 631.272 m 1
 196.478 583.723 274.782 537.989 296.979 478 c 0
 303.228 461.111 295.344 442.935 310.979 434 c 0
 322.63 427.342 327.69 461.257 338.979 454 c 0
 353.456 444.694 361.746 432.813 365.159 418.063 c 1
 199.63 203.048 l 1
 192.124 212.583 185.185 223.13 178.838 234.76 c 0
 123.127 336.846 119.893 424.533 163.019 532.54 c 0
 179.689 574.29 203.701 607.748 234.661 631.272 c 1
415.722 483.741 m 1
 382.488 440.573 l 1
 381.447 463.444 392.451 484.815 415.722 483.741 c 1
EndSplineSet
EndChar
StartChar: Thorn
Encoding: 222 222 109
Width: 722
Flags: W
Fore
262.11 197.63 m 1
 273.033 199.511 359.89 223.566 420.354 237.032 c 0
 541.03 263.909 594 291 694.665 353.549 c 0
 702.258 358.268 702.639 369.851 696.307 376.182 c 0
 620.017 452.471 539.55 466.969 432.691 494.014 c 0
 400.384 502.19 344.848 515.17 279.128 513.204 c 1
 263.852 568.126 225.398 589.767 207.385 599.37 c 1
 205.574 740.592 l 2
 205.472 748.493 200.143 754.396 192.294 755.301 c 2
 148.094 760.401 l 2
 138.982 761.452 131.387 754.339 131.375 745.518 c 2
 131.238 634.443 l 1
 87.8015 644.857 52.8989 631.253 30.7285 622.602 c 0
 18.4903 617.828 17.9623 600.762 29.8789 595.119 c 0
 91.0904 566.124 100.892 564.715 131.119 537.873 c 1
 130.924 379.528 l 1
 87.5124 389.796 52.782 376.207 30.7285 367.602 c 0
 18.4903 362.828 17.9623 345.762 29.8789 340.119 c 0
 90.88 311.224 100.811 309.711 130.805 283.146 c 1
 130.716 210.613 l 1
 102.812 185.389 92.4971 183.413 29.8789 153.881 c 0
 17.9038 148.233 18.545 131.271 30.7285 126.398 c 0
 71.283 110.177 100.851 107.247 130.598 114.755 c 1
 130.475 15.3183 l 2
 130.464 6.63978 136.796 0.299799 145.475 0.2998 c 2
 199.875 0.2998 l 2
 208.624 0.299801 214.986 6.74343 214.874 15.4922 c 2
 213.113 152.792 l 1
 234.093 164.803 249.447 178.564 262.11 197.63 c 1
210.679 342.557 m 1
 209.106 465.172 l 1
 278.864 433.289 361.814 448.871 428.878 432.296 c 0
 495.9 415.733 542.393 407.267 588.488 368.449 c 1
 534.633 330.95 494.043 318.311 420.986 302.018 c 0
 364.486 289.417 333.805 300.285 266.012 290.265 c 1
 253.284 312.628 235.327 328.761 210.679 342.557 c 1
EndSplineSet
EndChar
StartChar: ae
Encoding: 230 230 117
Width: 921
Flags: HW
HStem: 3 79<258.06 324.56 686.06 752.56> 256 51<515.614 807.441> 425.651 79<235.775 302.275>
VStem: 474.614 51<12 514.686>
Fore
910.553 361.484 m 1
 879.367 377.211 843.541 386.438 804.9 387.379 c 0
 733.867 387.379 670.74 356.531 629.551 306.267 c 1
 714.793 306.558 820.553 306.952 838.09 307 c 1
 838.227 256 l 1
 598.744 256 l 1
 592.934 242.764 588.359 228.775 585.164 214.148 c 1
 618.295 137.81 691.914 84.4111 783.174 82 c 0
 829.947 82 872.764 95.7598 907.781 122.352 c 1
 871.443 50.291 800.398 3 716.674 3 c 1
 631.161 5.25956 561.137 52.2872 525.399 121.006 c 1
 525.51 62.6362 525.593 19.5142 525.613 12.0684 c 1
 474.614 11.9316 l 1
 474.614 143.562 l 1
 464.403 129.439 452.668 116.623 439.644 105.304 c 1
 401.212 42.9248 334.989 3 258.061 3 c 1
 132.994 6.30469 41.0605 105.369 41.0605 228 c 1
 42.8086 299.807 73.1709 361.049 120.691 402.348 c 1
 159.123 464.727 225.346 504.651 302.275 504.651 c 0
 374.585 502.74 435.82 468.818 474.614 416.839 c 1
 474.613 514.932 l 1
 524.613 515.068 l 1
 524.688 487.868 524.835 415.396 524.993 333.6 c 1
 541.52 366.134 566.24 393.303 592.068 412.651 c 2
 591.303 411.12 l 2
 628.791 438.253 675.344 453.879 725.9 453.879 c 0
 803.945 451.979 869.51 416.277 910.553 361.484 c 1
125.547 395.229 m 1
 114.653 368.373 108.331 338.629 107.561 307 c 0
 107.561 184.369 199.494 85.3047 324.561 82 c 0
 365.112 81.999 402.689 92.3418 434.788 112.422 c 1
 445.682 139.277 452.004 169.022 452.775 200.651 c 0
 452.775 323.282 360.842 422.347 235.775 425.651 c 0
 195.223 425.652 157.646 415.31 125.547 395.229 c 1
EndSplineSet
EndChar
StartChar: ccedilla
Encoding: 231 231 118
Width: 467
Flags: H
HStem: 3 79<258.446 324.946>
Fore
128.712 -209.416 m 1
 156.23 -229.963 195.406 -235.83 238.292 -221.701 c 0
 349.127 -182.47 382.784 -33.3822 284.825 4.59283 c 1
 356.958 13.3899 417.099 57.9916 449.554 122.352 c 1
 414.537 95.7598 371.721 82 324.946 82 c 0
 199.88 85.3047 107.946 184.369 107.946 307 c 0
 108.888 345.64 118.114 381.466 133.841 412.651 c 1
 79.0479 371.608 43.3467 306.044 41.4463 228 c 1
 41.4463 105.369 133.38 6.30469 258.446 3 c 0
 261.509 3 264.554 3.06326 267.582 3.18869 c 1
 280.197 -9.38727 288.503 -26.1057 292.028 -45.9746 c 0
 301.762 -111.66 256.032 -178.663 188.921 -202.418 c 0
 167.688 -209.413 147.23 -211.555 128.712 -209.416 c 1
EndSplineSet
EndChar
StartChar: eth
Encoding: 240 240 127
Width: 555
Flags: HW
HStem: 3 79<222.723 289.223> 425.651 79<200.438 266.938> 566 51<364 549.195>
VStem: 439.277 51<12 747.572>
Fore
90.21 395.229 m 1
 122.309 415.31 159.886 425.652 200.438 425.651 c 0
 325.504 422.347 417.438 323.282 417.438 200.651 c 0
 416.667 169.022 410.346 139.277 399.451 112.422 c 1
 367.353 92.3418 329.775 81.999 289.223 82 c 0
 164.156 85.3047 72.2227 184.369 72.2227 307 c 0
 72.9941 338.629 79.3164 368.373 90.21 395.229 c 1
439.277 416.839 m 1
 400.483 468.818 339.248 502.74 266.938 504.651 c 0
 190.009 504.651 123.786 464.727 85.3545 402.348 c 1
 37.834 361.049 7.47168 299.807 5.72266 228 c 1
 5.72266 105.369 97.6562 6.30469 222.723 3 c 1
 299.652 3 365.875 42.9248 404.307 105.304 c 1
 417.331 116.623 429.066 129.439 439.277 143.562 c 1
 439.277 11.9316 l 1
 490.277 12.0684 l 1
 490.23 29.2327 489.851 351.931 489.562 566.324 c 1
 549.277 566 l 1
 549.244 617 l 1
 546.874 616.974 521.126 616.999 489.492 617.169 c 1
 489.401 681.839 489.325 730.573 489.277 748.068 c 1
 439.277 747.932 l 1
 439.277 617.065 l 1
 404.152 617.086 372.349 617 364.744 617 c 1
 364.777 567 l 1
 439.277 566.596 l 1
 439.277 416.839 l 1
EndSplineSet
EndChar
StartChar: oslash
Encoding: 248 248 135
Width: 523
Flags: HW
HStem: 299 60<383 385> 335 60<269 276>
Fore
444 591 m 1
 494 591.137 l 1
 494.053 571.628 466.638 523.486 426.313 462.809 c 1
 479.707 415.234 512.135 345.273 512.135 267 c 1
 508.538 119.253 400.054 7.125 261.5 7.125 c 0
 210.488 8.47273 164.249 23.6137 125.773 48.8755 c 1
 111.711 28.7475 103.491 15.5978 103.5 12.0684 c 1
 52.5 11.9316 l 1
 94.1276 73.503 l 1
 42.2587 121.018 10.8652 189.985 10.8652 267 c 1
 14.4619 414.748 122.946 526.875 261.5 526.875 c 0
 304.932 525.728 344.904 514.581 379.571 495.703 c 1
 444 591 l 1
187.556 365 m 0
 183.233 386.613 201.867 404.93 219.5 404.93 c 0
 232.262 404.93 243.284 395.56 248.399 382.025 c 1
 252.931 389.802 261.357 395.001 269.5 395 c 0
 281.884 395 292.088 383.255 293.365 368.196 c 1
 341.876 439.948 l 1
 318.482 451.654 291.542 458.706 261.5 459.5 c 0
 171.672 459.5 80.7676 388.904 77.7998 267 c 0
 77.7998 216.348 97.172 166.329 132.302 129.966 c 1
 197.809 226.858 l 1
 192.186 232.375 186.089 238.161 179.848 244.811 c 1
 182.58 247.38 l 1
 199.26 229.004 l 1
 270.959 335.055 l 2
 270.476 335.018 269.99 335 269.5 335 c 0
 260.781 335 254.011 343.661 249.829 352.436 c 1
 245.613 336.544 233.622 325.07 219.5 325.07 c 0
 201.866 325.07 190.218 351.69 187.556 365 c 0
359.5 329 m 0
 359.5 345.56 370.252 359 383.5 359 c 0
 396.748 359 407.5 345.56 407.5 329 c 0
 407.5 312.439 396.748 299 383.5 299 c 0
 370.252 299 359.5 312.439 359.5 329 c 0
274.247 189.313 m 1
 330.36 201.289 318.521 200.463 350.992 213.991 c 1
 352.434 210.53 l 1
 330.842 194.384 314.938 196.755 276.041 186.207 c 1
 277.213 183.879 278.136 181.336 278.763 178.638 c 1
 326.262 175.83 324.487 179.058 353.492 182.937 c 1
 353.99 179.22 l 1
 339.753 177.315 330.266 171.219 315.16 174.033 c 0
 304.218 176.072 292.532 175.691 279.342 175.542 c 1
 279.586 173.827 279.713 172.062 279.713 170.261 c 0
 279.713 164.376 278.355 158.886 276.01 154.252 c 1
 334.029 135.695 317.882 141.644 356.855 136.595 c 1
 356.375 132.876 l 1
 342.13 134.722 331.389 131.288 317.525 137.916 c 0
 305.142 143.837 290.715 146.497 274.151 151.062 c 1
 271.249 146.713 267.381 143.404 262.96 141.654 c 1
 314.833 108.345 299.812 118.722 336.715 103.524 c 1
 335.287 100.057 l 1
 322.006 105.526 310.742 104.99 299.066 114.98 c 0
 288.049 124.408 273.887 130.911 258.048 140.401 c 0
 257.279 140.309 256.501 140.261 255.713 140.261 c 0
 255.339 140.261 254.967 140.271 254.596 140.302 c 0
 252.748 105.761 256.883 96.0928 259.527 76.3184 c 1
 255.811 75.8203 l 1
 253.906 90.0576 247.81 99.5449 250.624 114.65 c 0
 252.139 122.776 252.318 131.313 252.25 140.571 c 1
 247.459 141.438 243.125 144.075 239.688 147.934 c 1
 226.668 108.926 229.132 109.124 225.431 78.6689 c 1
 236.889 76.2607 248.923 74.8311 261.5 74.5 c 0
 351.328 74.5 442.232 145.096 445.2 267 c 0
 445.2 318.936 424.833 370.207 387.996 406.772 c 1
 234.459 196.464 l 1
 239.757 192.665 l 1
 243.999 197.389 249.589 200.261 255.713 200.261 c 0
 256.645 200.261 257.564 200.194 258.468 200.065 c 0
 312.617 250.749 287.04 223.619 319.62 266.265 c 1
 322.6 263.988 l 1
 317.816 252.832 311.482 241.555 298.811 232.863 c 0
 286.584 224.478 276.458 212.122 262.737 198.953 c 1
 263.892 198.512 265.01 197.964 266.083 197.319 c 1
 326.487 229.098 300.885 214.18 339.585 244.005 c 1
 341.873 241.034 l 1
 334.365 231.497 325.328 222.243 310.839 217.128 c 0
 297.471 212.408 285.019 203.686 269.387 194.914 c 1
 271.206 193.334 272.842 191.447 274.247 189.313 c 1
230.754 191.498 m 1
 165.041 103.172 l 1
 181.818 92.4712 200.781 84.329 221.725 79.4883 c 1
 222.968 92.6133 220.241 102.93 226.507 116.036 c 0
 231.389 126.244 234.053 137.842 237.396 150.882 c 1
 233.852 156.11 231.713 162.875 231.713 170.261 c 0
 231.713 176.88 233.431 183.001 236.339 187.965 c 1
 234.451 189.043 232.585 190.213 230.754 191.498 c 1
EndSplineSet
EndChar
StartChar: thorn
Encoding: 254 254 141
Width: 555
Flags: HW
HStem: 162.417 79<264.785 331.285> 585.068 79<242.5 309>
Fore
92.4463 250.23 m 1
 131.24 198.25 192.475 164.328 264.785 162.417 c 0
 341.714 162.417 407.937 202.342 446.369 264.721 c 1
 493.889 306.019 524.251 367.262 526 439.068 c 1
 526 561.699 434.066 660.764 309 664.068 c 1
 232.071 664.068 165.848 624.144 127.416 561.764 c 1
 114.392 550.446 102.657 537.629 92.4463 523.506 c 1
 92.4463 739.137 l 1
 41.4463 739 l 1
 41.5127 714.673 42.2461 76.6006 42.4463 3 c 1
 92.4463 3.13672 l 1
 92.4463 250.23 l 1
441.513 271.839 m 1
 409.414 251.759 371.837 241.416 331.285 241.417 c 0
 206.219 244.722 114.285 343.786 114.285 466.417 c 0
 115.056 498.046 121.378 527.791 132.272 554.646 c 1
 164.371 574.727 201.948 585.069 242.5 585.068 c 0
 367.566 581.764 459.5 482.699 459.5 360.068 c 0
 458.729 328.439 452.407 298.695 441.513 271.839 c 1
EndSplineSet
EndChar
StartChar: Aogonek
Encoding: 260 260 147
Width: 633
Flags: H
Fore
716.234 -182.416 m 1
 688.716 -202.963 649.54 -208.83 606.654 -194.701 c 0
 476.018 -148.461 468.423 24.3996 586.5 38.0156 c 1
 569.111 25.2451 557.242 5.39436 552.918 -18.9746 c 0
 543.185 -84.6602 588.914 -151.663 656.025 -175.418 c 0
 677.258 -182.413 697.716 -184.555 716.234 -182.416 c 1
416.17 381.604 m 1
 418.719 346.89 416.375 313.75 410 275.1 c 0
 397.826 201.295 246.266 205.062 218.2 274.4 c 0
 203.971 309.555 199.749 342.955 201.943 378.943 c 1
 282.105 362.779 335.632 362.609 416.17 381.604 c 1
307.8 677.6 m 1
 368 617.4 379.402 553.623 401.6 466.2 c 0
 404.246 455.778 406.537 445.801 408.488 436.153 c 1
 332.941 451.74 281.534 453.38 210.212 438.491 c 1
 229.542 535.479 249.008 598.732 307.8 677.6 c 1
306 764 m 1
 224 654 201.039 578.675 172 448 c 0
 157.118 381.034 149.559 324.143 156.743 268.342 c 1
 116.635 256.977 88.3682 232.658 67 192 c 0
 31.8467 125.111 5 90 41 0 c 1
 77 76 78.3906 88.1084 119 132 c 0
 139.12 153.746 164.464 161.119 187.484 170.542 c 1
 240.497 94.2656 410.32 90.3379 446.352 170.2 c 1
 469.148 160.938 494.123 153.482 514 132 c 0
 551.602 91.3593 555.558 78.8261 592 0 c 1
 628 90 601.153 125.111 566 192 c 0
 542.095 237.486 509.555 262.521 461.457 271.85 c 1
 464.694 332.769 458.299 389.941 440 462 c 0
 408.289 586.891 392 678 306 764 c 1
EndSplineSet
EndChar
StartChar: eogonek
Encoding: 281 281 168
Width: 555
Flags: H
Fore
368.181 -209.416 m 4
 349.662 -211.555 329.204 -209.413 307.972 -202.418 c 4
 240.86 -178.663 195.131 -111.66 204.864 -45.9746 c 4
 209.181 -21.6484 220.662 -2.04492 238.446 11.0156 c 4
 195.657 6.0752 163.22 -21.7129 155.493 -65.2578 c 5
 145.76 -130.943 191.489 -197.946 258.601 -221.701 c 5
 301.486 -235.83 340.662 -229.963 368.181 -209.416 c 4
EndSplineSet
Ref: 101 101 N 1 0 0 1 0 0
EndChar
StartChar: Hbar
Encoding: 294 294 181
Width: 553
Flags: HW
Fore
71.7666 498.034 m 1
 71.7334 548.034 l 1
 74.6055 548.065 86.0694 548.11 103.396 548.164 c 1
 95.3657 577.32 32.1364 783.769 121.468 781.008 c 0
 130.155 780.74 155.248 778.859 161.737 743.883 c 0
 177.462 659.12 156.592 644.342 182.474 548.371 c 1
 242.286 548.516 315.226 548.676 372.32 548.804 c 1
 399.243 638.184 378.799 699.607 400.3 753.13 c 0
 417.224 795.197 471.072 781.397 475.404 745.385 c 0
 485.123 664.601 469.635 617.826 448.523 548.98 c 1
 459.72 549.008 466.455 549.028 467.233 549.034 c 1
 467.267 498.034 l 1
 434.163 498.034 l 1
 387.633 308.044 478.695 199.044 478.452 75.4258 c 0
 478.423 60.2031 479.345 47.2275 475.404 28.6152 c 0
 466.037 -15.617 408.183 -18.1471 397.37 30.2324 c 0
 379.876 108.503 395.237 150.416 374.354 218.445 c 0
 350.664 295.618 346.603 308.098 336.791 329.382 c 1
 312.091 350.465 242.753 337.645 219.535 327.204 c 1
 208.42 305.345 196.367 279.162 178.055 209.254 c 0
 159.348 137.839 176.359 102.476 161.737 30.1172 c 0
 160.126 22.1455 153.648 -8.50391 121.468 -7.00781 c 0
 94.9199 -5.77344 83.0918 8.72656 80.1445 24.082 c 0
 49.1324 185.659 176.154 289.366 117.776 498.034 c 1
 71.7666 498.034 l 1
356.778 498.034 m 1
 197.991 498.034 l 1
 203.895 481.258 211.004 463.595 219.5 446.836 c 1
 248.681 433 310.042 418.979 336.617 444.284 c 1
 343.969 460.477 347.541 468.778 356.778 498.034 c 1
EndSplineSet
EndChar
StartChar: hbar
Encoding: 295 295 182
Width: 491
Flags: HW
Fore
51.7666 474.034 m 1
 51.7334 524.034 l 1
 55.1833 524.072 71.0299 524.128 94.399 524.194 c 1
 94.2681 628.751 94.1674 708.489 94 712.652 c 1
 145 711.721 l 1
 145 524.328 l 1
 260.819 524.616 442.987 524.988 447.233 525.034 c 1
 447.267 474.034 l 1
 145 474.034 l 1
 145 392.015 l 1
 171.636 404.092 201.206 410.721 232.553 410.721 c 0
 357.619 407.416 449.553 308.352 449.553 185.721 c 1
 447.652 107.676 411.951 42.1113 357.158 1.06836 c 1
 372.885 32.2539 382.111 68.0801 383.053 106.721 c 0
 383.053 229.352 291.119 328.416 166.053 331.721 c 0
 158.939 331.721 151.917 331.402 145 330.77 c 1
 145 5.7207 l 1
 95 6.65234 l 1
 94.9092 23.2861 94.71 166.643 94.5117 319.888 c 1
 75.415 313.174 57.6006 303.637 41.4453 291.369 c 1
 54.7969 317.846 72.833 340.978 94.4619 359.649 c 1
 94.3174 474.034 l 1
 51.7666 474.034 l 1
EndSplineSet
EndChar
StartChar: dotlessi
Encoding: 305 305 192
Width: 273
Flags: W
HStem: 10 50<69 112>
VStem: 111 50<60 357.025>
Fore
111 358 m 1
 161 357.068 l 1
 161.161 327.528 161.665 139.961 161.893 60.739 c 1
 187.759 60.9099 209.449 61.0516 211.967 61 c 1
 212 10 l 1
 69.5 10 l 1
 69.4668 60 l 1
 75.3748 60.0643 91.5538 60.1835 111 60.318 c 1
 111 358 l 1
EndSplineSet
EndChar
StartChar: kgreenlandic
Encoding: 312 312 199
Width: 472
Flags: HW
Fore
348.501 551.863 m 1
 398.501 552 l 1
 398.614 510.273 315.972 454.295 244.385 409.204 c 1
 358.434 395.892 440.053 301.268 440.054 185.721 c 1
 438.153 107.676 402.452 42.1113 347.659 1.06836 c 1
 363.386 32.2539 372.612 68.0801 373.554 106.721 c 0
 373.554 229.352 281.62 328.416 156.554 331.721 c 0
 149.44 331.721 142.418 331.402 135.501 330.769 c 1
 135.501 5.7207 l 1
 85.501 6.65234 l 1
 85.3924 26.5136 85.1291 180.443 84.8992 319.848 c 1
 65.845 313.135 48.069 303.612 31.9463 291.369 c 1
 45.2708 317.793 63.2619 340.886 84.8338 359.538 c 1
 84.6661 461.86 84.5279 547.685 84.501 552.652 c 1
 135.501 551.721 l 1
 135.501 392.015 l 1
 147.365 397.394 159.811 401.692 172.738 404.806 c 1
 348.501 551.863 l 1
EndSplineSet
EndChar
StartChar: Lslash
Encoding: 321 321 208
Width: 728
Flags: HW
Fore
235.234 143.574 m 1
 266.058 142.773 357.206 109.899 441.987 117.527 c 1
 454.364 84.5586 476.371 62.3232 510.37 44.1465 c 0
 581.648 6.04142 609.04 -8.68175 686.12 21.3984 c 0
 698.357 26.1734 698.888 43.2373 686.971 48.8809 c 0
 621.156 80.0557 614.772 79.3389 578.535 112.635 c 0
 560.398 129.3 563.144 141.424 536.218 157.567 c 0
 456.923 205.112 371.503 180.896 295.862 197.018 c 0
 235.818 209.816 263.848 368.97 263.848 467.781 c 1
 347.223 588.683 428.046 712.422 427.949 748.068 c 1
 377.949 747.932 l 1
 267.01 572.269 l 1
 276.024 640.817 303.859 743.763 284.895 772.467 c 0
 267.028 799.51 230.658 777.443 181.279 766.188 c 0
 175.12 764.782 170.889 760.526 169.712 754.319 c 0
 144.877 623.316 140.841 494.869 148.809 385.109 c 1
 32.4492 200.863 l 1
 83.4492 201 l 1
 83.4296 208.187 113.506 252.45 155.892 313.152 c 1
 161.757 265.955 170.705 213.283 184.268 156.48 c 0
 188.232 139.875 225.31 139.139 235.234 143.574 c 1
EndSplineSet
EndChar
StartChar: lslash
Encoding: 322 322 209
Width: 345
Flags: HW
Fore
141.214 293.1 m 1
 141.214 379.393 l 1
 34.7246 200.863 l 1
 85.7246 201 l 1
 85.7024 209.144 109.293 245.458 141.214 293.1 c 1
141.214 81.3574 m 1
 141.214 662.628 l 1
 131.406 667.508 121.445 669.719 111.785 669.719 c 0
 76.0884 669.719 44.4948 639.532 39.9072 602.259 c 1
 37.3501 610.88 36.07 619.738 36.07 628.515 c 0
 36.07 673.662 69.3389 707.846 108.534 707.846 c 0
 126.196 707.846 143.815 700.751 158.195 686.926 c 1
 191.214 686.962 l 1
 191.401 659.467 191.918 237.487 192.161 81.5215 c 1
 217.679 81.6904 238.955 81.8291 241.447 82.0342 c 1
 241.48 31.0342 l 1
 98.9805 31.0342 l 1
 98.9473 81.0342 l 1
 104.93 81.0996 121.441 81.2207 141.214 81.3574 c 1
191.756 368.435 m 1
 246.452 450.564 303.234 539.836 310.275 579.137 c 1
 260.275 579 l 1
 191.619 463.897 l 1
 191.756 368.435 l 1
EndSplineSet
EndChar
StartChar: napostrophe
Encoding: 329 329 216
Width: 611
Flags: HW
Fore
93.0508 499.5 m 1
 102.051 484.5 l 1
 106.789 488.449 l 1
 112.299 481.663 119.547 477.078 127.619 475.838 c 1
 129.051 472.5 l 1
 147.051 475.5 l 1
 146.154 479.088 l 1
 153.615 483.068 159.787 490.109 163.654 498.947 c 1
 223.934 433.216 180.6 326.936 92.3965 314.163 c 1
 119.343 305.323 149.423 306.676 177.436 319.685 c 1
 171.169 310.756 165.503 301.298 160.496 291.369 c 1
 176.568 303.575 194.285 313.077 213.273 319.786 c 1
 213.525 207.854 213.914 31.8965 214.051 6.65234 c 1
 264.051 5.7207 l 1
 264.051 330.769 l 1
 270.967 331.402 277.99 331.721 285.104 331.721 c 0
 410.17 328.416 502.104 229.352 502.104 106.721 c 0
 501.162 68.0801 491.936 32.2539 476.209 1.06836 c 1
 531.002 42.1113 566.703 107.676 568.604 185.721 c 1
 568.604 308.352 476.67 407.416 351.604 410.721 c 0
 320.256 410.721 290.686 404.091 264.051 392.015 c 1
 264.051 411.721 l 1
 242.8 412.109 l 1
 246.045 457.028 221.502 502.194 178.008 519.965 c 2
 178.051 520 l 1
 163.051 556 l 1
 157.691 552.076 l 1
 152.816 558.262 146.521 562.692 139.471 564.542 c 1
 140.051 571.5 l 1
 117.051 568.5 l 1
 112.445 550.083 112.207 564.638 101.971 545.223 c 1
 105.785 539.184 108.051 531.657 108.051 523.5 c 0
 108.051 510.725 104.65 511.1 93.0508 499.5 c 1
EndSplineSet
LCarets: 0 65535 '    ' 1 0 
Ligature: 0 0 'liga' afii57929 n
EndChar
StartChar: Eng
Encoding: 330 330 217
Width: 645
Flags: HW
Fore
329.449 -9.67404 m 1
 307.021 -44.3567 252.323 -88.3858 187.719 -80.9248 c 1
 215.237 -101.472 254.413 -107.339 297.299 -93.21 c 0
 364.41 -69.4551 410.14 -2.45215 400.406 63.2334 c 0
 399.415 68.8204 398.017 74.1479 396.242 79.2013 c 1
 404.33 92.3674 413.828 104.221 430.01 121.813 c 0
 450.836 144.453 457.915 185.127 471.145 204.212 c 2
 512.656 266.042 l 2
 513.918 267.923 514.624 269.702 514.996 271.938 c 0
 529.379 358.323 521.398 428.97 539.643 512.746 c 0
 561.458 612.916 546.17 653.975 603.026 732.035 c 0
 607.903 738.73 605.937 750.872 603.429 760.261 c 0
 590.083 810.215 533.249 795.97 511.988 760.463 c 0
 467.354 685.922 487.399 668.804 459.357 540.254 c 0
 456.812 528.592 454.243 503.803 451.843 476.377 c 1
 420.352 601.754 403.145 686.812 316.607 774.607 c 0
 309.934 781.375 299.251 780.044 293.974 772.965 c 0
 212.791 664.062 187.271 585.455 157.357 451.254 c 0
 150.323 419.704 134.1 347.146 140.528 278.877 c 1
 101.877 264.888 75.3633 239.515 53.7217 198.978 c 0
 9.09171 115.378 -7.96793 83.9542 27.0732 -5.57129 c 0
 31.8603 -17.8016 48.9086 -18.3456 54.5557 -6.4209 c 0
 90.835 70.168 90.624 78.9609 130.01 121.813 c 0
 143.38 136.359 167.549 145.84 182.514 171.112 c 0
 237.794 264.457 209.503 364.868 228.643 453.146 c 0
 248.241 543.532 263.619 588.997 309.301 654.035 c 1
 357.68 598.51 368.257 536.756 387.061 462.508 c 0
 404.888 392.12 390.199 360.596 408.227 262.489 c 1
 392.844 252.03 372.181 233.613 353.722 198.978 c 0
 342.01 177.005 330.884 157.99 322.649 138.787 c 1
 320.935 139.065 319.202 139.305 317.453 139.507 c 1
 318.87 138.467 320.246 137.385 321.582 136.261 c 1
 305.839 98.3173 301.755 59.1028 327.073 -5.57129 c 0
 327.683 -7.12884 328.491 -8.49683 329.449 -9.67404 c 1
EndSplineSet
EndChar
StartChar: eng
Encoding: 331 331 218
Width: 467
Flags: HW
Fore
228 -153 m 1
 348 -123 447.652 107.676 449.553 185.721 c 1
 449.553 308.352 357.619 407.416 232.553 410.721 c 0
 201.206 410.721 171.636 404.091 145 392.015 c 1
 145 411.721 l 1
 94 412.652 l 1
 94.015 409.907 94.0639 389.596 94.1334 359.365 c 1
 72.6499 340.743 54.7285 317.711 41.4453 291.369 c 1
 57.5181 303.575 75.234 313.077 94.2219 319.787 c 1
 94.4734 207.855 94.8614 31.8979 95 6.65234 c 1
 145 5.7207 l 1
 145 330.769 l 1
 151.917 331.402 158.939 331.721 166.053 331.721 c 0
 291.119 328.416 383.053 229.352 383.053 106.721 c 0
 382.111 68.0801 330 -27 228 -153 c 1
EndSplineSet
EndChar
StartChar: OE
Encoding: 338 338 225
Width: 1162
Flags: HW
Fore
926.729 423.669 m 1
 846.066 437.107 821.667 423.706 760.159 437.375 c 0
 682.408 454.653 677.52 577.966 751.829 596.835 c 0
 832.332 617.275 914.436 591.36 995.778 644.224 c 0
 1016.27 657.544 1017.64 675.479 1035.9 692.375 c 0
 1073.21 726.893 1083.5 728.075 1148.1 758.675 c 1
 1071.6 789.275 1041.75 766.455 984.899 736.575 c 0
 946.234 716.255 971 720 917.027 697.712 c 1
 865.246 700.463 816.65 718.027 755.399 702.475 c 0
 649.242 675.521 706.399 690 632.399 674 c 1
 628.868 655.374 625.684 636.729 622.869 618.037 c 1
 560.637 726.963 470.851 790.735 343.379 787.4 c 0
 212.65 783.98 120.673 711.65 72.1787 590.2 c 0
 10.5693 435.905 15.1904 310.637 94.7783 164.8 c 0
 157.108 50.5869 259.467 9.44727 389.578 8.59961 c 0
 495.871 7.90647 592.611 32.4807 649.284 109.452 c 1
 706.774 98.7338 658 120.964 767.3 96.6748 c 0
 824.221 84.0254 872.578 77.5996 920.009 83.707 c 1
 986 72 950.34 75.5879 984.899 57.4248 c 0
 1041.75 27.5449 1071.6 4.72461 1148.1 35.3252 c 1
 1083.5 65.9248 1073.21 67.1074 1035.9 101.625 c 0
 1017.42 118.728 1016.11 133.262 996.339 144.537 c 0
 882.064 209.7 733.495 130.389 702.576 239.311 c 1
 708.345 264.827 711.626 289.695 712.629 314.185 c 1
 747.345 366.003 838.313 342.017 922.265 358.325 c 0
 928.263 359.49 921.487 422.465 926.729 423.669 c 1
345.812 127.641 m 1
 273.392 135.73 215.969 166.723 178.838 234.76 c 0
 123.127 336.846 119.893 424.533 163.019 532.54 c 0
 179.689 574.29 203.701 607.748 234.66 631.272 c 1
 196.478 583.723 274.781 537.989 296.979 478 c 0
 303.228 461.111 295.344 442.935 310.979 434 c 0
 322.63 427.342 327.69 461.257 338.979 454 c 0
 359.519 440.796 367.604 422.41 366.979 398 c 0
 366.606 383.496 343.467 388.978 336.979 376 c 0
 322.171 346.385 312.439 327.014 314.979 294 c 0
 317.414 262.333 345.471 251.566 348.979 220 c 0
 352.941 184.332 352.142 156.617 345.812 127.641 c 1
456.291 647.492 m 1
 496.542 625.858 528.479 589.853 553.619 542.76 c 0
 615.681 426.504 607.326 386.401 611.058 333.886 c 1
 609.091 301.397 601.383 267.894 586.938 232.1 c 0
 552.892 147.735 467.529 123.961 380.466 125.477 c 1
 405.667 157.959 434.88 200.102 450.979 226 c 0
 470.555 257.492 473.029 280.971 474.979 318 c 0
 476.251 342.185 475.44 360.238 458.979 378 c 0
 442.036 396.279 414.07 380.165 398.979 400 c 0
 382.28 421.946 376.9 445.208 388.979 470 c 0
 397.29 487.062 420.004 486.487 436.979 478 c 0
 455.764 468.607 444.784 426.23 464.979 432 c 0
 487.353 438.393 482.213 466.956 478.979 490 c 0
 475.535 514.536 442.969 521.963 448.979 546 c 0
 460.246 591.07 471.514 623.797 456.291 647.492 c 1
EndSplineSet
EndChar
StartChar: oe
Encoding: 339 339 226
Width: 877
Flags: HW
Fore
882.844 361.484 m 1
 851.658 377.211 815.832 386.438 777.191 387.379 c 0
 706.157 387.379 643.03 356.531 601.842 306.267 c 1
 687.083 306.558 792.844 306.952 810.381 307 c 1
 810.518 256 l 1
 571.034 256 l 1
 565.225 242.764 560.65 228.775 557.454 214.148 c 1
 590.586 137.81 664.205 84.4111 755.465 82 c 0
 802.238 82 845.055 95.7598 880.072 122.352 c 1
 843.734 50.291 772.689 3 688.965 3 c 1
 594.781 5.48865 519.388 62.2836 487.897 142.553 c 1
 445.565 60.6876 364.166 7.12466 268.404 7.125 c 1
 123.953 10.9414 17.7695 125.361 17.7695 267 c 1
 21.3662 414.748 129.851 526.875 268.404 526.875 c 1
 383.351 523.838 474.066 450.766 506.328 349.674 c 1
 521.085 373.47 542.235 396.08 564.359 412.651 c 2
 563.594 411.12 l 2
 601.082 438.253 647.634 453.879 698.191 453.879 c 0
 776.236 451.979 841.801 416.277 882.844 361.484 c 1
194.46 365 m 0
 190.138 386.613 208.771 404.93 226.404 404.93 c 0
 239.166 404.93 250.188 395.56 255.304 382.025 c 1
 259.835 389.802 268.262 395.001 276.404 395 c 0
 289.652 395 300.404 381.56 300.404 365 c 0
 300.404 348.439 289.652 335 276.404 335 c 0
 267.686 335 260.915 343.661 256.733 352.436 c 1
 252.518 336.544 240.526 325.07 226.404 325.07 c 0
 208.771 325.07 197.122 351.69 194.46 365 c 0
366.404 329 m 0
 366.404 345.56 377.156 359 390.404 359 c 0
 403.652 359 414.404 345.56 414.404 329 c 0
 414.404 312.439 403.652 299 390.404 299 c 0
 377.156 299 366.404 312.439 366.404 329 c 0
281.151 189.313 m 1
 337.265 201.289 325.425 200.463 357.896 213.991 c 1
 359.338 210.53 l 1
 337.746 194.384 321.843 196.755 282.945 186.207 c 1
 284.117 183.879 285.04 181.336 285.667 178.638 c 1
 333.166 175.83 331.392 179.058 360.396 182.937 c 1
 360.895 179.22 l 1
 346.657 177.315 337.17 171.219 322.064 174.033 c 0
 311.122 176.072 299.437 175.691 286.246 175.542 c 1
 286.49 173.827 286.617 172.062 286.617 170.261 c 0
 286.617 164.376 285.26 158.886 282.914 154.252 c 1
 340.934 135.695 324.786 141.644 363.76 136.595 c 1
 363.279 132.876 l 1
 349.034 134.722 338.293 131.288 324.43 137.916 c 0
 312.046 143.837 297.619 146.497 281.056 151.062 c 1
 278.153 146.713 274.285 143.404 269.864 141.654 c 1
 321.737 108.345 306.717 118.722 343.619 103.524 c 1
 342.191 100.057 l 1
 328.91 105.526 317.646 104.99 305.971 114.98 c 0
 294.953 124.408 280.791 130.911 264.952 140.401 c 0
 264.184 140.309 263.405 140.261 262.617 140.261 c 0
 262.243 140.261 261.871 140.271 261.5 140.302 c 0
 259.652 105.761 263.787 96.0928 266.432 76.3184 c 1
 262.715 75.8203 l 1
 260.811 90.0576 254.714 99.5449 257.528 114.65 c 0
 259.043 122.776 259.223 131.313 259.154 140.571 c 1
 254.363 141.438 250.029 144.075 246.592 147.934 c 1
 233.572 108.926 236.036 109.124 232.335 78.6689 c 1
 243.793 76.2607 255.827 74.8311 268.404 74.5 c 0
 358.232 74.5 449.137 145.096 452.104 267 c 1
 452.104 362.873 382.701 456.48 268.404 459.5 c 1
 178.576 459.5 87.6719 388.904 84.7041 267 c 1
 84.7041 182.82 138.21 100.388 228.629 79.4883 c 1
 229.872 92.6133 227.146 102.93 233.411 116.036 c 0
 238.293 126.244 240.957 137.842 244.301 150.882 c 1
 240.756 156.11 238.617 162.875 238.617 170.261 c 0
 238.617 176.88 240.335 183.001 243.243 187.965 c 1
 235.779 192.229 228.658 197.92 222.736 206.552 c 0
 213.912 219.419 200.69 229.959 186.752 244.811 c 1
 189.484 247.38 l 1
 215.106 220.079 216.908 213.657 246.661 192.665 c 1
 250.903 197.389 256.493 200.261 262.617 200.261 c 0
 263.549 200.261 264.469 200.194 265.372 200.065 c 0
 319.521 250.749 293.944 223.619 326.524 266.265 c 1
 329.504 263.988 l 1
 324.721 252.832 318.387 241.555 305.715 232.863 c 0
 293.488 224.478 283.362 212.122 269.642 198.953 c 1
 270.796 198.512 271.914 197.964 272.987 197.319 c 1
 333.392 229.098 307.789 214.18 346.489 244.005 c 1
 348.777 241.034 l 1
 341.27 231.497 332.232 222.243 317.743 217.128 c 0
 304.375 212.408 291.923 203.686 276.291 194.914 c 1
 278.11 193.334 279.746 191.447 281.151 189.313 c 1
EndSplineSet
EndChar
StartChar: Tbar
Encoding: 358 358 245
Width: 633
Flags: HW
Fore
423 477 m 1
 406.327 475.879 l 1
 409.831 458.518 412.66 441.528 414.855 424.791 c 1
 470.518 424.915 512.226 425.009 514.233 425.034 c 1
 514.267 374.034 l 1
 419.654 374.034 l 1
 425.597 271.053 408.183 172.933 378 49 c 0
 365.79 -1.13379 286.003 -9.05566 270 40 c 0
 228.778 166.367 205.486 265.571 207.455 374.034 c 1
 118.767 374.034 l 1
 118.733 424.034 l 1
 124.216 424.094 161.013 424.201 210.134 424.323 c 1
 211.773 443.035 214.148 462.159 217.292 481.864 c 1
 151.67 486.439 86.1652 535.534 67 572 c 0
 31.8467 638.889 5 674 41 764 c 1
 77 688 78.3906 675.892 119 632 c 0
 139.12 610.254 164.463 602.881 187.484 593.458 c 1
 255 621 363 615 446.352 593.799 c 1
 469.149 603.062 494.123 610.517 514 632 c 0
 554.609 675.892 556 688 592 764 c 1
 628 674 601.153 638.889 566 572 c 0
 542.094 526.513 488.049 492.861 423 477 c 1
EndSplineSet
EndChar
StartChar: tbar
Encoding: 359 359 246
Width: 467
Flags: HW
Fore
139 198 m 1
 447.267 198.034 l 1
 447.233 249.034 l 1
 442.894 248.987 252.793 248.6 137.524 248.308 c 1
 137.336 347.034 l 1
 413.267 347.034 l 1
 413.233 398.034 l 1
 409.188 397.99 249.426 397.651 137.356 397.369 c 1
 137.257 444.201 137.173 478.815 137 488.068 c 1
 87 489 l 1
 87 397.237 l 1
 56.2735 397.151 34.8798 397.079 30.7334 397.034 c 1
 30.7666 347.034 l 1
 74.9014 347.034 l 1
 54.5882 312.894 42.5292 272.473 41.4463 228 c 0
 41.4463 175.73 58.1487 127.742 87 89.6253 c 1
 87 2 l 1
 138 1.06836 l 1
 137.989 3.16764 137.957 17.9511 137.913 41.1669 c 1
 171.815 18.0838 212.937 4.20186 258.446 3 c 0
 342.172 3 413.216 50.291 449.554 122.352 c 1
 414.537 95.7598 371.721 82 324.946 82 c 0
 242.486 84.1789 174.429 127.986 137.63 192.73 c 0
 137.63 194.494 137.62 196.263 137.62 198.034 c 0
 137.62 199.001 137.614 199.967 137.614 200.934 c 2
 139 198 l 1
EndSplineSet
EndChar
StartChar: longs
Encoding: 383 383 270
Width: 391
Flags: HW
Fore
117.321 405.9 m 1
 117.321 4 l 1
 168.321 4.06836 l 1
 168.158 33.9727 167.544 580.937 167.457 631.929 c 1
 208.501 685.055 273.376 717.895 346.669 717.895 c 0
 385.31 716.953 421.136 707.727 452.321 692 c 1
 411.278 746.793 345.714 782.494 267.669 784.395 c 1
 145.038 784.395 45.9736 692.461 42.6689 567.395 c 1
 42.6689 502.544 71.042 445.301 117.321 405.9 c 1
EndSplineSet
EndChar
StartChar: uni01C2
Encoding: 450 450 273
Width: 457
Flags: HW
Fore
30.7666 274.034 m 1
 30.7334 324.034 l 1
 38.968 324.124 117.831 324.32 203 324.516 c 1
 203 474.034 l 1
 30.7666 474.034 l 1
 30.7334 524.034 l 1
 38.968 524.124 117.831 524.32 203 524.516 c 1
 203 795 l 1
 253 795.068 l 1
 253.076 781.053 253.23 664.74 253.395 525.021 c 1
 341.807 525.22 423.408 525.395 426.233 525.034 c 1
 426.267 474.034 l 1
 253.455 474.034 l 1
 253.512 424.747 253.569 373.88 253.442 324.631 c 1
 341.906 324.829 423.589 325.004 426.233 325.034 c 1
 426.267 274.034 l 1
 253.68 274.034 l 1
 253.842 128.855 253.974 8.89941 254 4.06836 c 1
 203 4 l 1
 203 274.034 l 1
 30.7666 274.034 l 1
EndSplineSet
EndChar
StartChar: uni01EA
Encoding: 490 490 302
Width: 743
Flags: H
Fore
519.312 -203.831 m 1
 491.794 -224.378 452.618 -230.245 409.732 -216.116 c 0
 342.621 -192.361 296.892 -125.358 306.625 -59.6729 c 0
 312.452 -26.8334 332.894 -2.34169 361.61 9.48559 c 0
 370.242 13.0411 379.623 15.452 389.578 16.6006 c 1
 386.345 14.226 383.296 11.5976 380.449 8.73284 c 0
 368.093 -3.69404 359.515 -20.56 355.996 -40.3896 c 0
 346.263 -106.075 391.992 -173.078 459.104 -196.833 c 0
 480.336 -203.828 500.794 -205.97 519.312 -203.831 c 1
345.812 127.641 m 1
 273.392 135.73 215.969 166.723 178.838 234.76 c 0
 123.127 336.846 119.893 424.533 163.019 532.54 c 0
 179.689 574.29 203.701 607.748 234.66 631.272 c 1
 196.478 583.723 274.781 537.989 296.979 478 c 0
 303.228 461.111 295.344 442.935 310.979 434 c 0
 322.63 427.342 327.69 461.257 338.979 454 c 0
 359.519 440.796 367.604 422.41 366.979 398 c 0
 366.606 383.496 343.467 388.978 336.979 376 c 0
 322.171 346.385 312.439 327.014 314.979 294 c 0
 317.414 262.333 345.471 251.566 348.979 220 c 0
 352.941 184.332 352.142 156.617 345.812 127.641 c 1
456.291 647.492 m 1
 496.542 625.858 528.479 589.853 553.619 542.76 c 0
 611.004 435.266 632.539 345.098 586.938 232.1 c 0
 552.892 147.735 467.529 123.961 380.466 125.477 c 1
 405.667 157.959 434.88 200.102 450.979 226 c 0
 470.555 257.492 473.029 280.971 474.979 318 c 0
 476.251 342.185 475.44 360.238 458.979 378 c 0
 442.036 396.279 414.07 380.165 398.979 400 c 0
 382.28 421.946 376.9 445.208 388.979 470 c 0
 397.29 487.062 420.004 486.487 436.979 478 c 0
 455.764 468.607 444.784 426.23 464.979 432 c 0
 487.353 438.393 482.213 466.956 478.979 490 c 0
 475.535 514.536 442.969 521.963 448.979 546 c 0
 460.246 591.07 471.514 623.797 456.291 647.492 c 1
343.379 787.4 m 0
 212.65 783.98 120.673 711.65 72.1787 590.2 c 0
 10.5693 435.905 15.1904 310.637 94.7783 164.8 c 0
 150.318 63.029 242.972 16.3548 361.61 9.48559 c 0
 367.819 9.12612 374.098 8.87567 380.449 8.73284 c 0
 383.476 8.66436 386.52 8.62016 389.578 8.59961 c 0
 516.721 7.77051 630.196 43.0938 677.778 161 c 0
 742.923 322.426 712.157 451.237 630.179 604.8 c 0
 567.733 721.773 475.932 790.868 343.379 787.4 c 0
EndSplineSet
EndChar
StartChar: uni01EB
Encoding: 491 491 303
Width: 523
Flags: H
Fore
274.247 189.313 m 1
 330.36 201.289 318.521 200.463 350.992 213.991 c 1
 352.434 210.53 l 1
 330.842 194.384 314.938 196.755 276.041 186.207 c 1
 277.213 183.879 278.136 181.336 278.763 178.638 c 1
 326.262 175.83 324.487 179.058 353.492 182.937 c 1
 353.99 179.22 l 1
 339.753 177.315 330.266 171.219 315.16 174.033 c 0
 304.218 176.072 292.532 175.691 279.342 175.542 c 1
 279.586 173.827 279.713 172.062 279.713 170.261 c 0
 279.713 164.376 278.355 158.886 276.01 154.252 c 1
 334.029 135.695 317.882 141.644 356.855 136.595 c 1
 356.375 132.876 l 1
 342.13 134.722 331.389 131.288 317.525 137.916 c 0
 305.142 143.837 290.715 146.497 274.151 151.062 c 1
 271.249 146.713 267.381 143.404 262.96 141.654 c 1
 314.833 108.345 299.812 118.722 336.715 103.524 c 1
 335.287 100.057 l 1
 322.006 105.526 310.742 104.99 299.066 114.98 c 0
 288.049 124.408 273.887 130.911 258.048 140.401 c 0
 257.279 140.309 256.501 140.261 255.713 140.261 c 0
 255.339 140.261 254.967 140.271 254.596 140.302 c 0
 252.748 105.761 256.883 96.0928 259.527 76.3184 c 1
 255.811 75.8203 l 1
 253.906 90.0576 247.81 99.5449 250.624 114.65 c 0
 252.139 122.776 252.318 131.313 252.25 140.571 c 1
 247.459 141.438 243.125 144.075 239.688 147.934 c 1
 226.668 108.926 229.132 109.124 225.431 78.6689 c 1
 236.889 76.2607 248.923 74.8311 261.5 74.5 c 0
 351.328 74.5 442.232 145.096 445.2 267 c 1
 445.2 362.873 375.797 456.48 261.5 459.5 c 1
 171.672 459.5 80.7676 388.904 77.7998 267 c 1
 77.7998 182.82 131.306 100.388 221.725 79.4883 c 1
 222.968 92.6133 220.241 102.93 226.507 116.036 c 0
 231.389 126.244 234.053 137.842 237.396 150.882 c 1
 233.852 156.11 231.713 162.875 231.713 170.261 c 0
 231.713 176.88 233.431 183.001 236.339 187.965 c 1
 228.875 192.229 221.754 197.92 215.832 206.552 c 0
 207.008 219.419 193.786 229.959 179.848 244.811 c 1
 182.58 247.38 l 1
 208.202 220.079 210.004 213.657 239.757 192.665 c 1
 243.999 197.389 249.589 200.261 255.713 200.261 c 0
 256.645 200.261 257.564 200.194 258.468 200.065 c 0
 312.617 250.749 287.04 223.619 319.62 266.265 c 1
 322.6 263.988 l 1
 317.816 252.832 311.482 241.555 298.811 232.863 c 0
 286.584 224.478 276.458 212.122 262.737 198.953 c 1
 263.892 198.512 265.01 197.964 266.083 197.319 c 1
 326.487 229.098 300.885 214.18 339.585 244.005 c 1
 341.873 241.034 l 1
 334.365 231.497 325.328 222.243 310.839 217.128 c 0
 297.471 212.408 285.019 203.686 269.387 194.914 c 1
 271.206 193.334 272.842 191.447 274.247 189.313 c 1
359.5 329 m 0
 359.5 345.56 370.252 359 383.5 359 c 0
 396.748 359 407.5 345.56 407.5 329 c 0
 407.5 312.439 396.748 299 383.5 299 c 0
 370.252 299 359.5 312.439 359.5 329 c 0
187.556 365 m 0
 183.233 386.613 201.867 404.93 219.5 404.93 c 0
 232.262 404.93 243.284 395.56 248.399 382.025 c 1
 252.931 389.802 261.357 395.001 269.5 395 c 0
 282.748 395 293.5 381.56 293.5 365 c 0
 293.5 348.439 282.748 335 269.5 335 c 0
 260.781 335 254.011 343.661 249.829 352.436 c 1
 245.613 336.544 233.622 325.07 219.5 325.07 c 0
 201.866 325.07 190.218 351.69 187.556 365 c 0
391.234 -205.291 m 1
 363.716 -225.838 324.54 -231.705 281.654 -217.576 c 0
 170.453 -178.215 137.133 -28.3777 235.851 8.99762 c 1
 104.652 24.8118 10.8647 133.885 10.8652 267 c 1
 14.4619 414.748 122.946 526.875 261.5 526.875 c 1
 405.951 523.059 512.135 408.639 512.135 267 c 1
 508.538 119.253 400.054 7.125 261.5 7.125 c 0
 258.503 7.20419 255.522 7.331 252.558 7.50488 c 1
 239.834 -5.09265 231.462 -21.8799 227.918 -41.8496 c 0
 218.185 -107.535 263.914 -174.538 331.025 -198.293 c 0
 352.258 -205.288 372.716 -207.43 391.234 -205.291 c 1
EndSplineSet
EndChar
StartChar: uni0229
Encoding: 553 553 350
Width: 555
Flags: H
Fore
482.939 361.484 m 1
 451.754 377.211 415.928 386.438 377.287 387.379 c 0
 306.253 387.379 243.126 356.531 201.938 306.267 c 1
 287.179 306.558 392.939 306.952 410.477 307 c 1
 410.613 256 l 1
 171.13 256 l 1
 165.32 242.764 160.746 228.775 157.55 214.148 c 1
 190.682 137.81 264.301 84.4111 355.561 82 c 0
 402.334 82 445.15 95.7598 480.168 122.352 c 1
 452.085 66.6616 394.911 14.2399 315.439 4.59283 c 0
 309.784 3.90547 304.017 3.43475 298.164 3.18535 c 0
 295.158 3.06273 292.124 3.00047 289.061 3 c 0
 163.994 6.30469 72.0605 105.369 72.0605 228 c 1
 73.9564 305.884 106.97 369.594 164.455 412.651 c 2
 163.689 411.12 l 2
 201.178 438.253 247.729 453.879 298.287 453.879 c 0
 376.332 451.979 441.896 416.277 482.939 361.484 c 1
159.326 -209.416 m 1
 186.845 -229.963 226.021 -235.83 268.906 -221.701 c 0
 379.741 -182.47 413.398 -33.3822 315.439 4.59283 c 0
 307.238 7.77207 298.396 9.93743 289.061 11.0156 c 1
 292.289 8.6446 295.328 6.02923 298.164 3.18535 c 0
 310.593 -9.27809 319.12 -26.1228 322.643 -45.9746 c 0
 332.376 -111.66 286.646 -178.663 219.535 -202.418 c 0
 198.303 -209.413 177.845 -211.555 159.326 -209.416 c 1
EndSplineSet
EndChar
StartChar: afii57929
Encoding: 700 700 365
Width: 401
Flags: HW
Fore
136 655.5 m 1
 147.6 667.1 151 666.725 151 679.5 c 0
 151 687.657 148.735 695.184 144.92 701.223 c 1
 148.189 707.424 152.653 712.555 157.9 716.104 c 1
 160 724.5 l 1
 183 727.5 l 1
 182.42 720.542 l 1
 189.472 718.692 195.767 714.262 200.641 708.076 c 1
 206 712 l 1
 221 676 l 1
 220.958 675.965 l 2
 294.133 646.067 313.667 538.627 237.473 485.277 c 0
 204.963 463.674 167.871 459.492 135.347 470.163 c 1
 223.55 482.936 266.883 589.216 206.604 654.947 c 1
 202.736 646.109 196.565 639.068 189.104 635.088 c 1
 190 631.5 l 1
 172 628.5 l 1
 170.569 631.838 l 1
 162.496 633.078 155.248 637.663 149.738 644.449 c 1
 145 640.5 l 1
 136 655.5 l 1
EndSplineSet
EndChar
StartChar: uni1E10
Encoding: 7696 7696 387
Width: 639
Flags: H
Fore
104.64 667.123 m 1
 52.5576 685.222 42.8748 756.568 79.1318 769.955 c 0
 149.143 795.802 197.223 766.797 269.282 748.5 c 0
 394.172 716.789 485.281 465.5 571.282 379.5 c 1
 461.281 297.5 385.956 49.5391 255.282 20.5 c 0
 241.249 17.3817 225.392 14.0815 208.887 11.1943 c 1
 235.76 -1.07297 254.817 -24.8068 260.44 -56.4971 c 0
 270.174 -122.183 224.443 -189.186 157.332 -212.94 c 0
 114.446 -227.07 75.2715 -221.202 47.7529 -200.656 c 1
 66.2715 -202.795 86.7285 -200.653 107.962 -193.658 c 0
 175.073 -169.903 220.803 -102.9 211.069 -37.2148 c 0
 207.877 -19.2217 200.611 -3.80041 190.135 8.1568 c 1
 185.926 7.5329 181.704 6.94883 177.487 6.41406 c 1
 206.146 2.81348 78.0947 13.793 67.7178 46.375 c 1
 81.6826 98.7002 l 1
 89.3828 99.9824 96.1475 100.964 102.181 101.716 c 1
 104.64 667.123 l 1
169.149 666.018 m 1
 176.301 105.789 l 1
 185.97 106.951 197.812 108.973 213.683 112.5 c 0
 305.153 132.827 357.881 323.9 434.881 381.3 c 1
 374.683 441.5 310.904 637.901 223.481 660.1 c 0
 201.633 665.646 184.141 666.542 169.149 666.018 c 1
EndSplineSet
EndChar
StartChar: uni1E11
Encoding: 7697 7697 388
Width: 555
Flags: H
Fore
128.712 -191.416 m 1
 220.625 -202.031 304.553 -112.494 292.028 -27.9746 c 0
 289.917 -16.0731 286.09 -5.3024 280.649 4.12473 c 1
 154.046 -8.80601 41.4463 92.6503 41.4463 228 c 1
 43.1943 299.807 73.5576 361.049 121.077 402.347 c 1
 159.509 464.727 225.732 504.651 302.661 504.651 c 0
 374.972 502.741 436.206 468.819 475 416.838 c 1
 475 747.932 l 1
 525 748.068 l 1
 525.2 674.468 525.934 36.3955 526 12.0684 c 1
 475 11.9316 l 1
 475 143.562 l 1
 464.789 129.44 453.054 116.623 440.03 105.304 c 1
 410.297 57.0441 363.93 22.2242 308.841 8.93397 c 1
 325.53 -4.29681 337.169 -23.4153 341.399 -47.2568 c 0
 351.133 -112.942 305.402 -179.945 238.291 -203.7 c 0
 195.405 -217.83 156.23 -211.962 128.712 -191.416 c 1
125.933 395.229 m 1
 115.039 368.374 108.717 338.629 107.946 307 c 0
 107.946 184.369 199.88 85.3047 324.946 82 c 0
 365.498 81.999 403.075 92.3418 435.174 112.422 c 1
 446.068 139.278 452.391 169.022 453.161 200.651 c 0
 453.161 323.282 361.228 422.347 236.161 425.651 c 0
 195.609 425.652 158.032 415.31 125.933 395.229 c 1
EndSplineSet
EndChar
StartChar: uni1E28
Encoding: 7720 7720 411
Width: 553
Flags: H
Fore
-8.2666 -219.478 m 1
 83.6467 -230.092 167.574 -140.556 155.05 -56.0361 c 0
 151.495 -36.0016 143.081 -19.1714 130.288 -6.56057 c 1
 127.587 -6.98917 124.653 -7.15601 121.468 -7.00781 c 0
 94.9199 -5.77344 83.0918 8.72656 80.1445 24.082 c 0
 54.5146 157.608 134.475 254.105 133.96 387 c 0
 133.441 520.743 49.8779 640.348 80.1445 749.918 c 0
 91.7539 791.945 152.431 794.04 161.737 743.883 c 0
 175.627 669.013 160.457 629.979 178.055 564.746 c 0
 184.58 540.56 197.308 490.612 219.5 446.836 c 1
 248.68 433 310.043 418.977 336.617 444.284 c 1
 347.397 468.028 350.05 474.803 374.354 555.555 c 0
 400.08 641.03 370.529 783.146 435.189 778.869 c 0
 461.52 777.128 473.496 761.247 475.404 745.385 c 0
 493.284 596.74 421.356 548.072 421.747 387 c 0
 422.109 237.7 478.678 190.292 478.452 75.4258 c 0
 478.423 60.2031 479.345 47.2275 475.404 28.6152 c 0
 466.038 -15.6162 408.179 -18.1465 397.37 30.2324 c 0
 379.876 108.503 395.237 150.416 374.354 218.445 c 0
 350.664 295.618 346.603 308.098 336.791 329.382 c 1
 312.09 350.463 242.754 337.646 219.535 327.204 c 1
 208.42 305.345 196.367 279.162 178.055 209.254 c 0
 156.646 127.525 183.186 19.3893 140.907 -3.06739 c 1
 247.321 -35.6181 215.359 -191.394 101.312 -231.762 c 0
 58.4268 -245.892 19.252 -240.023 -8.2666 -219.478 c 1
EndSplineSet
EndChar
StartChar: uni1E29
Encoding: 7721 7721 412
Width: 491
Flags: H
Fore
-10.2812 -211.348 m 1
 81.632 -221.963 165.559 -132.426 153.035 -47.9062 c 0
 149.033 -25.3513 138.872 -6.85771 123.239 6.12617 c 1
 95 6.65234 l 1
 94.9092 23.2861 94.71 166.643 94.5117 319.888 c 1
 75.415 313.173 57.6006 303.637 41.4453 291.369 c 1
 54.7969 317.845 72.833 340.978 94.4619 359.649 c 1
 94.2402 533.17 94.0342 706.461 94 712.652 c 1
 145 711.721 l 1
 145 392.015 l 1
 171.636 404.091 201.206 410.721 232.553 410.721 c 0
 357.619 407.416 449.553 308.352 449.553 185.721 c 1
 447.652 107.676 411.951 42.1113 357.158 1.06836 c 1
 372.885 32.2539 382.111 68.0801 383.053 106.721 c 0
 383.053 229.352 291.119 328.416 166.053 331.721 c 0
 158.939 331.721 151.917 331.402 145 330.769 c 1
 145 5.7207 l 1
 136.052 5.88744 l 1
 170.487 -3.58054 195.714 -29.4756 202.406 -67.1885 c 0
 212.14 -132.874 166.409 -199.877 99.2979 -223.632 c 0
 56.4121 -237.762 17.2373 -231.894 -10.2812 -211.348 c 1
EndSplineSet
EndChar
StartChar: uni1E39
Encoding: 7737 7737 428
Width: 273
Flags: H
Fore
37.6338 767.846 m 5
 37.6162 817.846 l 5
 46.8164 818.046 232.325 818.779 235.366 818.846 c 5
 235.384 767.846 l 5
 37.6338 767.846 l 5
EndSplineSet
Ref: 7735 7735 N 1 0 0 1 0 0
EndChar
StartChar: uni1E3B
Encoding: 7739 7739 430
Width: 273
Flags: H
Fore
57.6328 -79.9658 m 1
 57.6172 -29.9658 l 1
 66.8164 -29.7656 252.326 -29.0322 255.367 -28.9658 c 1
 255.383 -79.9658 l 1
 57.6328 -79.9658 l 1
EndSplineSet
Ref: 108 108 N 1 0 0 1 0 0
EndChar
StartChar: uni1E5D
Encoding: 7773 7773 464
Width: 325
Flags: H
Fore
75.8379 586.875 m 5
 75.8223 636.875 l 5
 85.0215 637.075 270.531 637.809 273.572 637.875 c 5
 273.588 586.875 l 5
 75.8379 586.875 l 5
EndSplineSet
Ref: 7771 7771 N 1 0 0 1 0 0
EndChar
StartChar: uni1E5F
Encoding: 7775 7775 466
Width: 325
Flags: H
Fore
31.2812 -105.885 m 5
 31.2637 -55.8848 l 5
 40.4639 -55.6846 225.973 -54.9512 229.014 -54.8848 c 5
 229.031 -105.885 l 5
 31.2812 -105.885 l 5
EndSplineSet
Ref: 114 114 N 1 0 0 1 0 0
EndChar
StartChar: uni1E9A
Encoding: 7834 7834 525
Width: 555
Flags: HW
Fore
268.222 534.112 m 0
 302.104 529.251 337.906 539.81 366.172 566.729 c 1
 409.528 610.086 412.049 677.614 369 723 c 1
 339.398 752.602 297.561 760.999 259.235 748.37 c 0
 281.018 745.391 301.021 735.118 317.558 718.58 c 0
 360.607 673.194 358.086 605.666 314.729 562.31 c 0
 300.736 548.981 284.808 539.577 268.222 534.112 c 0
EndSplineSet
Ref: 97 97 N 1 0 0 1 0 0
LCarets: 0 65535 '    ' 1 0 
Ligature: 0 0 'liga' a uni02BE
EndChar
StartChar: uni1EDA
Encoding: 7898 7898 585
Width: 743
Flags: HW
Fore
420.35 921.124 m 5
 378.35 847.525 l 5
 327.35 847.538 l 5
 327.416 849.971 370.149 913.778 370.35 921.138 c 5
 420.35 921.124 l 5
345.811 127.64 m 5
 273.392 135.731 215.969 166.723 178.838 234.76 c 4
 123.127 336.846 119.893 424.533 163.019 532.54 c 4
 179.689 574.29 203.701 607.748 234.661 631.271 c 5
 196.478 583.723 274.782 537.989 296.979 478 c 4
 303.228 461.111 295.344 442.935 310.979 434 c 4
 322.63 427.342 327.69 461.257 338.979 454 c 4
 359.519 440.796 367.604 422.41 366.979 398 c 4
 366.606 383.496 343.467 388.978 336.979 376 c 4
 322.171 346.385 312.439 327.014 314.979 294 c 4
 317.414 262.333 345.471 251.566 348.979 220 c 4
 352.942 184.332 352.142 156.617 345.811 127.64 c 5
456.291 647.492 m 5
 496.542 625.859 528.479 589.854 553.619 542.76 c 4
 611.004 435.266 632.539 345.098 586.938 232.1 c 4
 553.631 149.565 474.198 124.839 385.198 125.42 c 4
 383.614 125.43 382.037 125.449 380.466 125.476 c 5
 405.667 157.959 434.88 200.102 450.979 226 c 4
 470.555 257.492 473.029 280.971 474.979 318 c 4
 476.251 342.185 475.44 360.238 458.979 378 c 4
 442.036 396.279 414.07 380.165 398.979 400 c 4
 382.28 421.946 376.9 445.208 388.979 470 c 4
 397.29 487.062 420.004 486.487 436.979 478 c 4
 455.764 468.607 444.784 426.23 464.979 432 c 4
 487.353 438.393 482.213 466.956 478.979 490 c 4
 475.535 514.536 442.969 521.963 448.979 546 c 4
 460.247 591.07 471.514 623.797 456.291 647.492 c 5
343.379 787.4 m 4
 212.65 783.98 120.673 711.65 72.1787 590.2 c 4
 10.5693 435.905 15.1904 310.637 94.7783 164.8 c 4
 157.108 50.5869 259.467 9.44727 389.578 8.59961 c 4
 516.721 7.77051 630.196 43.0938 677.778 161 c 4
 731.173 293.309 720.135 403.708 669.277 523.785 c 5
 679.62 524.872 690.338 527.177 701.298 530.79 c 4
 768.409 554.545 814.14 621.548 804.406 687.233 c 4
 796.68 730.777 764.242 758.566 721.453 763.506 c 5
 739.237 750.445 750.719 730.843 755.035 706.516 c 4
 764.533 642.418 721.217 577.065 656.756 551.87 c 5
 648.644 569.236 639.761 586.849 630.179 604.8 c 4
 567.733 721.773 475.932 790.868 343.379 787.4 c 4
EndSplineSet
EndChar
StartChar: uni1EDB
Encoding: 7899 7899 586
Width: 523
Flags: HW
Fore
274.247 189.313 m 5
 330.36 201.289 318.52 200.463 350.992 213.991 c 5
 352.434 210.53 l 5
 330.842 194.383 314.939 196.755 276.041 186.207 c 5
 277.213 183.879 278.136 181.336 278.763 178.638 c 5
 326.262 175.83 324.487 179.058 353.492 182.937 c 5
 353.99 179.22 l 5
 339.753 177.315 330.266 171.219 315.16 174.033 c 4
 304.218 176.072 292.532 175.692 279.342 175.542 c 5
 279.586 173.827 279.713 172.062 279.713 170.261 c 4
 279.713 164.376 278.355 158.886 276.01 154.252 c 5
 334.029 135.695 317.882 141.644 356.855 136.595 c 5
 356.375 132.876 l 5
 342.13 134.722 331.389 131.288 317.525 137.916 c 4
 305.142 143.837 290.715 146.497 274.151 151.063 c 5
 271.249 146.713 267.381 143.405 262.96 141.655 c 5
 314.833 108.345 299.812 118.722 336.715 103.524 c 5
 335.287 100.057 l 5
 322.006 105.526 310.742 104.99 299.066 114.98 c 4
 288.049 124.409 273.887 130.911 258.048 140.401 c 4
 257.28 140.309 256.501 140.261 255.713 140.261 c 4
 255.339 140.261 254.966 140.271 254.596 140.302 c 4
 252.748 105.761 256.883 96.0928 259.527 76.3184 c 5
 255.811 75.8203 l 5
 253.906 90.0576 247.81 99.5449 250.624 114.65 c 4
 252.138 122.777 252.318 131.313 252.25 140.572 c 5
 247.459 141.438 243.125 144.075 239.688 147.933 c 5
 226.668 108.926 229.132 109.124 225.431 78.6689 c 5
 236.889 76.2607 248.923 74.8311 261.5 74.5 c 4
 351.328 74.5 442.232 145.096 445.2 267 c 5
 445.2 362.873 375.797 456.48 261.5 459.5 c 5
 171.672 459.5 80.7676 388.904 77.7998 267 c 5
 77.7998 182.821 131.305 100.388 221.725 79.4883 c 5
 222.968 92.6133 220.242 102.93 226.507 116.036 c 4
 231.388 126.244 234.053 137.842 237.396 150.882 c 5
 233.851 156.11 231.713 162.875 231.713 170.261 c 4
 231.713 176.88 233.431 183.001 236.339 187.965 c 5
 228.875 192.228 221.754 197.92 215.832 206.552 c 4
 207.008 219.419 193.786 229.959 179.848 244.811 c 5
 182.58 247.38 l 5
 208.202 220.079 210.004 213.657 239.757 192.665 c 5
 243.999 197.389 249.589 200.26 255.713 200.261 c 4
 256.645 200.261 257.564 200.194 258.468 200.065 c 4
 312.617 250.749 287.04 223.619 319.62 266.265 c 5
 322.6 263.988 l 5
 317.816 252.832 311.482 241.555 298.811 232.863 c 4
 286.584 224.477 276.458 212.122 262.737 198.954 c 5
 263.892 198.512 265.01 197.964 266.083 197.32 c 5
 326.487 229.098 300.885 214.18 339.585 244.005 c 5
 341.873 241.034 l 5
 334.365 231.497 325.328 222.243 310.839 217.128 c 4
 297.47 212.408 285.018 203.685 269.387 194.914 c 5
 271.206 193.334 272.842 191.448 274.247 189.313 c 5
359.5 329 m 4
 359.5 345.56 370.252 359 383.5 359 c 4
 396.748 359 407.5 345.56 407.5 329 c 4
 407.5 312.439 396.748 299 383.5 299 c 4
 370.252 299 359.5 312.439 359.5 329 c 4
187.556 365 m 4
 183.233 386.613 201.867 404.93 219.5 404.93 c 4
 232.262 404.93 243.284 395.559 248.4 382.025 c 5
 252.931 389.802 261.358 395.001 269.5 395 c 4
 282.748 395 293.5 381.56 293.5 365 c 4
 293.5 348.439 282.748 335 269.5 335 c 4
 260.782 335 254.011 343.661 249.829 352.435 c 5
 245.613 336.544 233.622 325.07 219.5 325.07 c 4
 201.866 325.07 190.218 351.69 187.556 365 c 4
329 660.475 m 5
 287 586.876 l 5
 236 586.889 l 5
 236.066 589.321 278.8 653.129 279 660.488 c 5
 329 660.475 l 5
492.632 368.453 m 5
 505.261 337.313 512.135 303.038 512.135 267 c 4
 508.538 119.253 400.054 7.125 261.5 7.125 c 5
 117.049 10.9414 10.8652 125.361 10.8652 267 c 5
 14.4619 414.748 122.946 526.875 261.5 526.875 c 5
 357.381 524.342 436.402 473.079 478.701 397.473 c 5
 540.974 423.749 582.338 487.734 573.035 550.516 c 4
 568.719 574.843 557.237 594.445 539.453 607.506 c 5
 662.938 593.251 645.455 419.445 519.298 374.79 c 4
 510.218 371.798 501.304 369.703 492.632 368.453 c 5
EndSplineSet
EndChar
StartChar: uni1EDC
Encoding: 7900 7900 587
Width: 743
Flags: HW
Fore
345.811 127.64 m 1
 273.392 135.731 215.969 166.723 178.838 234.76 c 0
 123.127 336.846 119.893 424.533 163.019 532.54 c 0
 179.689 574.29 203.701 607.748 234.661 631.271 c 1
 196.478 583.723 274.782 537.989 296.979 478 c 0
 303.228 461.111 295.344 442.935 310.979 434 c 0
 322.63 427.342 327.69 461.257 338.979 454 c 0
 359.519 440.796 367.604 422.41 366.979 398 c 0
 366.606 383.496 343.467 388.978 336.979 376 c 0
 322.171 346.385 312.439 327.014 314.979 294 c 0
 317.414 262.333 345.471 251.566 348.979 220 c 0
 352.942 184.332 352.142 156.617 345.811 127.64 c 1
456.291 647.492 m 1
 496.542 625.859 528.479 589.854 553.619 542.76 c 0
 611.004 435.266 632.539 345.098 586.938 232.1 c 0
 553.631 149.565 474.198 124.839 385.198 125.42 c 0
 383.614 125.43 382.037 125.449 380.466 125.476 c 1
 405.667 157.959 434.88 200.102 450.979 226 c 0
 470.555 257.492 473.029 280.971 474.979 318 c 0
 476.251 342.185 475.44 360.238 458.979 378 c 0
 442.036 396.279 414.07 380.165 398.979 400 c 0
 382.28 421.946 376.9 445.208 388.979 470 c 0
 397.29 487.062 420.004 486.487 436.979 478 c 0
 455.764 468.607 444.784 426.23 464.979 432 c 0
 487.353 438.393 482.213 466.956 478.979 490 c 0
 475.535 514.536 442.969 521.963 448.979 546 c 0
 460.247 591.07 471.514 623.797 456.291 647.492 c 1
343.379 787.4 m 0
 212.65 783.98 120.673 711.65 72.1787 590.2 c 0
 10.5693 435.905 15.1904 310.637 94.7783 164.8 c 0
 157.108 50.5869 259.467 9.44727 389.578 8.59961 c 0
 516.721 7.77051 630.196 43.0938 677.778 161 c 0
 731.173 293.309 720.135 403.708 669.277 523.785 c 1
 679.62 524.872 690.338 527.177 701.298 530.79 c 0
 768.409 554.545 814.14 621.548 804.406 687.233 c 0
 796.68 730.777 764.242 758.566 721.453 763.506 c 1
 739.237 750.445 750.719 730.843 755.035 706.516 c 0
 764.533 642.418 721.217 577.065 656.756 551.87 c 1
 648.644 569.236 639.761 586.849 630.179 604.8 c 0
 567.733 721.773 475.932 790.868 343.379 787.4 c 0
EndSplineSet
Ref: 96 96 S 1 0 0 1 186 276
EndChar
StartChar: uni1EDD
Encoding: 7901 7901 588
Width: 523
Flags: HW
Fore
274.247 189.313 m 1
 330.36 201.289 318.52 200.463 350.992 213.991 c 1
 352.434 210.53 l 1
 330.842 194.383 314.939 196.755 276.041 186.207 c 1
 277.213 183.879 278.136 181.336 278.763 178.638 c 1
 326.262 175.83 324.487 179.058 353.492 182.937 c 1
 353.99 179.22 l 1
 339.753 177.315 330.266 171.219 315.16 174.033 c 0
 304.218 176.072 292.532 175.692 279.342 175.542 c 1
 279.586 173.827 279.713 172.062 279.713 170.261 c 0
 279.713 164.376 278.355 158.886 276.01 154.252 c 1
 334.029 135.695 317.882 141.644 356.855 136.595 c 1
 356.375 132.876 l 1
 342.13 134.722 331.389 131.288 317.525 137.916 c 0
 305.142 143.837 290.715 146.497 274.151 151.063 c 1
 271.249 146.713 267.381 143.405 262.96 141.655 c 1
 314.833 108.345 299.812 118.722 336.715 103.524 c 1
 335.287 100.057 l 1
 322.006 105.526 310.742 104.99 299.066 114.98 c 0
 288.049 124.409 273.887 130.911 258.048 140.401 c 0
 257.28 140.309 256.501 140.261 255.713 140.261 c 0
 255.339 140.261 254.966 140.271 254.596 140.302 c 0
 252.748 105.761 256.883 96.0928 259.527 76.3184 c 1
 255.811 75.8203 l 1
 253.906 90.0576 247.81 99.5449 250.624 114.65 c 0
 252.138 122.777 252.318 131.313 252.25 140.572 c 1
 247.459 141.438 243.125 144.075 239.688 147.933 c 1
 226.668 108.926 229.132 109.124 225.431 78.6689 c 1
 236.889 76.2607 248.923 74.8311 261.5 74.5 c 0
 351.328 74.5 442.232 145.096 445.2 267 c 1
 445.2 362.873 375.797 456.48 261.5 459.5 c 1
 171.672 459.5 80.7676 388.904 77.7998 267 c 1
 77.7998 182.821 131.305 100.388 221.725 79.4883 c 1
 222.968 92.6133 220.242 102.93 226.507 116.036 c 0
 231.388 126.244 234.053 137.842 237.396 150.882 c 1
 233.851 156.11 231.713 162.875 231.713 170.261 c 0
 231.713 176.88 233.431 183.001 236.339 187.965 c 1
 228.875 192.228 221.754 197.92 215.832 206.552 c 0
 207.008 219.419 193.786 229.959 179.848 244.811 c 1
 182.58 247.38 l 1
 208.202 220.079 210.004 213.657 239.757 192.665 c 1
 243.999 197.389 249.589 200.26 255.713 200.261 c 0
 256.645 200.261 257.564 200.194 258.468 200.065 c 0
 312.617 250.749 287.04 223.619 319.62 266.265 c 1
 322.6 263.988 l 1
 317.816 252.832 311.482 241.555 298.811 232.863 c 0
 286.584 224.477 276.458 212.122 262.737 198.954 c 1
 263.892 198.512 265.01 197.964 266.083 197.32 c 1
 326.487 229.098 300.885 214.18 339.585 244.005 c 1
 341.873 241.034 l 1
 334.365 231.497 325.328 222.243 310.839 217.128 c 0
 297.47 212.408 285.018 203.685 269.387 194.914 c 1
 271.206 193.334 272.842 191.448 274.247 189.313 c 1
359.5 329 m 0
 359.5 345.56 370.252 359 383.5 359 c 0
 396.748 359 407.5 345.56 407.5 329 c 0
 407.5 312.439 396.748 299 383.5 299 c 0
 370.252 299 359.5 312.439 359.5 329 c 0
187.556 365 m 0
 183.233 386.613 201.867 404.93 219.5 404.93 c 0
 232.262 404.93 243.284 395.559 248.4 382.025 c 1
 252.931 389.802 261.358 395.001 269.5 395 c 0
 282.748 395 293.5 381.56 293.5 365 c 0
 293.5 348.439 282.748 335 269.5 335 c 0
 260.782 335 254.011 343.661 249.829 352.435 c 1
 245.613 336.544 233.622 325.07 219.5 325.07 c 0
 201.866 325.07 190.218 351.69 187.556 365 c 0
492.632 368.453 m 1
 505.261 337.313 512.135 303.038 512.135 267 c 0
 508.538 119.253 400.054 7.125 261.5 7.125 c 1
 117.049 10.9414 10.8652 125.361 10.8652 267 c 1
 14.4619 414.748 122.946 526.875 261.5 526.875 c 1
 357.381 524.342 436.402 473.079 478.701 397.473 c 1
 540.974 423.749 582.338 487.734 573.035 550.516 c 0
 568.719 574.843 557.237 594.445 539.453 607.506 c 1
 662.938 593.251 645.455 419.445 519.298 374.79 c 0
 510.218 371.798 501.304 369.703 492.632 368.453 c 1
EndSplineSet
Ref: 96 96 N 1 0 0 1 120 18
EndChar
StartChar: uni1EDE
Encoding: 7902 7902 589
Width: 743
Flags: HW
Fore
345.811 127.64 m 1
 273.392 135.731 215.969 166.723 178.838 234.76 c 0
 123.127 336.846 119.893 424.533 163.019 532.54 c 0
 179.689 574.29 203.701 607.748 234.661 631.271 c 1
 196.478 583.723 274.782 537.989 296.979 478 c 0
 303.228 461.111 295.344 442.935 310.979 434 c 0
 322.63 427.342 327.69 461.257 338.979 454 c 0
 359.519 440.796 367.604 422.41 366.979 398 c 0
 366.606 383.496 343.467 388.978 336.979 376 c 0
 322.171 346.385 312.439 327.014 314.979 294 c 0
 317.414 262.333 345.471 251.566 348.979 220 c 0
 352.942 184.332 352.142 156.617 345.811 127.64 c 1
456.291 647.492 m 1
 496.542 625.859 528.479 589.854 553.619 542.76 c 0
 611.004 435.266 632.539 345.098 586.938 232.1 c 0
 553.631 149.565 474.198 124.839 385.198 125.42 c 0
 383.614 125.43 382.037 125.449 380.466 125.476 c 1
 405.667 157.959 434.88 200.102 450.979 226 c 0
 470.555 257.492 473.029 280.971 474.979 318 c 0
 476.251 342.185 475.44 360.238 458.979 378 c 0
 442.036 396.279 414.07 380.165 398.979 400 c 0
 382.28 421.946 376.9 445.208 388.979 470 c 0
 397.29 487.062 420.004 486.487 436.979 478 c 0
 455.764 468.607 444.784 426.23 464.979 432 c 0
 487.353 438.393 482.213 466.956 478.979 490 c 0
 475.535 514.536 442.969 521.963 448.979 546 c 0
 460.247 591.07 471.514 623.797 456.291 647.492 c 1
343.379 787.4 m 0
 212.65 783.98 120.673 711.65 72.1787 590.2 c 0
 10.5693 435.905 15.1904 310.637 94.7783 164.8 c 0
 157.108 50.5869 259.467 9.44727 389.578 8.59961 c 0
 516.721 7.77051 630.196 43.0938 677.778 161 c 0
 725.181 278.463 721.801 378.657 684.86 483.682 c 1
 692.05 484.958 699.394 486.81 706.85 489.266 c 0
 773.961 513.021 819.691 580.023 809.958 645.709 c 0
 802.231 689.253 769.794 717.042 727.005 721.981 c 1
 744.789 708.921 756.271 689.318 760.587 664.991 c 0
 769.552 604.489 731.463 542.87 672.951 514.958 c 1
 660.993 544.218 646.615 574.011 630.179 604.8 c 0
 567.733 721.773 475.932 790.868 343.379 787.4 c 0
243.271 867.55 m 1
 270.789 847.004 309.964 841.136 352.85 855.266 c 0
 419.961 879.021 465.691 946.023 455.958 1011.71 c 0
 448.231 1055.25 415.794 1083.04 373.005 1087.98 c 1
 390.789 1074.92 402.271 1055.32 406.587 1030.99 c 0
 416.32 965.306 370.591 898.303 303.479 874.548 c 0
 282.246 867.553 261.789 865.411 243.271 867.55 c 1
EndSplineSet
EndChar
StartChar: uni1EDF
Encoding: 7903 7903 590
Width: 523
Flags: HW
Fore
187.556 365 m 0
 183.233 386.613 201.867 404.93 219.5 404.93 c 0
 232.262 404.93 243.284 395.559 248.4 382.025 c 1
 252.931 389.802 261.358 395.001 269.5 395 c 0
 282.748 395 293.5 381.56 293.5 365 c 0
 293.5 348.439 282.748 335 269.5 335 c 0
 260.782 335 254.011 343.661 249.829 352.435 c 1
 245.613 336.544 233.622 325.07 219.5 325.07 c 0
 201.866 325.07 190.218 351.69 187.556 365 c 0
359.5 329 m 0
 359.5 345.56 370.252 359 383.5 359 c 0
 396.748 359 407.5 345.56 407.5 329 c 0
 407.5 312.439 396.748 299 383.5 299 c 0
 370.252 299 359.5 312.439 359.5 329 c 0
274.247 189.313 m 1
 330.36 201.289 318.52 200.463 350.992 213.991 c 1
 352.434 210.53 l 1
 330.842 194.383 314.939 196.755 276.041 186.207 c 1
 277.213 183.879 278.136 181.336 278.763 178.638 c 1
 326.262 175.83 324.487 179.058 353.492 182.937 c 1
 353.99 179.22 l 1
 339.753 177.315 330.266 171.219 315.16 174.033 c 0
 304.218 176.072 292.532 175.692 279.342 175.542 c 1
 279.586 173.827 279.713 172.062 279.713 170.261 c 0
 279.713 164.376 278.355 158.886 276.01 154.252 c 1
 334.029 135.695 317.882 141.644 356.855 136.595 c 1
 356.375 132.876 l 1
 342.13 134.722 331.389 131.288 317.525 137.916 c 0
 305.142 143.837 290.715 146.497 274.151 151.063 c 1
 271.249 146.713 267.381 143.405 262.96 141.655 c 1
 314.833 108.345 299.812 118.722 336.715 103.524 c 1
 335.287 100.057 l 1
 322.006 105.526 310.742 104.99 299.066 114.98 c 0
 288.049 124.409 273.887 130.911 258.048 140.401 c 0
 257.28 140.309 256.501 140.261 255.713 140.261 c 0
 255.339 140.261 254.966 140.271 254.596 140.302 c 0
 252.748 105.761 256.883 96.0928 259.527 76.3184 c 1
 255.811 75.8203 l 1
 253.906 90.0576 247.81 99.5449 250.624 114.65 c 0
 252.138 122.777 252.318 131.313 252.25 140.572 c 1
 247.459 141.438 243.125 144.075 239.688 147.933 c 1
 226.668 108.926 229.132 109.124 225.431 78.6689 c 1
 236.889 76.2607 248.923 74.8311 261.5 74.5 c 0
 351.328 74.5 442.232 145.096 445.2 267 c 1
 445.2 362.873 375.797 456.48 261.5 459.5 c 1
 171.672 459.5 80.7676 388.904 77.7998 267 c 1
 77.7998 182.821 131.305 100.388 221.725 79.4883 c 1
 222.968 92.6133 220.242 102.93 226.507 116.036 c 0
 231.388 126.244 234.053 137.842 237.396 150.882 c 1
 233.851 156.11 231.713 162.875 231.713 170.261 c 0
 231.713 176.88 233.431 183.001 236.339 187.965 c 1
 228.875 192.228 221.754 197.92 215.832 206.552 c 0
 207.008 219.419 193.786 229.959 179.848 244.811 c 1
 182.58 247.38 l 1
 208.202 220.079 210.004 213.657 239.757 192.665 c 1
 243.999 197.389 249.589 200.26 255.713 200.261 c 0
 256.645 200.261 257.564 200.194 258.468 200.065 c 0
 312.617 250.749 287.04 223.619 319.62 266.265 c 1
 322.6 263.988 l 1
 317.816 252.832 311.482 241.555 298.811 232.863 c 0
 286.584 224.477 276.458 212.122 262.737 198.954 c 1
 263.892 198.512 265.01 197.964 266.083 197.32 c 1
 326.487 229.098 300.885 214.18 339.585 244.005 c 1
 341.873 241.034 l 1
 334.365 231.497 325.328 222.243 310.839 217.128 c 0
 297.47 212.408 285.018 203.685 269.387 194.914 c 1
 271.206 193.334 272.842 191.448 274.247 189.313 c 1
151.921 606.899 m 1
 170.439 604.761 190.896 606.902 212.13 613.897 c 0
 279.241 637.652 324.971 704.655 315.237 770.341 c 0
 310.921 794.668 299.439 814.271 281.655 827.331 c 1
 324.444 822.392 356.882 794.603 364.608 751.059 c 0
 374.342 685.373 328.611 618.37 261.5 594.615 c 0
 218.614 580.485 179.439 586.354 151.921 606.899 c 1
500.212 347.159 m 1
 507.985 321.933 512.134 294.999 512.135 267 c 0
 508.538 119.253 400.054 7.125 261.5 7.125 c 1
 117.049 10.9414 10.8652 125.361 10.8652 267 c 1
 14.4619 414.748 122.946 526.875 261.5 526.875 c 1
 366.767 524.094 451.712 462.576 490.05 374.591 c 1
 556.111 398.934 600.878 465.284 591.237 530.341 c 0
 586.921 554.668 575.439 574.271 557.655 587.331 c 1
 600.444 582.392 632.882 554.603 640.608 511.059 c 0
 650.342 445.373 604.611 378.37 537.5 354.615 c 0
 524.667 350.387 512.167 347.95 500.212 347.159 c 1
EndSplineSet
EndChar
StartChar: uni1EE0
Encoding: 7904 7904 591
Width: 743
Flags: HW
Fore
345.811 127.64 m 5
 273.392 135.731 215.969 166.723 178.838 234.76 c 4
 123.127 336.846 119.893 424.533 163.019 532.54 c 4
 179.689 574.29 203.701 607.748 234.661 631.271 c 5
 196.478 583.723 274.782 537.989 296.979 478 c 4
 303.228 461.111 295.344 442.935 310.979 434 c 4
 322.63 427.342 327.69 461.257 338.979 454 c 4
 359.519 440.796 367.604 422.41 366.979 398 c 4
 366.606 383.496 343.467 388.978 336.979 376 c 4
 322.171 346.385 312.439 327.014 314.979 294 c 4
 317.414 262.333 345.471 251.566 348.979 220 c 4
 352.942 184.332 352.142 156.617 345.811 127.64 c 5
456.291 647.492 m 5
 496.542 625.859 528.479 589.854 553.619 542.76 c 4
 611.004 435.266 632.539 345.098 586.938 232.1 c 4
 553.631 149.565 474.198 124.839 385.198 125.42 c 4
 383.614 125.43 382.037 125.449 380.466 125.476 c 5
 405.667 157.959 434.88 200.102 450.979 226 c 4
 470.555 257.492 473.029 280.971 474.979 318 c 4
 476.251 342.185 475.44 360.238 458.979 378 c 4
 442.036 396.279 414.07 380.165 398.979 400 c 4
 382.28 421.946 376.9 445.208 388.979 470 c 4
 397.29 487.062 420.004 486.487 436.979 478 c 4
 455.764 468.607 444.784 426.23 464.979 432 c 4
 487.353 438.393 482.213 466.956 478.979 490 c 4
 475.535 514.536 442.969 521.963 448.979 546 c 4
 460.247 591.07 471.514 623.797 456.291 647.492 c 5
343.379 787.4 m 4
 212.65 783.98 120.673 711.65 72.1787 590.2 c 4
 10.5693 435.905 15.1904 310.637 94.7783 164.8 c 4
 157.108 50.5869 259.467 9.44727 389.578 8.59961 c 4
 516.721 7.77051 630.196 43.0938 677.778 161 c 4
 731.173 293.309 720.135 403.708 669.277 523.785 c 5
 679.62 524.872 690.338 527.177 701.298 530.79 c 4
 768.409 554.545 814.14 621.548 804.406 687.233 c 4
 796.68 730.777 764.242 758.566 721.453 763.506 c 5
 739.237 750.445 750.719 730.843 755.035 706.516 c 4
 764.533 642.418 721.217 577.065 656.756 551.87 c 5
 648.644 569.236 639.761 586.849 630.179 604.8 c 4
 567.733 721.773 475.932 790.868 343.379 787.4 c 4
EndSplineSet
Ref: 732 732 N 1 0 0 1 144 396
EndChar
StartChar: uni1EE1
Encoding: 7905 7905 592
Width: 523
Flags: HW
Fore
274.247 189.313 m 5
 330.36 201.289 318.52 200.463 350.992 213.991 c 5
 352.434 210.53 l 5
 330.842 194.383 314.939 196.755 276.041 186.207 c 5
 277.213 183.879 278.136 181.336 278.763 178.638 c 5
 326.262 175.83 324.487 179.058 353.492 182.937 c 5
 353.99 179.22 l 5
 339.753 177.315 330.266 171.219 315.16 174.033 c 4
 304.218 176.072 292.532 175.692 279.342 175.542 c 5
 279.586 173.827 279.713 172.062 279.713 170.261 c 4
 279.713 164.376 278.355 158.886 276.01 154.252 c 5
 334.029 135.695 317.882 141.644 356.855 136.595 c 5
 356.375 132.876 l 5
 342.13 134.722 331.389 131.288 317.525 137.916 c 4
 305.142 143.837 290.715 146.497 274.151 151.063 c 5
 271.249 146.713 267.381 143.405 262.96 141.655 c 5
 314.833 108.345 299.812 118.722 336.715 103.524 c 5
 335.287 100.057 l 5
 322.006 105.526 310.742 104.99 299.066 114.98 c 4
 288.049 124.409 273.887 130.911 258.048 140.401 c 4
 257.28 140.309 256.501 140.261 255.713 140.261 c 4
 255.339 140.261 254.966 140.271 254.596 140.302 c 4
 252.748 105.761 256.883 96.0928 259.527 76.3184 c 5
 255.811 75.8203 l 5
 253.906 90.0576 247.81 99.5449 250.624 114.65 c 4
 252.138 122.777 252.318 131.313 252.25 140.572 c 5
 247.459 141.438 243.125 144.075 239.688 147.933 c 5
 226.668 108.926 229.132 109.124 225.431 78.6689 c 5
 236.889 76.2607 248.923 74.8311 261.5 74.5 c 4
 351.328 74.5 442.232 145.096 445.2 267 c 5
 445.2 362.873 375.797 456.48 261.5 459.5 c 5
 171.672 459.5 80.7676 388.904 77.7998 267 c 5
 77.7998 182.821 131.305 100.388 221.725 79.4883 c 5
 222.968 92.6133 220.242 102.93 226.507 116.036 c 4
 231.388 126.244 234.053 137.842 237.396 150.882 c 5
 233.851 156.11 231.713 162.875 231.713 170.261 c 4
 231.713 176.88 233.431 183.001 236.339 187.965 c 5
 228.875 192.228 221.754 197.92 215.832 206.552 c 4
 207.008 219.419 193.786 229.959 179.848 244.811 c 5
 182.58 247.38 l 5
 208.202 220.079 210.004 213.657 239.757 192.665 c 5
 243.999 197.389 249.589 200.26 255.713 200.261 c 4
 256.645 200.261 257.564 200.194 258.468 200.065 c 4
 312.617 250.749 287.04 223.619 319.62 266.265 c 5
 322.6 263.988 l 5
 317.816 252.832 311.482 241.555 298.811 232.863 c 4
 286.584 224.477 276.458 212.122 262.737 198.954 c 5
 263.892 198.512 265.01 197.964 266.083 197.32 c 5
 326.487 229.098 300.885 214.18 339.585 244.005 c 5
 341.873 241.034 l 5
 334.365 231.497 325.328 222.243 310.839 217.128 c 4
 297.47 212.408 285.018 203.685 269.387 194.914 c 5
 271.206 193.334 272.842 191.448 274.247 189.313 c 5
359.5 329 m 4
 359.5 345.56 370.252 359 383.5 359 c 4
 396.748 359 407.5 345.56 407.5 329 c 4
 407.5 312.439 396.748 299 383.5 299 c 4
 370.252 299 359.5 312.439 359.5 329 c 4
187.556 365 m 4
 183.233 386.613 201.867 404.93 219.5 404.93 c 4
 232.262 404.93 243.284 395.559 248.4 382.025 c 5
 252.931 389.802 261.358 395.001 269.5 395 c 4
 282.748 395 293.5 381.56 293.5 365 c 4
 293.5 348.439 282.748 335 269.5 335 c 4
 260.782 335 254.011 343.661 249.829 352.435 c 5
 245.613 336.544 233.622 325.07 219.5 325.07 c 4
 201.866 325.07 190.218 351.69 187.556 365 c 4
492.632 368.453 m 5
 505.261 337.313 512.135 303.038 512.135 267 c 4
 508.538 119.253 400.054 7.125 261.5 7.125 c 5
 117.049 10.9414 10.8652 125.361 10.8652 267 c 5
 14.4619 414.748 122.946 526.875 261.5 526.875 c 5
 357.381 524.342 436.402 473.079 478.701 397.473 c 5
 540.974 423.749 582.338 487.734 573.035 550.516 c 4
 568.719 574.843 557.237 594.445 539.453 607.506 c 5
 662.938 593.251 645.455 419.445 519.298 374.79 c 4
 510.218 371.798 501.304 369.703 492.632 368.453 c 5
EndSplineSet
Ref: 732 732 N 1 0 0 1 56 148
EndChar
StartChar: uni1EE2
Encoding: 7906 7906 593
Width: 743
Flags: HW
Fore
345.811 127.64 m 1
 273.392 135.731 215.969 166.723 178.838 234.76 c 0
 123.127 336.846 119.893 424.533 163.019 532.54 c 0
 179.689 574.29 203.701 607.748 234.661 631.271 c 1
 196.478 583.723 274.782 537.989 296.979 478 c 0
 303.228 461.111 295.344 442.935 310.979 434 c 0
 322.63 427.342 327.69 461.257 338.979 454 c 0
 359.519 440.796 367.604 422.41 366.979 398 c 0
 366.606 383.496 343.467 388.978 336.979 376 c 0
 322.171 346.385 312.439 327.014 314.979 294 c 0
 317.414 262.333 345.471 251.566 348.979 220 c 0
 352.942 184.332 352.142 156.617 345.811 127.64 c 1
456.291 647.492 m 1
 496.542 625.859 528.479 589.854 553.619 542.76 c 0
 611.004 435.266 632.539 345.098 586.938 232.1 c 0
 553.631 149.565 474.198 124.839 385.198 125.42 c 0
 383.614 125.43 382.037 125.449 380.466 125.476 c 1
 405.667 157.959 434.88 200.102 450.979 226 c 0
 470.555 257.492 473.029 280.971 474.979 318 c 0
 476.251 342.185 475.44 360.238 458.979 378 c 0
 442.036 396.279 414.07 380.165 398.979 400 c 0
 382.28 421.946 376.9 445.208 388.979 470 c 0
 397.29 487.062 420.004 486.487 436.979 478 c 0
 455.764 468.607 444.784 426.23 464.979 432 c 0
 487.353 438.393 482.213 466.956 478.979 490 c 0
 475.535 514.536 442.969 521.963 448.979 546 c 0
 460.247 591.07 471.514 623.797 456.291 647.492 c 1
343.379 787.4 m 0
 212.65 783.98 120.673 711.65 72.1787 590.2 c 0
 10.5693 435.905 15.1904 310.637 94.7783 164.8 c 0
 157.108 50.5869 259.467 9.44727 389.578 8.59961 c 0
 516.721 7.77051 630.196 43.0938 677.778 161 c 0
 731.173 293.309 720.135 403.708 669.277 523.785 c 1
 679.62 524.872 690.338 527.177 701.298 530.79 c 0
 768.409 554.545 814.14 621.548 804.406 687.233 c 0
 796.68 730.777 764.242 758.566 721.453 763.506 c 1
 739.237 750.445 750.719 730.843 755.035 706.516 c 0
 764.533 642.418 721.217 577.065 656.756 551.87 c 1
 648.644 569.236 639.761 586.849 630.179 604.8 c 0
 567.733 721.773 475.932 790.868 343.379 787.4 c 0
EndSplineSet
Ref: 46 46 S 1 0 0 1 321 -156
EndChar
StartChar: uni1EE3
Encoding: 7907 7907 594
Width: 523
Flags: HW
Fore
274.247 189.313 m 1
 330.36 201.289 318.52 200.463 350.992 213.991 c 1
 352.434 210.53 l 1
 330.842 194.383 314.939 196.755 276.041 186.207 c 1
 277.213 183.879 278.136 181.336 278.763 178.638 c 1
 326.262 175.83 324.487 179.058 353.492 182.937 c 1
 353.99 179.22 l 1
 339.753 177.315 330.266 171.219 315.16 174.033 c 0
 304.218 176.072 292.532 175.692 279.342 175.542 c 1
 279.586 173.827 279.713 172.062 279.713 170.261 c 0
 279.713 164.376 278.355 158.886 276.01 154.252 c 1
 334.029 135.695 317.882 141.644 356.855 136.595 c 1
 356.375 132.876 l 1
 342.13 134.722 331.389 131.288 317.525 137.916 c 0
 305.142 143.837 290.715 146.497 274.151 151.063 c 1
 271.249 146.713 267.381 143.405 262.96 141.655 c 1
 314.833 108.345 299.812 118.722 336.715 103.524 c 1
 335.287 100.057 l 1
 322.006 105.526 310.742 104.99 299.066 114.98 c 0
 288.049 124.409 273.887 130.911 258.048 140.401 c 0
 257.28 140.309 256.501 140.261 255.713 140.261 c 0
 255.339 140.261 254.966 140.271 254.596 140.302 c 0
 252.748 105.761 256.883 96.0928 259.527 76.3184 c 1
 255.811 75.8203 l 1
 253.906 90.0576 247.81 99.5449 250.624 114.65 c 0
 252.138 122.777 252.318 131.313 252.25 140.572 c 1
 247.459 141.438 243.125 144.075 239.688 147.933 c 1
 226.668 108.926 229.132 109.124 225.431 78.6689 c 1
 236.889 76.2607 248.923 74.8311 261.5 74.5 c 0
 351.328 74.5 442.232 145.096 445.2 267 c 1
 445.2 362.873 375.797 456.48 261.5 459.5 c 1
 171.672 459.5 80.7676 388.904 77.7998 267 c 1
 77.7998 182.821 131.305 100.388 221.725 79.4883 c 1
 222.968 92.6133 220.242 102.93 226.507 116.036 c 0
 231.388 126.244 234.053 137.842 237.396 150.882 c 1
 233.851 156.11 231.713 162.875 231.713 170.261 c 0
 231.713 176.88 233.431 183.001 236.339 187.965 c 1
 228.875 192.228 221.754 197.92 215.832 206.552 c 0
 207.008 219.419 193.786 229.959 179.848 244.811 c 1
 182.58 247.38 l 1
 208.202 220.079 210.004 213.657 239.757 192.665 c 1
 243.999 197.389 249.589 200.26 255.713 200.261 c 0
 256.645 200.261 257.564 200.194 258.468 200.065 c 0
 312.617 250.749 287.04 223.619 319.62 266.265 c 1
 322.6 263.988 l 1
 317.816 252.832 311.482 241.555 298.811 232.863 c 0
 286.584 224.477 276.458 212.122 262.737 198.954 c 1
 263.892 198.512 265.01 197.964 266.083 197.32 c 1
 326.487 229.098 300.885 214.18 339.585 244.005 c 1
 341.873 241.034 l 1
 334.365 231.497 325.328 222.243 310.839 217.128 c 0
 297.47 212.408 285.018 203.685 269.387 194.914 c 1
 271.206 193.334 272.842 191.448 274.247 189.313 c 1
359.5 329 m 0
 359.5 345.56 370.252 359 383.5 359 c 0
 396.748 359 407.5 345.56 407.5 329 c 0
 407.5 312.439 396.748 299 383.5 299 c 0
 370.252 299 359.5 312.439 359.5 329 c 0
187.556 365 m 0
 183.233 386.613 201.867 404.93 219.5 404.93 c 0
 232.262 404.93 243.284 395.559 248.4 382.025 c 1
 252.931 389.802 261.358 395.001 269.5 395 c 0
 282.748 395 293.5 381.56 293.5 365 c 0
 293.5 348.439 282.748 335 269.5 335 c 0
 260.782 335 254.011 343.661 249.829 352.435 c 1
 245.613 336.544 233.622 325.07 219.5 325.07 c 0
 201.866 325.07 190.218 351.69 187.556 365 c 0
492.632 368.453 m 1
 505.261 337.313 512.135 303.038 512.135 267 c 0
 508.538 119.253 400.054 7.125 261.5 7.125 c 1
 117.049 10.9414 10.8652 125.361 10.8652 267 c 1
 14.4619 414.748 122.946 526.875 261.5 526.875 c 1
 357.381 524.342 436.402 473.079 478.701 397.473 c 1
 540.974 423.749 582.338 487.734 573.035 550.516 c 0
 568.719 574.843 557.237 594.445 539.453 607.506 c 1
 662.938 593.251 645.455 419.445 519.298 374.79 c 0
 510.218 371.798 501.304 369.703 492.632 368.453 c 1
EndSplineSet
Ref: 46 46 S 1 0 0 1 200 -164
EndChar
StartChar: uni1EE8
Encoding: 7912 7912 599
Width: 633
Flags: HW
Fore
411 831.827 m 1
 369 758.229 l 1
 318 758.241 l 1
 318.066 760.674 360.8 824.481 361 831.841 c 1
 411 831.827 l 1
165.857 326.746 m 0
 201.494 167.646 166.692 -9.19727 316.188 -11 c 0
 465.245 -12.7969 438.516 194.137 467.143 326.746 c 0
 481.021 391.036 498.744 420.527 523.759 485.277 c 0
 537.402 520.593 539.768 527.811 549.669 547.411 c 1
 644.986 546.167 711.469 636.166 700.293 711.584 c 0
 692.566 755.128 660.129 782.917 617.34 787.856 c 1
 635.124 774.796 646.605 755.193 650.922 730.866 c 0
 659.664 671.867 623.661 611.805 567.609 582.975 c 1
 588.867 628.911 623.12 731.796 611.954 767.567 c 0
 602.862 796.697 576.317 786.45 562.419 775.939 c 0
 488.777 720.241 481.8 658.263 438.702 574.367 c 0
 398.399 495.915 394.512 395.49 375.857 310.854 c 0
 353.776 210.67 391.944 104.267 316.5 102.801 c 0
 244.154 101.394 277.785 213.243 257.143 310.854 c 0
 238.543 398.812 234.215 496.914 194.298 574.367 c 0
 151.746 656.932 147.023 716.365 70.5801 775.939 c 0
 48.9732 792.774 19.0379 793.737 18.6973 749.194 c 0
 18.4277 713.511 41.5918 628.019 74.2217 565.021 c 0
 92.4531 529.824 94.0586 524.874 109.241 485.277 c 0
 134.66 418.986 150.558 395.048 165.857 326.746 c 0
EndSplineSet
EndChar
StartChar: uni1EE9
Encoding: 7913 7913 600
Width: 615
Flags: HW
Fore
133.841 412.651 m 1
 79.0479 371.608 43.3467 306.044 41.4463 228 c 1
 41.4463 105.369 133.38 6.30469 258.446 3 c 0
 289.794 3 319.364 9.62891 346 21.7061 c 1
 346 2 l 1
 397 1.06836 l 1
 396.985 3.81348 396.936 24.125 396.867 54.3574 c 1
 418.35 72.9785 436.27 96.0107 449.554 122.352 c 1
 433.48 110.145 415.764 100.643 396.776 93.9346 c 1
 396.48 226.445 l 1
 490.436 210.911 577.532 304.145 564.949 389.059 c 0
 557.223 432.603 524.785 460.392 481.996 465.331 c 1
 499.78 452.271 511.262 432.668 515.578 408.341 c 0
 525.93 338.482 472.823 264.286 396.43 247.49 c 1
 396.252 323.861 396.082 392.07 396 407.068 c 1
 346 408 l 1
 346 82.9512 l 1
 339.083 82.3184 332.06 82 324.946 82 c 0
 199.88 85.3047 107.946 184.369 107.946 307 c 0
 108.888 345.64 118.114 381.466 133.841 412.651 c 1
354 609.827 m 1
 312 536.229 l 1
 261 536.241 l 1
 261.066 538.674 303.8 602.481 304 609.841 c 1
 354 609.827 l 1
EndSplineSet
EndChar
StartChar: uni1EEA
Encoding: 7914 7914 601
Width: 633
Flags: HW
Fore
165.857 326.746 m 0
 201.494 167.646 166.692 -9.19727 316.188 -11 c 0
 465.245 -12.7969 438.516 194.137 467.143 326.746 c 0
 481.021 391.036 498.744 420.527 523.759 485.277 c 0
 537.402 520.593 539.768 527.811 549.669 547.411 c 1
 644.986 546.167 711.469 636.166 700.293 711.584 c 0
 692.566 755.128 660.129 782.917 617.34 787.856 c 1
 635.124 774.796 646.605 755.193 650.922 730.866 c 0
 659.664 671.867 623.661 611.805 567.609 582.975 c 1
 588.867 628.911 623.12 731.796 611.954 767.567 c 0
 602.862 796.697 576.317 786.45 562.419 775.939 c 0
 488.777 720.241 481.8 658.263 438.702 574.367 c 0
 398.399 495.915 394.512 395.49 375.857 310.854 c 0
 353.776 210.67 391.944 104.267 316.5 102.801 c 0
 244.154 101.394 277.785 213.243 257.143 310.854 c 0
 238.543 398.812 234.215 496.914 194.298 574.367 c 0
 151.746 656.932 147.023 716.365 70.5801 775.939 c 0
 48.9732 792.774 19.0379 793.737 18.6973 749.194 c 0
 18.4277 713.511 41.5918 628.019 74.2217 565.021 c 0
 92.4531 529.824 94.0586 524.874 109.241 485.277 c 0
 134.66 418.986 150.558 395.048 165.857 326.746 c 0
EndSplineSet
Ref: 96 96 S 1 0 0 1 192 234
EndChar
StartChar: uni1EEB
Encoding: 7915 7915 602
Width: 615
Flags: HW
Fore
133.841 412.651 m 1
 79.0479 371.608 43.3467 306.044 41.4463 228 c 1
 41.4463 105.369 133.38 6.30469 258.446 3 c 0
 289.794 3 319.364 9.62891 346 21.7061 c 1
 346 2 l 1
 397 1.06836 l 1
 396.985 3.81348 396.936 24.125 396.867 54.3574 c 1
 418.35 72.9785 436.27 96.0107 449.554 122.352 c 1
 433.48 110.145 415.764 100.643 396.776 93.9346 c 1
 396.48 226.445 l 1
 490.436 210.911 577.532 304.145 564.949 389.059 c 0
 557.223 432.603 524.785 460.392 481.996 465.331 c 1
 499.78 452.271 511.262 432.668 515.578 408.341 c 0
 525.93 338.482 472.823 264.286 396.43 247.49 c 1
 396.252 323.861 396.082 392.07 396 407.068 c 1
 346 408 l 1
 346 82.9512 l 1
 339.083 82.3184 332.06 82 324.946 82 c 0
 199.88 85.3047 107.946 184.369 107.946 307 c 0
 108.888 345.64 118.114 381.466 133.841 412.651 c 1
EndSplineSet
Ref: 96 96 N 1 0 0 1 84 -132
EndChar
StartChar: uni1EEC
Encoding: 7916 7916 603
Width: 633
Flags: HW
Fore
165.857 326.746 m 0
 201.494 167.646 166.692 -9.19727 316.188 -11 c 0
 465.245 -12.7969 438.516 194.137 467.143 326.746 c 0
 481.021 391.036 498.744 420.527 523.759 485.277 c 0
 537.402 520.593 539.768 527.811 549.669 547.411 c 1
 644.986 546.167 711.469 636.166 700.293 711.584 c 0
 692.566 755.128 660.129 782.917 617.34 787.856 c 1
 635.124 774.796 646.605 755.193 650.922 730.866 c 0
 659.664 671.867 623.661 611.805 567.609 582.975 c 1
 588.867 628.911 623.12 731.796 611.954 767.567 c 0
 602.862 796.697 576.317 786.45 562.419 775.939 c 0
 488.777 720.241 481.8 658.263 438.702 574.367 c 0
 398.399 495.915 394.512 395.49 375.857 310.854 c 0
 353.776 210.67 391.944 104.267 316.5 102.801 c 0
 244.154 101.394 277.785 213.243 257.143 310.854 c 0
 238.543 398.812 234.215 496.914 194.298 574.367 c 0
 151.746 656.932 147.023 716.365 70.5801 775.939 c 0
 48.9732 792.774 19.0379 793.737 18.6973 749.194 c 0
 18.4277 713.511 41.5918 628.019 74.2217 565.021 c 0
 92.4531 529.824 94.0586 524.874 109.241 485.277 c 0
 134.66 418.986 150.558 395.048 165.857 326.746 c 0
EndSplineSet
Ref: 777 777 S 1 0 0 1 264 840
EndChar
StartChar: uni1EED
Encoding: 7917 7917 604
Width: 615
Flags: HW
Fore
133.841 412.651 m 1
 79.0479 371.608 43.3467 306.044 41.4463 228 c 1
 41.4463 105.369 133.38 6.30469 258.446 3 c 0
 289.794 3 319.364 9.62891 346 21.7061 c 1
 346 2 l 1
 397 1.06836 l 1
 396.985 3.81348 396.936 24.125 396.867 54.3574 c 1
 418.35 72.9785 436.27 96.0107 449.554 122.352 c 1
 433.48 110.145 415.764 100.643 396.776 93.9346 c 1
 396.48 226.445 l 1
 490.436 210.911 577.532 304.145 564.949 389.059 c 0
 557.223 432.603 524.785 460.392 481.996 465.331 c 1
 499.78 452.271 511.262 432.668 515.578 408.341 c 0
 525.93 338.482 472.823 264.286 396.43 247.49 c 1
 396.252 323.861 396.082 392.07 396 407.068 c 1
 346 408 l 1
 346 82.9512 l 1
 339.083 82.3184 332.06 82 324.946 82 c 0
 199.88 85.3047 107.946 184.369 107.946 307 c 0
 108.888 345.64 118.114 381.466 133.841 412.651 c 1
EndSplineSet
Ref: 777 777 N 1 0 0 1 204 516
EndChar
StartChar: uni1EEE
Encoding: 7918 7918 605
Width: 633
Flags: HW
Fore
165.857 326.746 m 0
 201.494 167.646 166.692 -9.19727 316.188 -11 c 0
 465.245 -12.7969 438.516 194.137 467.143 326.746 c 0
 481.021 391.036 498.744 420.527 523.759 485.277 c 0
 537.402 520.593 539.768 527.811 549.669 547.411 c 1
 644.986 546.167 711.469 636.166 700.293 711.584 c 0
 692.566 755.128 660.129 782.917 617.34 787.856 c 1
 635.124 774.796 646.605 755.193 650.922 730.866 c 0
 659.664 671.867 623.661 611.805 567.609 582.975 c 1
 588.867 628.911 623.12 731.796 611.954 767.567 c 0
 602.862 796.697 576.317 786.45 562.419 775.939 c 0
 488.777 720.241 481.8 658.263 438.702 574.367 c 0
 398.399 495.915 394.512 395.49 375.857 310.854 c 0
 353.776 210.67 391.944 104.267 316.5 102.801 c 0
 244.154 101.394 277.785 213.243 257.143 310.854 c 0
 238.543 398.812 234.215 496.914 194.298 574.367 c 0
 151.746 656.932 147.023 716.365 70.5801 775.939 c 0
 48.9732 792.774 19.0379 793.737 18.6973 749.194 c 0
 18.4277 713.511 41.5918 628.019 74.2217 565.021 c 0
 92.4531 529.824 94.0586 524.874 109.241 485.277 c 0
 134.66 418.986 150.558 395.048 165.857 326.746 c 0
EndSplineSet
Ref: 732 732 S 1 0 0 1 132 348
EndChar
StartChar: uni1EEF
Encoding: 7919 7919 606
Width: 615
Flags: HW
Fore
133.841 412.651 m 1
 79.0479 371.608 43.3467 306.044 41.4463 228 c 1
 41.4463 105.369 133.38 6.30469 258.446 3 c 0
 289.794 3 319.364 9.62891 346 21.7061 c 1
 346 2 l 1
 397 1.06836 l 1
 396.985 3.81348 396.936 24.125 396.867 54.3574 c 1
 418.35 72.9785 436.27 96.0107 449.554 122.352 c 1
 433.48 110.145 415.764 100.643 396.776 93.9346 c 1
 396.48 226.445 l 1
 490.436 210.911 577.532 304.145 564.949 389.059 c 0
 557.223 432.603 524.785 460.392 481.996 465.331 c 1
 499.78 452.271 511.262 432.668 515.578 408.341 c 0
 525.93 338.482 472.823 264.286 396.43 247.49 c 1
 396.252 323.861 396.082 392.07 396 407.068 c 1
 346 408 l 1
 346 82.9512 l 1
 339.083 82.3184 332.06 82 324.946 82 c 0
 199.88 85.3047 107.946 184.369 107.946 307 c 0
 108.888 345.64 118.114 381.466 133.841 412.651 c 1
EndSplineSet
Ref: 732 732 N 1 0 0 1 60 54
EndChar
StartChar: uni1EF0
Encoding: 7920 7920 607
Width: 633
Flags: HW
Fore
165.857 326.746 m 0
 201.494 167.646 166.692 -9.19727 316.188 -11 c 0
 465.245 -12.7969 438.516 194.137 467.143 326.746 c 0
 481.021 391.036 498.744 420.527 523.759 485.277 c 0
 537.402 520.593 539.768 527.811 549.669 547.411 c 1
 644.986 546.167 711.469 636.166 700.293 711.584 c 0
 692.566 755.128 660.129 782.917 617.34 787.856 c 1
 635.124 774.796 646.605 755.193 650.922 730.866 c 0
 659.664 671.867 623.661 611.805 567.609 582.975 c 1
 588.867 628.911 623.12 731.796 611.954 767.567 c 0
 602.862 796.697 576.317 786.45 562.419 775.939 c 0
 488.777 720.241 481.8 658.263 438.702 574.367 c 0
 398.399 495.915 394.512 395.49 375.857 310.854 c 0
 353.776 210.67 391.944 104.267 316.5 102.801 c 0
 244.154 101.394 277.785 213.243 257.143 310.854 c 0
 238.543 398.812 234.215 496.914 194.298 574.367 c 0
 151.746 656.932 147.023 716.365 70.5801 775.939 c 0
 48.9732 792.774 19.0379 793.737 18.6973 749.194 c 0
 18.4277 713.511 41.5918 628.019 74.2217 565.021 c 0
 92.4531 529.824 94.0586 524.874 109.241 485.277 c 0
 134.66 418.986 150.558 395.048 165.857 326.746 c 0
EndSplineSet
Ref: 46 46 S 1 0 0 1 240 -192
EndChar
StartChar: uni1EF1
Encoding: 7921 7921 608
Width: 615
Flags: HW
Fore
133.841 412.651 m 1
 79.0479 371.608 43.3467 306.044 41.4463 228 c 1
 41.4463 105.369 133.38 6.30469 258.446 3 c 0
 289.794 3 319.364 9.62891 346 21.7061 c 1
 346 2 l 1
 397 1.06836 l 1
 396.985 3.81348 396.936 24.125 396.867 54.3574 c 1
 418.35 72.9785 436.27 96.0107 449.554 122.352 c 1
 433.48 110.145 415.764 100.643 396.776 93.9346 c 1
 396.48 226.445 l 1
 490.436 210.911 577.532 304.145 564.949 389.059 c 0
 557.223 432.603 524.785 460.392 481.996 465.331 c 1
 499.78 452.271 511.262 432.668 515.578 408.341 c 0
 525.93 338.482 472.823 264.286 396.43 247.49 c 1
 396.252 323.861 396.082 392.07 396 407.068 c 1
 346 408 l 1
 346 82.9512 l 1
 339.083 82.3184 332.06 82 324.946 82 c 0
 199.88 85.3047 107.946 184.369 107.946 307 c 0
 108.888 345.64 118.114 381.466 133.841 412.651 c 1
EndSplineSet
Ref: 46 46 S 1 0 0 1 192 -168
EndChar
StartChar: quoteright
Encoding: 8217 8217 618
Width: 401
Flags: HW
Fore
136 655.5 m 5
 147.6 667.1 151 666.725 151 679.5 c 4
 151 687.657 148.735 695.184 144.92 701.223 c 5
 148.189 707.424 152.653 712.555 157.9 716.104 c 5
 160 724.5 l 5
 183 727.5 l 5
 182.42 720.542 l 5
 189.472 718.692 195.767 714.262 200.641 708.076 c 5
 206 712 l 5
 221 676 l 5
 220.958 675.965 l 6
 294.133 646.067 313.667 538.627 237.473 485.277 c 4
 204.963 463.674 167.871 459.492 135.347 470.163 c 5
 223.55 482.936 266.883 589.216 206.604 654.947 c 5
 202.736 646.109 196.565 639.068 189.104 635.088 c 5
 190 631.5 l 5
 172 628.5 l 5
 170.569 631.838 l 5
 162.496 633.078 155.248 637.663 149.738 644.449 c 5
 145 640.5 l 5
 136 655.5 l 5
EndSplineSet
EndChar
